<svg id="svg" version="1.1" xmlns="http://www.w3.org/2000/svg" xmlns:xlink="http://www.w3.org/1999/xlink" width="400" height="400" viewBox="0, 0, 400,400"><g id="svgg"><path id="path0" d="M212.567 57.584 C 205.032 60.628,204.664 61.126,206.445 65.858 C 207.589 68.896,207.566 68.750,206.898 68.750 C 204.102 68.750,198.059 74.047,196.463 77.897 C 195.181 80.991,193.809 81.041,192.849 78.027 C 192.087 75.633,189.758 72.404,187.988 71.289 C 186.985 70.657,186.746 70.245,186.734 69.130 C 186.707 66.692,184.452 64.836,182.201 65.401 C 177.586 66.560,178.738 72.961,183.490 72.567 L 185.589 72.393 187.354 74.356 C 191.984 79.506,191.773 79.911,184.285 80.221 C 145.617 81.824,127.544 87.450,116.562 101.302 C 108.649 111.284,105.433 121.800,104.822 139.693 L 104.567 147.159 101.405 147.405 C 99.665 147.541,96.896 147.653,95.250 147.654 C 91.619 147.657,90.593 148.526,89.831 152.242 C 89.191 155.362,89.120 155.550,88.678 155.277 C 88.463 155.145,87.862 155.461,87.343 155.981 C 86.024 157.300,85.827 159.507,86.018 170.765 C 86.191 180.880,86.381 181.965,88.118 182.756 C 88.642 182.995,89.142 183.647,89.274 184.264 C 90.470 189.841,90.899 190.109,99.370 190.590 C 103.209 190.808,106.415 191.051,106.495 191.130 C 106.574 191.209,106.995 192.666,107.430 194.368 C 110.458 206.209,119.600 215.053,131.250 217.411 C 134.284 218.025,136.557 218.055,157.617 217.755 C 170.293 217.574,191.914 217.504,205.664 217.600 C 219.414 217.695,239.365 217.773,250.000 217.773 L 269.336 217.773 272.766 216.649 C 282.857 213.341,291.424 203.432,293.151 193.068 C 293.514 190.892,293.151 191.007,301.083 190.565 C 304.972 190.348,308.222 189.990,308.515 189.747 C 309.332 189.069,310.241 187.093,310.715 184.965 C 311.036 183.523,311.351 182.979,311.922 182.875 C 313.215 182.640,314.348 181.284,314.607 179.663 C 314.772 178.633,315.055 178.125,315.464 178.125 C 317.540 178.125,318.359 176.103,318.359 170.981 C 318.359 165.637,317.787 164.063,315.843 164.063 C 315.007 164.063,314.934 163.870,314.763 161.230 C 314.547 157.903,313.757 156.151,312.176 155.496 C 311.207 155.095,310.969 154.697,310.599 152.857 C 309.631 148.033,309.253 147.809,301.525 147.453 L 295.824 147.190 295.569 140.294 C 293.894 94.966,273.123 80.796,207.171 79.989 L 198.521 79.883 199.297 78.362 C 200.807 75.402,207.120 70.178,207.998 71.163 C 208.060 71.232,208.655 72.375,209.320 73.702 C 211.430 77.912,212.220 78.084,218.258 75.649 C 220.570 74.716,222.959 73.830,223.569 73.680 C 226.993 72.833,227.194 71.020,224.578 64.533 C 220.402 54.177,220.647 54.319,212.567 57.584 M219.855 59.668 C 221.525 63.015,224.277 70.411,223.967 70.718 C 223.444 71.236,213.243 75.052,212.788 74.901 C 212.302 74.739,209.220 67.012,208.568 64.324 C 207.999 61.979,207.881 62.092,213.117 59.953 C 218.415 57.789,218.908 57.768,219.855 59.668 M213.445 62.846 C 210.750 64.489,210.310 68.063,212.530 70.282 C 215.252 73.004,219.876 71.854,221.098 68.151 C 222.482 63.958,217.400 60.435,213.445 62.846 M218.502 64.386 C 219.699 65.459,219.980 66.683,219.366 68.151 C 218.391 70.486,215.592 71.096,213.849 69.354 C 210.791 66.295,215.283 61.499,218.502 64.386 M184.752 67.552 C 185.748 69.414,184.990 71.094,183.153 71.094 C 181.118 71.094,180.157 69.002,181.506 67.511 C 182.370 66.556,184.231 66.580,184.752 67.552 M211.328 85.552 C 241.761 86.858,259.766 90.198,269.170 96.281 C 280.173 103.399,286.223 115.681,287.311 133.105 L 287.585 137.500 280.218 137.493 C 275.942 137.489,271.541 137.267,269.727 136.965 C 263.769 135.973,232.897 136.355,229.492 137.463 C 224.114 139.214,219.954 141.832,215.835 146.058 L 213.897 148.047 200.002 148.047 L 186.108 148.047 183.777 145.669 C 179.082 140.881,174.155 138.112,168.359 137.002 C 164.556 136.273,133.847 136.326,129.297 137.069 C 127.535 137.357,123.720 137.499,119.727 137.426 L 113.086 137.305 113.198 133.789 C 113.925 111.048,123.951 96.684,143.062 91.007 C 157.394 86.749,185.985 84.464,211.328 85.552 M167.188 104.818 C 167.188 109.881,167.278 110.807,167.773 110.807 C 168.269 110.807,168.359 109.881,168.359 104.818 C 168.359 99.754,168.269 98.828,167.773 98.828 C 167.278 98.828,167.188 99.754,167.188 104.818 M179.688 104.688 C 179.688 110.286,179.722 110.547,180.469 110.547 C 181.215 110.547,181.250 110.286,181.250 104.688 C 181.250 99.089,181.215 98.828,180.469 98.828 C 179.722 98.828,179.688 99.089,179.688 104.688 M193.750 104.871 C 193.750 110.081,193.831 110.882,194.336 110.688 C 194.820 110.502,194.922 109.457,194.922 104.646 C 194.922 99.735,194.831 98.828,194.336 98.828 C 193.840 98.828,193.750 99.760,193.750 104.871 M209.375 104.688 C 209.375 110.321,209.406 110.547,210.170 110.547 C 210.938 110.547,210.964 110.338,210.916 104.688 C 210.870 99.199,210.820 98.828,210.121 98.828 C 209.420 98.828,209.375 99.181,209.375 104.688 M223.047 104.688 C 223.047 109.635,223.138 110.547,223.633 110.547 C 224.128 110.547,224.219 109.635,224.219 104.688 C 224.219 99.740,224.128 98.828,223.633 98.828 C 223.138 98.828,223.047 99.740,223.047 104.688 M235.938 104.818 C 235.938 109.881,236.028 110.807,236.523 110.807 C 237.019 110.807,237.109 109.881,237.109 104.818 C 237.109 99.754,237.019 98.828,236.523 98.828 C 236.028 98.828,235.938 99.754,235.938 104.818 M151.966 104.867 C 150.684 106.412,151.319 110.181,152.914 110.488 C 153.999 110.697,154.688 109.489,154.688 107.375 C 154.688 104.798,153.178 103.407,151.966 104.867 M248.906 104.766 C 248.648 105.023,248.438 106.219,248.438 107.422 C 248.438 110.515,250.287 111.880,251.215 109.473 C 252.270 106.736,250.515 103.157,248.906 104.766 M119.922 120.509 C 119.922 121.315,280.493 121.216,280.762 120.410 C 280.892 120.021,264.651 119.922,200.423 119.922 C 129.070 119.922,119.922 119.989,119.922 120.509 M132.544 123.809 C 130.944 124.784,130.469 125.711,130.469 127.851 C 130.469 132.215,135.452 134.217,138.284 130.992 C 141.812 126.974,137.075 121.046,132.544 123.809 M263.867 123.416 C 261.899 124.222,260.749 126.824,261.369 129.069 C 262.311 132.482,266.486 133.592,268.984 131.094 C 272.560 127.518,268.549 121.500,263.867 123.416 M126.172 138.812 C 126.172 138.889,125.161 139.579,123.926 140.345 C 122.690 141.112,120.738 142.547,119.587 143.535 C 116.837 145.894,116.387 146.105,114.703 145.832 L 113.281 145.601 113.281 142.136 L 113.281 138.672 119.727 138.672 C 123.271 138.672,126.172 138.735,126.172 138.812 M287.026 142.285 L 286.914 145.897 285.352 145.772 C 284.327 145.690,283.318 145.254,282.422 144.506 C 281.283 143.556,278.117 141.361,274.744 139.183 C 274.170 138.813,275.358 138.713,280.581 138.695 L 287.139 138.672 287.026 142.285 M167.578 145.228 C 179.197 149.095,184.136 158.425,184.165 176.563 C 184.195 194.542,179.182 204.911,168.750 208.451 C 165.499 209.554,133.863 209.562,130.273 208.460 C 118.778 204.933,113.848 193.464,115.567 174.249 C 117.199 156.016,124.073 146.613,137.305 144.516 C 141.943 143.781,164.849 144.320,167.578 145.228 M266.389 145.046 C 279.698 148.971,285.750 161.362,285.026 183.203 C 284.490 199.368,279.197 207.244,267.690 209.001 C 262.145 209.847,234.271 209.303,231.226 208.289 C 221.133 204.929,215.610 193.715,215.633 176.632 C 215.659 157.393,222.236 146.944,235.843 144.527 C 239.298 143.913,263.968 144.333,266.389 145.046 M142.066 147.289 C 130.705 148.297,122.766 155.094,119.965 166.211 C 115.006 185.888,122.203 201.696,137.779 205.339 C 142.286 206.393,161.107 206.393,164.844 205.338 C 176.934 201.926,182.831 190.172,181.257 172.621 C 179.316 150.986,169.791 144.829,142.066 147.289 M240.039 147.243 C 226.083 148.861,220.266 155.608,218.746 171.939 C 217.393 186.475,221.425 198.256,229.328 202.860 C 237.382 207.553,260.224 207.598,269.063 202.939 C 287.507 193.218,286.186 157.446,267.081 149.257 C 262.579 147.327,248.416 146.272,240.039 147.243 M114.844 147.852 C 114.576 148.174,114.203 148.438,114.015 148.438 C 113.826 148.438,113.672 148.174,113.672 147.852 C 113.672 147.515,114.024 147.266,114.501 147.266 C 115.194 147.266,115.250 147.362,114.844 147.852 M286.860 147.852 C 286.991 148.194,286.866 148.438,286.559 148.438 C 286.270 148.438,285.814 148.174,285.547 147.852 C 285.142 147.364,285.192 147.266,285.848 147.266 C 286.281 147.266,286.736 147.529,286.860 147.852 M162.075 149.240 C 174.554 151.265,179.468 159.032,179.485 176.758 C 179.498 191.064,176.684 197.693,168.817 201.886 C 161.626 205.718,140.916 205.717,132.852 201.884 C 114.752 193.280,116.070 157.993,134.766 150.613 C 139.086 148.908,155.072 148.104,162.075 149.240 M261.638 149.429 C 272.345 151.564,278.381 159.211,280.093 172.809 C 282.097 188.733,275.049 200.677,261.818 203.782 C 257.404 204.817,239.701 204.804,235.938 203.762 C 224.635 200.633,220.569 193.554,220.539 176.953 C 220.507 159.430,224.878 152.009,236.747 149.435 C 240.457 148.630,257.613 148.626,261.638 149.429 M211.582 152.021 C 209.662 155.462,207.982 160.743,207.175 165.878 L 206.491 170.232 201.976 170.033 C 199.493 169.923,196.524 170.007,195.380 170.220 C 193.873 170.501,193.266 170.486,193.180 170.167 C 193.115 169.925,192.861 168.193,192.615 166.319 C 191.909 160.938,190.200 155.763,187.195 149.908 C 187.075 149.674,212.382 149.254,212.829 149.482 C 212.902 149.520,212.341 150.662,211.582 152.021 M110.286 151.989 L 112.776 152.807 111.724 155.407 C 109.306 161.389,107.874 168.861,107.541 177.246 C 107.282 183.753,107.251 183.820,104.931 182.763 C 103.590 182.152,103.511 181.577,103.491 172.184 C 103.473 164.169,104.019 158.065,105.142 153.711 C 105.878 150.858,106.355 150.699,110.286 151.989 M294.614 152.734 C 296.032 155.630,297.002 163.652,297.000 172.461 C 296.998 181.513,296.911 182.102,295.482 182.753 C 293.533 183.641,293.488 183.548,293.192 178.027 C 292.748 169.755,291.047 161.360,288.545 155.097 L 287.679 152.930 289.836 152.070 C 292.778 150.896,293.783 151.036,294.614 152.734 M102.002 156.935 C 100.806 163.813,100.260 170.761,100.551 175.391 L 100.809 179.492 97.003 179.492 L 93.197 179.492 92.885 178.125 C 91.950 174.035,92.187 155.225,93.207 152.568 C 93.451 151.932,102.400 151.444,102.670 152.052 C 102.741 152.214,102.441 154.411,102.002 156.935 M306.770 152.334 C 308.043 153.540,308.590 171.990,307.517 177.539 L 307.215 179.102 303.510 179.210 L 299.805 179.319 299.747 171.984 C 299.694 165.094,298.970 159.038,297.447 152.731 L 297.210 151.750 301.828 151.888 C 304.367 151.964,306.592 152.165,306.770 152.334 M148.828 152.351 C 135.899 154.598,127.944 168.848,132.400 181.778 C 138.029 198.108,160.483 200.564,170.263 185.919 C 175.387 178.245,174.750 167.067,168.833 160.858 L 167.454 159.411 166.569 161.321 C 163.645 167.633,154.159 166.649,152.893 159.902 C 152.529 157.963,153.440 155.180,154.922 153.697 C 156.660 151.960,154.201 151.417,148.828 152.351 M243.750 152.364 C 222.684 156.010,220.809 187.193,241.227 194.328 C 260.764 201.155,277.962 178.873,265.737 162.573 L 264.766 161.278 263.364 162.917 C 261.691 164.870,260.058 165.627,257.532 165.619 C 251.428 165.598,248.574 158.287,252.847 153.615 C 253.288 153.132,253.547 152.636,253.423 152.511 C 253.007 152.096,245.925 151.988,243.750 152.364 M312.707 160.265 C 313.283 162.584,312.077 173.705,311.301 173.226 C 310.452 172.701,310.863 158.527,311.714 158.982 C 312.141 159.211,312.588 159.788,312.707 160.265 M89.647 165.909 C 89.444 175.827,88.555 175.728,88.111 165.737 C 87.894 160.852,88.201 158.984,89.221 158.984 C 89.702 158.984,89.767 160.046,89.647 165.909 M316.002 167.162 C 316.897 168.835,316.312 173.828,315.221 173.828 C 315.005 173.828,314.844 172.241,314.844 170.117 C 314.844 166.467,315.176 165.619,316.002 167.162 M142.870 168.552 C 145.038 171.073,143.195 175.000,139.844 175.000 C 135.702 175.000,134.445 169.722,138.086 167.619 C 139.346 166.892,141.864 167.383,142.870 168.552 M240.204 168.199 C 242.780 170.366,241.317 174.609,237.995 174.609 C 235.235 174.609,233.507 172.357,234.338 169.840 C 235.183 167.278,238.130 166.453,240.204 168.199 M205.957 178.700 C 206.517 178.937,206.641 179.495,206.643 181.780 C 206.655 196.408,213.582 209.089,224.644 214.734 L 227.539 216.211 200.132 216.211 L 172.725 216.211 176.109 214.464 C 186.174 209.267,192.314 198.046,193.216 183.205 L 193.475 178.929 195.078 178.546 C 196.837 178.125,204.867 178.239,205.957 178.700 M99.779 182.412 C 102.453 183.429,98.019 184.553,94.434 183.767 C 92.553 183.355,93.145 182.478,95.410 182.319 C 96.538 182.240,97.757 182.143,98.119 182.104 C 98.481 182.064,99.228 182.203,99.779 182.412 M306.641 182.813 C 306.641 183.539,306.380 183.594,302.930 183.594 C 299.271 183.594,298.765 183.423,299.688 182.500 C 300.579 181.609,306.641 181.881,306.641 182.813 M193.620 196.280 C 192.245 197.655,194.146 201.935,196.792 203.422 C 201.614 206.132,208.147 201.764,206.871 196.682 C 206.526 195.304,206.071 195.453,204.602 197.424 C 201.467 201.634,198.392 201.406,195.105 196.719 C 194.346 195.637,194.282 195.618,193.620 196.280 M135.845 226.178 C 134.428 227.050,134.333 227.920,135.356 230.639 C 136.867 234.653,136.906 234.592,132.960 234.443 C 126.602 234.202,126.953 233.308,126.953 249.736 L 126.953 262.716 125.385 262.566 C 123.412 262.378,122.194 263.142,120.692 265.510 C 118.152 269.515,114.788 279.491,114.886 282.725 C 114.917 283.740,114.644 285.580,114.280 286.814 C 113.607 289.096,113.715 290.318,114.691 291.433 C 114.987 291.771,115.557 293.002,115.958 294.170 C 117.988 300.069,120.725 303.757,124.609 305.827 L 126.953 307.077 126.959 319.066 C 126.962 325.660,127.094 331.248,127.252 331.484 C 128.002 332.608,129.788 332.874,140.146 333.407 C 166.132 334.745,172.780 335.920,187.409 341.761 C 198.177 346.060,202.929 346.065,213.892 341.787 C 228.675 336.019,236.736 334.519,257.813 333.612 C 271.668 333.015,273.112 332.871,274.056 331.993 C 274.855 331.250,274.867 331.013,274.688 319.193 L 274.505 307.151 276.888 305.704 C 280.671 303.406,283.031 300.086,284.936 294.381 C 285.287 293.331,285.919 292.033,286.342 291.496 C 287.250 290.340,287.322 288.423,286.551 285.882 C 286.245 284.875,286.094 283.371,286.211 282.498 C 286.367 281.338,286.045 279.729,284.980 276.350 C 281.816 266.303,279.296 262.500,275.801 262.500 L 274.609 262.500 274.609 249.084 C 274.609 232.889,275.076 234.133,269.142 234.495 C 264.587 234.772,264.596 234.783,266.031 230.628 C 267.505 226.359,266.274 225.368,260.478 226.160 C 257.640 226.548,256.459 226.548,254.627 226.159 C 251.640 225.525,239.096 225.880,233.984 226.743 C 219.857 229.127,208.758 234.374,202.954 241.411 C 200.645 244.211,200.858 244.180,199.194 241.957 C 191.640 231.869,172.090 225.230,152.070 225.955 C 148.246 226.093,144.238 226.237,143.164 226.275 C 142.090 226.312,140.156 226.212,138.867 226.052 C 137.376 225.867,136.276 225.913,135.845 226.178 M164.453 229.145 C 179.186 231.274,188.933 235.375,195.971 242.407 C 198.045 244.478,199.605 246.689,199.608 247.559 C 199.611 248.550,193.613 248.200,193.159 247.182 C 190.785 241.859,172.082 233.403,154.883 229.876 C 150.421 228.961,148.968 228.537,149.805 228.394 C 151.674 228.073,159.983 228.499,164.453 229.145 M249.607 228.382 L 252.063 228.638 246.246 229.928 C 231.201 233.263,217.630 239.268,210.773 245.624 C 209.776 246.547,209.054 247.452,209.166 247.635 C 209.368 247.962,202.826 248.441,202.237 248.143 C 201.612 247.826,204.133 244.032,206.609 241.565 C 213.679 234.517,225.593 230.091,241.602 228.566 C 246.484 228.100,246.837 228.092,249.607 228.382 M141.741 229.098 C 143.598 229.419,147.402 230.047,150.195 230.494 C 167.399 233.248,181.933 239.030,190.781 246.639 L 192.303 247.949 191.200 248.486 C 189.473 249.327,189.527 250.000,191.320 250.000 C 192.168 250.000,193.809 250.190,194.966 250.421 C 197.904 251.010,204.735 250.929,208.078 250.266 C 209.865 249.912,211.018 249.846,211.257 250.085 C 211.495 250.323,211.719 250.316,211.874 250.065 C 212.007 249.849,211.667 249.318,211.117 248.885 L 210.117 248.099 211.946 246.413 C 218.442 240.426,231.576 234.506,244.636 231.679 C 249.261 230.678,263.348 228.453,263.582 228.686 C 263.674 228.778,263.242 230.570,262.621 232.668 L 261.494 236.482 257.798 237.397 C 233.465 243.419,212.500 252.705,212.500 257.462 C 212.500 258.913,212.237 259.004,216.596 256.049 C 227.647 248.556,251.212 240.319,270.229 237.302 L 271.902 237.036 271.791 251.714 L 271.680 266.392 270.508 267.564 L 269.336 268.736 269.448 254.485 C 269.543 242.297,269.478 240.234,268.997 240.234 C 268.174 240.234,256.837 242.805,251.593 244.181 C 237.085 247.987,225.193 252.987,216.579 258.903 L 212.695 261.570 212.596 299.541 L 212.496 337.512 213.963 336.864 C 227.510 330.876,235.769 329.258,258.594 328.123 C 262.998 327.904,267.261 327.623,268.066 327.500 L 269.531 327.275 269.531 317.153 L 269.531 307.031 270.703 307.031 L 271.875 307.031 271.875 318.537 L 271.875 330.043 270.605 330.251 C 269.907 330.365,264.150 330.729,257.813 331.058 C 237.187 332.130,228.238 333.664,216.742 338.100 C 202.017 343.782,199.201 343.861,186.914 338.941 C 173.904 333.730,165.840 332.277,143.164 331.052 C 137.148 330.728,131.749 330.363,131.165 330.242 C 129.717 329.941,129.664 329.439,129.782 317.188 L 129.883 306.836 131.055 306.836 L 132.227 306.836 132.331 317.084 C 132.435 327.331,132.435 327.332,133.307 327.528 C 133.787 327.636,139.102 327.997,145.117 328.331 C 166.571 329.519,176.920 331.558,186.729 336.529 C 187.783 337.063,188.740 337.500,188.854 337.500 C 188.969 337.500,189.063 320.385,189.063 299.467 L 189.063 261.435 185.449 258.854 C 178.511 253.898,169.136 249.649,157.257 246.075 C 152.796 244.733,132.816 239.849,132.528 240.031 C 132.479 240.062,132.427 246.624,132.413 254.614 C 132.398 262.604,132.232 269.141,132.045 269.141 C 130.337 269.141,130.094 267.113,129.987 251.917 L 129.883 237.305 131.836 237.422 C 134.752 237.598,156.717 243.108,163.457 245.355 C 170.952 247.853,179.057 251.768,184.708 255.620 C 189.627 258.973,189.502 258.933,189.118 257.029 C 188.116 252.062,169.565 243.744,146.875 238.089 C 139.159 236.166,139.974 236.596,139.264 234.074 C 138.918 232.843,138.379 231.173,138.067 230.363 C 137.217 228.156,136.903 228.263,141.741 229.098 M191.703 252.219 C 191.415 252.752,191.432 323.078,191.722 331.223 L 191.992 338.813 193.164 339.157 C 195.757 339.918,204.339 339.936,207.227 339.186 L 209.961 338.477 210.053 296.484 C 210.104 273.389,210.055 253.938,209.945 253.261 L 209.745 252.029 207.704 252.575 C 203.354 253.739,195.936 253.536,192.520 252.159 C 192.166 252.017,191.798 252.044,191.703 252.219 M197.918 264.453 C 200.189 264.742,204.035 264.484,206.973 263.844 C 208.692 263.469,208.590 264.740,206.831 265.611 C 205.288 266.374,196.911 266.431,194.824 265.692 C 192.970 265.036,192.619 263.395,194.434 263.866 C 195.024 264.019,196.592 264.283,197.918 264.453 M126.250 265.918 C 126.574 266.294,127.334 267.527,127.939 268.659 C 129.268 271.147,131.506 272.746,135.249 273.883 C 136.762 274.343,137.891 274.905,137.891 275.199 C 137.891 276.296,129.538 279.265,126.367 279.295 C 125.026 279.308,123.368 279.612,118.414 280.754 C 117.249 281.023,117.437 279.364,119.167 274.126 C 121.672 266.541,124.230 263.576,126.250 265.918 M277.762 265.640 C 279.185 266.401,282.328 273.763,283.166 278.301 C 283.683 281.097,283.536 281.349,281.808 280.627 C 281.050 280.310,278.988 279.877,277.227 279.664 C 271.528 278.974,263.281 276.229,263.281 275.021 C 263.281 274.811,264.129 274.388,265.165 274.080 C 269.679 272.740,272.408 270.667,273.660 267.629 C 274.584 265.386,276.003 264.698,277.762 265.640 M200.781 268.555 C 202.607 268.555,205.041 268.404,206.189 268.220 C 208.106 267.913,208.265 267.945,208.137 268.611 C 207.657 271.102,193.359 271.172,193.359 268.683 C 193.359 267.951,193.505 267.919,195.410 268.225 C 196.538 268.406,198.955 268.555,200.781 268.555 M155.451 274.654 C 156.716 277.596,157.222 282.681,156.763 287.854 C 156.091 295.422,155.298 294.265,154.929 285.179 C 154.686 279.193,154.367 276.075,153.667 272.859 C 153.280 271.077,154.395 272.199,155.451 274.654 M247.282 274.262 C 247.061 275.205,246.695 279.316,246.469 283.398 C 245.898 293.707,244.891 295.795,244.397 287.695 C 244.044 281.908,244.619 277.435,246.119 274.281 C 247.447 271.492,247.934 271.483,247.282 274.262 M138.607 281.965 C 140.309 282.935,136.878 285.215,132.711 285.882 L 130.664 286.210 132.063 286.833 C 132.833 287.175,134.368 287.576,135.474 287.723 C 141.733 288.553,137.413 291.586,129.283 292.070 C 124.312 292.366,118.920 291.612,117.769 290.460 C 114.896 287.588,117.050 282.815,121.736 281.668 C 124.069 281.096,137.498 281.333,138.607 281.965 M281.048 282.424 C 285.461 284.633,285.669 289.819,281.408 291.379 C 278.995 292.262,269.208 292.192,266.189 291.270 C 260.964 289.674,260.970 288.571,266.211 287.500 C 269.789 286.769,271.427 285.938,269.290 285.938 C 266.378 285.938,261.423 283.505,261.832 282.276 C 262.317 280.820,278.086 280.941,281.048 282.424 M281.685 296.569 C 278.961 302.237,276.229 304.108,270.703 304.089 C 263.805 304.067,260.359 301.954,265.517 300.910 C 268.015 300.405,271.094 299.065,271.094 298.484 C 271.094 298.303,270.074 298.063,268.827 297.950 C 266.477 297.737,262.855 296.407,262.079 295.471 C 261.242 294.462,263.662 294.086,272.952 293.782 C 277.948 293.618,282.167 293.353,282.327 293.192 C 283.110 292.401,282.733 294.389,281.685 296.569 M132.813 293.922 C 140.688 294.264,140.296 296.468,132.074 298.073 L 129.577 298.561 131.293 299.457 C 132.236 299.951,134.023 300.562,135.263 300.816 C 138.817 301.543,138.651 302.551,134.792 303.677 C 127.481 305.812,121.215 302.462,118.587 295.015 L 118.030 293.435 123.566 293.598 C 126.611 293.687,130.771 293.833,132.813 293.922 M156.417 300.614 C 157.890 302.087,156.726 304.297,154.478 304.297 C 153.567 304.297,153.026 304.060,152.748 303.541 C 151.777 301.726,152.722 300.000,154.688 300.000 C 155.301 300.000,156.080 300.276,156.417 300.614 M248.114 300.646 C 248.990 301.440,249.037 302.860,248.214 303.683 C 246.152 305.746,242.834 302.872,244.787 300.714 C 245.592 299.825,247.170 299.793,248.114 300.646 M202.344 329.169 C 204.170 329.057,206.147 328.781,206.738 328.555 C 207.728 328.177,207.813 328.219,207.813 329.093 C 207.813 331.182,194.776 331.663,193.513 329.621 C 192.816 328.493,193.684 328.244,196.352 328.808 C 198.084 329.173,200.191 329.300,202.344 329.169 M200.781 333.398 C 202.607 333.398,204.937 333.256,205.957 333.082 C 208.432 332.659,208.731 333.994,206.348 334.825 C 204.557 335.449,196.369 335.451,194.824 334.828 C 192.792 334.008,193.377 332.701,195.605 333.082 C 196.626 333.256,198.955 333.398,200.781 333.398 " stroke="none" fill="#241d21" fill-rule="evenodd"></path><path id="path1" d="M211.626 79.964 C 212.112 80.057,212.815 80.054,213.188 79.956 C 213.562 79.858,213.164 79.782,212.305 79.786 C 211.445 79.790,211.140 79.870,211.626 79.964 M235.697 103.516 C 235.697 106.201,235.760 107.300,235.836 105.957 C 235.912 104.614,235.912 102.417,235.836 101.074 C 235.760 99.731,235.697 100.830,235.697 103.516 M168.498 107.227 C 168.497 109.160,168.563 110.000,168.645 109.094 C 168.727 108.187,168.728 106.605,168.647 105.578 C 168.566 104.551,168.499 105.293,168.498 107.227 M120.228 137.398 C 121.363 137.477,123.121 137.476,124.134 137.396 C 125.147 137.316,124.219 137.251,122.070 137.252 C 119.922 137.253,119.093 137.319,120.228 137.398 M114.746 138.958 C 115.659 139.040,117.153 139.040,118.066 138.958 C 118.979 138.876,118.232 138.808,116.406 138.808 C 114.580 138.808,113.833 138.876,114.746 138.958 M257.520 144.410 C 257.896 144.508,258.511 144.508,258.887 144.410 C 259.263 144.312,258.955 144.231,258.203 144.231 C 257.451 144.231,257.144 144.312,257.520 144.410 M94.629 147.535 C 95.005 147.633,95.620 147.633,95.996 147.535 C 96.372 147.437,96.064 147.356,95.313 147.356 C 94.561 147.356,94.253 147.437,94.629 147.535 M97.168 154.573 C 97.651 154.666,98.442 154.666,98.926 154.573 C 99.409 154.479,99.014 154.403,98.047 154.403 C 97.080 154.403,96.685 154.479,97.168 154.573 M301.081 154.580 C 301.783 154.667,302.838 154.665,303.425 154.576 C 304.012 154.487,303.438 154.416,302.148 154.418 C 300.859 154.420,300.379 154.493,301.081 154.580 M304.985 156.526 C 305.471 156.620,306.174 156.616,306.548 156.518 C 306.921 156.421,306.523 156.344,305.664 156.349 C 304.805 156.353,304.499 156.433,304.985 156.526 M301.869 159.273 C 303.004 159.352,304.762 159.351,305.775 159.271 C 306.788 159.191,305.859 159.126,303.711 159.127 C 301.563 159.128,300.733 159.194,301.869 159.273 M92.294 162.891 C 92.294 163.857,92.370 164.253,92.463 163.770 C 92.556 163.286,92.556 162.495,92.463 162.012 C 92.370 161.528,92.294 161.924,92.294 162.891 M88.423 168.146 C 88.561 170.499,88.868 172.608,89.104 172.833 C 89.475 173.186,89.348 168.038,88.912 165.069 C 88.550 162.603,88.220 164.680,88.423 168.146 M92.350 167.188 L 92.383 169.727 96.388 169.748 L 100.392 169.770 96.504 169.637 L 92.615 169.504 92.466 167.076 L 92.317 164.648 92.350 167.188 M314.920 170.215 C 314.996 173.577,314.999 173.588,315.135 170.915 C 315.211 169.420,315.439 167.997,315.641 167.754 C 316.014 167.305,315.764 166.797,315.169 166.797 C 314.990 166.797,314.878 168.335,314.920 170.215 M311.328 170.661 C 311.328 172.060,311.482 172.998,311.691 172.869 C 312.049 172.647,311.905 168.806,311.524 168.425 C 311.416 168.317,311.328 169.324,311.328 170.661 M316.127 170.117 C 316.130 171.191,316.206 171.584,316.296 170.991 C 316.386 170.397,316.383 169.518,316.291 169.038 C 316.198 168.557,316.124 169.043,316.127 170.117 M303.906 169.531 L 300.195 169.772 304.004 169.847 C 306.332 169.893,307.813 169.770,307.813 169.531 C 307.813 169.316,307.769 169.174,307.715 169.215 C 307.661 169.257,305.947 169.399,303.906 169.531 M92.849 172.906 C 92.196 173.559,93.321 173.828,96.703 173.828 C 99.720 173.828,100.391 173.722,100.391 173.242 C 100.391 172.636,93.429 172.326,92.849 172.906 M300.000 173.047 C 300.000 173.554,306.637 173.554,307.422 173.047 C 307.821 172.789,306.733 172.666,304.004 172.662 C 301.591 172.659,300.000 172.811,300.000 173.047 M92.678 176.172 C 92.803 176.634,93.570 176.763,96.321 176.784 L 99.805 176.811 96.497 176.669 C 94.512 176.585,93.055 176.340,92.854 176.057 C 92.616 175.723,92.565 175.756,92.678 176.172 M300.000 177.930 L 300.000 179.297 303.516 179.297 C 306.924 179.297,307.031 179.269,307.031 178.398 C 307.031 176.898,306.304 176.563,303.047 176.563 L 300.000 176.563 300.000 177.930 M93.039 178.223 C 93.157 179.052,93.367 179.108,96.777 179.214 L 100.391 179.326 100.391 178.335 L 100.391 177.344 96.653 177.344 C 92.999 177.344,92.917 177.364,93.039 178.223 M115.333 180.273 C 115.337 181.133,115.417 181.438,115.511 180.952 C 115.604 180.467,115.601 179.763,115.503 179.390 C 115.405 179.017,115.329 179.414,115.333 180.273 M300.488 183.488 C 301.294 183.572,302.612 183.572,303.418 183.488 C 304.224 183.403,303.564 183.334,301.953 183.334 C 300.342 183.334,299.683 183.403,300.488 183.488 M146.978 204.577 C 147.572 204.667,148.451 204.665,148.931 204.572 C 149.412 204.479,148.926 204.406,147.852 204.409 C 146.777 204.412,146.384 204.487,146.978 204.577 M154.204 204.573 C 154.690 204.667,155.393 204.663,155.766 204.565 C 156.140 204.467,155.742 204.391,154.883 204.395 C 154.023 204.400,153.718 204.480,154.204 204.573 M246.387 204.586 C 247.729 204.662,249.927 204.662,251.270 204.586 C 252.612 204.510,251.514 204.447,248.828 204.447 C 246.143 204.447,245.044 204.510,246.387 204.586 M237.988 209.254 C 238.364 209.352,238.979 209.352,239.355 209.254 C 239.731 209.155,239.424 209.075,238.672 209.075 C 237.920 209.075,237.612 209.155,237.988 209.254 M142.285 218.261 C 145.669 218.326,151.206 218.326,154.590 218.261 C 157.974 218.196,155.205 218.143,148.438 218.143 C 141.670 218.143,138.901 218.196,142.285 218.261 M163.775 218.249 C 164.369 218.339,165.248 218.336,165.728 218.244 C 166.208 218.151,165.723 218.078,164.648 218.080 C 163.574 218.083,163.181 218.159,163.775 218.249 M237.598 218.259 C 239.263 218.332,241.987 218.332,243.652 218.259 C 245.317 218.186,243.955 218.126,240.625 218.126 C 237.295 218.126,235.933 218.186,237.598 218.259 M258.902 218.258 C 260.253 218.335,262.363 218.334,263.590 218.257 C 264.816 218.180,263.711 218.117,261.133 218.118 C 258.555 218.119,257.551 218.182,258.902 218.258 M151.079 225.667 C 151.565 225.760,152.268 225.757,152.641 225.659 C 153.015 225.561,152.617 225.485,151.758 225.489 C 150.898 225.493,150.593 225.573,151.079 225.667 M132.176 245.313 C 132.176 247.568,132.240 248.491,132.319 247.363 C 132.398 246.235,132.398 244.390,132.319 243.262 C 132.240 242.134,132.176 243.057,132.176 245.313 M212.293 291.602 C 212.293 304.277,212.342 309.406,212.402 302.999 C 212.462 296.592,212.462 286.221,212.402 279.953 C 212.342 273.684,212.292 278.926,212.293 291.602 M264.368 289.945 C 264.858 290.234,265.124 290.637,264.960 290.841 C 264.796 291.044,264.910 290.994,265.215 290.729 C 265.863 290.165,265.765 290.030,264.453 289.681 L 263.477 289.421 264.368 289.945 M128.613 292.066 C 128.989 292.164,129.604 292.164,129.980 292.066 C 130.356 291.968,130.049 291.888,129.297 291.888 C 128.545 291.888,128.237 291.968,128.613 292.066 M128.234 294.038 C 129.261 294.118,130.843 294.117,131.750 294.035 C 132.657 293.954,131.816 293.887,129.883 293.889 C 127.949 293.890,127.207 293.957,128.234 294.038 M270.228 294.038 C 271.363 294.118,273.121 294.117,274.134 294.037 C 275.147 293.956,274.219 293.892,272.070 293.893 C 269.922 293.894,269.093 293.959,270.228 294.038 M131.641 302.584 C 133.972 302.877,136.631 302.906,136.464 302.637 C 136.364 302.476,135.018 302.370,133.473 302.402 C 131.928 302.434,131.104 302.516,131.641 302.584 M267.090 302.619 C 267.573 302.713,268.364 302.713,268.848 302.619 C 269.331 302.526,268.936 302.450,267.969 302.450 C 267.002 302.450,266.606 302.526,267.090 302.619 M132.122 309.766 C 132.122 310.518,132.202 310.825,132.301 310.449 C 132.399 310.073,132.399 309.458,132.301 309.082 C 132.202 308.706,132.122 309.014,132.122 309.766 M212.266 328.320 C 212.266 331.543,212.327 332.809,212.400 331.134 C 212.473 329.460,212.473 326.823,212.399 325.275 C 212.325 323.727,212.265 325.098,212.266 328.320 M120.313 327.378 C 115.058 328.178,110.156 329.482,110.156 330.079 C 110.156 332.917,144.621 337.619,174.331 338.834 C 178.969 339.023,179.103 338.729,174.902 337.581 C 168.027 335.703,159.999 334.672,146.875 333.981 C 126.663 332.917,126.956 332.972,126.948 330.185 C 126.941 327.662,126.597 326.555,125.833 326.599 C 125.482 326.618,122.998 326.969,120.313 327.378 M275.229 327.203 C 275.103 327.530,275.000 328.732,275.000 329.872 C 275.000 332.930,274.526 333.059,261.274 333.593 C 243.237 334.320,231.550 335.825,223.828 338.415 L 220.898 339.397 223.438 339.223 C 254.010 337.117,262.457 336.342,274.576 334.530 C 294.582 331.538,296.711 329.786,283.008 327.588 C 276.859 326.602,275.485 326.534,275.229 327.203 M193.809 333.184 C 193.976 333.687,194.512 333.778,194.561 333.311 C 194.577 333.155,194.379 332.957,194.121 332.871 C 193.863 332.785,193.723 332.926,193.809 333.184 M189.161 335.742 C 189.165 336.602,189.245 336.907,189.339 336.421 C 189.432 335.935,189.429 335.232,189.331 334.859 C 189.233 334.485,189.157 334.883,189.161 335.742 " stroke="none" fill="#8d8482" fill-rule="evenodd"></path><path id="path2" d="M141.602 149.219 C 128.324 150.891,121.115 159.945,120.454 175.781 C 119.864 189.890,125.238 199.222,136.133 203.006 L 139.258 204.092 150.781 204.097 C 163.586 204.102,165.527 203.804,169.613 201.207 C 173.590 198.679,177.220 193.851,177.895 190.191 C 177.989 189.678,178.095 189.258,178.129 189.258 C 178.162 189.258,178.252 188.906,178.328 188.477 C 178.404 188.047,178.561 187.256,178.676 186.719 C 179.355 183.548,179.469 182.017,179.447 176.367 C 179.417 168.963,178.525 163.976,176.450 159.623 C 175.175 156.949,172.070 153.125,171.172 153.125 C 170.935 153.125,170.601 152.885,170.430 152.592 C 168.812 149.833,152.180 147.886,141.602 149.219 M239.770 149.207 C 227.220 150.806,221.858 157.154,220.621 171.875 C 219.043 190.667,224.884 201.670,237.578 203.817 C 239.419 204.129,257.452 204.090,259.961 203.769 C 267.914 202.752,273.900 198.545,277.292 191.589 C 278.433 189.249,278.706 188.386,279.141 185.742 C 279.247 185.098,279.474 184.131,279.647 183.594 C 280.346 181.411,279.907 171.078,278.957 167.383 C 276.647 158.394,270.697 151.538,264.063 150.219 C 263.525 150.112,262.383 149.838,261.523 149.609 C 259.514 149.073,243.189 148.772,239.770 149.207 M164.081 152.747 C 165.654 153.868,166.805 155.606,167.075 157.269 C 167.219 158.156,167.865 159.291,168.802 160.300 C 173.255 165.101,175.169 173.475,173.278 179.883 C 166.916 201.447,136.265 200.824,131.417 179.032 C 130.718 175.889,130.872 168.652,131.660 167.676 C 131.703 167.622,131.765 167.446,131.798 167.285 C 132.040 166.106,134.757 161.431,136.331 159.485 C 140.487 154.350,145.172 152.227,152.695 152.073 C 155.574 152.014,158.035 151.857,158.164 151.723 C 158.653 151.216,162.983 151.966,164.081 152.747 M261.107 152.340 C 263.608 153.565,265.614 157.538,265.044 160.136 C 264.866 160.946,265.045 161.509,265.749 162.349 C 274.266 172.525,269.020 189.956,256.055 194.560 C 240.222 200.182,222.869 185.278,226.687 169.336 C 229.391 158.045,237.564 151.870,249.651 151.987 C 252.873 152.018,255.617 151.935,255.749 151.803 C 256.278 151.274,259.613 151.608,261.107 152.340 " stroke="none" fill="#f8c393" fill-rule="evenodd"></path><path id="path3" d="M193.848 79.957 C 194.224 80.055,194.839 80.055,195.215 79.957 C 195.591 79.859,195.283 79.778,194.531 79.778 C 193.779 79.778,193.472 79.859,193.848 79.957 M199.126 79.964 C 199.612 80.057,200.315 80.054,200.688 79.956 C 201.062 79.858,200.664 79.782,199.805 79.786 C 198.945 79.790,198.640 79.870,199.126 79.964 M206.152 79.970 C 206.851 80.057,207.993 80.057,208.691 79.970 C 209.390 79.883,208.818 79.813,207.422 79.813 C 206.025 79.813,205.454 79.883,206.152 79.970 M196.387 85.447 C 198.159 85.519,201.060 85.519,202.832 85.447 C 204.604 85.374,203.154 85.315,199.609 85.315 C 196.064 85.315,194.614 85.374,196.387 85.447 M195.039 108.203 C 195.039 109.385,195.112 109.868,195.202 109.277 C 195.291 108.687,195.291 107.720,195.202 107.129 C 195.112 106.538,195.039 107.021,195.039 108.203 M207.617 121.094 L 134.570 121.292 207.496 121.388 C 255.796 121.452,280.504 121.352,280.664 121.094 C 280.797 120.879,280.851 120.746,280.785 120.799 C 280.718 120.852,247.793 120.985,207.617 121.094 M124.726 121.385 C 126.617 121.457,129.605 121.456,131.367 121.384 C 133.129 121.312,131.582 121.253,127.930 121.254 C 124.277 121.254,122.836 121.313,124.726 121.385 M112.989 135.352 C 112.993 136.211,113.073 136.517,113.167 136.031 C 113.260 135.545,113.257 134.842,113.159 134.468 C 113.061 134.095,112.985 134.492,112.989 135.352 M144.607 136.619 C 146.905 136.688,150.772 136.689,153.201 136.620 C 155.630 136.551,153.750 136.495,149.023 136.495 C 144.297 136.494,142.310 136.550,144.607 136.619 M249.921 136.619 C 251.704 136.692,254.516 136.691,256.171 136.618 C 257.826 136.545,256.367 136.486,252.930 136.486 C 249.492 136.487,248.138 136.546,249.921 136.619 M272.363 137.379 C 272.739 137.477,273.354 137.477,273.730 137.379 C 274.106 137.280,273.799 137.200,273.047 137.200 C 272.295 137.200,271.987 137.280,272.363 137.379 M183.789 145.703 C 184.628 146.563,185.403 147.266,185.510 147.266 C 185.618 147.266,185.019 146.563,184.180 145.703 C 183.341 144.844,182.566 144.141,182.459 144.141 C 182.351 144.141,182.950 144.844,183.789 145.703 M98.344 147.542 C 98.830 147.635,99.533 147.632,99.907 147.534 C 100.280 147.436,99.883 147.360,99.023 147.364 C 98.164 147.368,97.858 147.448,98.344 147.542 M302.051 147.545 C 302.642 147.635,303.608 147.635,304.199 147.545 C 304.790 147.456,304.307 147.383,303.125 147.383 C 301.943 147.383,301.460 147.456,302.051 147.545 M312.494 162.189 C 312.390 163.414,312.447 164.273,312.621 164.099 C 312.795 163.924,312.880 162.921,312.810 161.871 L 312.683 159.961 312.494 162.189 M88.002 162.305 C 88.005 163.379,88.081 163.772,88.171 163.178 C 88.261 162.584,88.258 161.706,88.166 161.225 C 88.073 160.745,87.999 161.230,88.002 162.305 M311.082 167.969 C 311.082 170.225,311.147 171.147,311.225 170.020 C 311.304 168.892,311.304 167.046,311.225 165.918 C 311.147 164.790,311.082 165.713,311.082 167.969 M85.678 168.359 C 85.678 169.971,85.747 170.630,85.831 169.824 C 85.916 169.019,85.916 167.700,85.831 166.895 C 85.747 166.089,85.678 166.748,85.678 168.359 M312.216 169.141 C 312.216 170.107,312.292 170.503,312.385 170.020 C 312.478 169.536,312.478 168.745,312.385 168.262 C 312.292 167.778,312.216 168.174,312.216 169.141 M297.016 171.875 C 297.016 173.916,297.082 174.751,297.162 173.730 C 297.243 172.710,297.243 171.040,297.162 170.020 C 297.082 168.999,297.016 169.834,297.016 171.875 M199.707 169.801 C 200.083 169.899,200.698 169.899,201.074 169.801 C 201.450 169.702,201.143 169.622,200.391 169.622 C 199.639 169.622,199.331 169.702,199.707 169.801 M307.903 171.484 C 307.903 172.236,307.984 172.544,308.082 172.168 C 308.180 171.792,308.180 171.177,308.082 170.801 C 307.984 170.425,307.903 170.732,307.903 171.484 M269.638 174.609 C 269.638 175.576,269.714 175.972,269.807 175.488 C 269.900 175.005,269.900 174.214,269.807 173.730 C 269.714 173.247,269.638 173.643,269.638 174.609 M120.050 177.930 C 120.052 179.434,120.122 180.001,120.207 179.191 C 120.292 178.380,120.290 177.150,120.204 176.456 C 120.118 175.763,120.048 176.426,120.050 177.930 M100.489 177.539 C 100.493 178.398,100.573 178.704,100.667 178.218 C 100.760 177.732,100.757 177.029,100.659 176.656 C 100.561 176.282,100.485 176.680,100.489 177.539 M93.848 179.566 C 94.224 179.664,94.839 179.664,95.215 179.566 C 95.591 179.468,95.283 179.388,94.531 179.388 C 93.779 179.388,93.472 179.468,93.848 179.566 M95.410 183.874 C 96.001 183.963,96.968 183.963,97.559 183.874 C 98.149 183.784,97.666 183.711,96.484 183.711 C 95.303 183.711,94.819 183.784,95.410 183.874 M93.652 190.510 C 94.136 190.603,94.927 190.603,95.410 190.510 C 95.894 190.417,95.498 190.341,94.531 190.341 C 93.564 190.341,93.169 190.417,93.652 190.510 M304.590 190.510 C 305.073 190.603,305.864 190.603,306.348 190.510 C 306.831 190.417,306.436 190.341,305.469 190.341 C 304.502 190.341,304.106 190.417,304.590 190.510 M174.525 216.304 C 175.660 216.383,177.418 216.382,178.431 216.302 C 179.444 216.222,178.516 216.157,176.367 216.158 C 174.219 216.159,173.390 216.225,174.525 216.304 M184.082 217.476 C 185.317 217.554,187.339 217.554,188.574 217.476 C 189.810 217.399,188.799 217.335,186.328 217.335 C 183.857 217.335,182.847 217.399,184.082 217.476 M195.612 217.471 C 196.315 217.558,197.369 217.556,197.956 217.467 C 198.543 217.377,197.969 217.306,196.680 217.309 C 195.391 217.311,194.910 217.384,195.612 217.471 M201.480 217.477 C 202.831 217.554,204.941 217.553,206.168 217.476 C 207.395 217.398,206.289 217.336,203.711 217.337 C 201.133 217.337,200.129 217.401,201.480 217.477 M152.051 228.410 C 152.856 228.494,154.175 228.494,154.980 228.410 C 155.786 228.325,155.127 228.256,153.516 228.256 C 151.904 228.256,151.245 228.325,152.051 228.410 M245.801 228.405 C 246.392 228.494,247.358 228.494,247.949 228.405 C 248.540 228.315,248.057 228.242,246.875 228.242 C 245.693 228.242,245.210 228.315,245.801 228.405 M274.785 249.414 C 274.785 256.719,274.838 259.652,274.902 255.932 C 274.966 252.212,274.966 246.236,274.902 242.651 C 274.837 239.066,274.785 242.109,274.785 249.414 M129.826 240.820 C 129.825 242.754,129.891 243.594,129.973 242.688 C 130.055 241.781,130.056 240.199,129.975 239.172 C 129.894 238.145,129.827 238.887,129.826 240.820 M129.821 249.023 C 129.823 250.742,129.892 251.397,129.974 250.478 C 130.057 249.559,130.055 248.153,129.971 247.353 C 129.888 246.553,129.820 247.305,129.821 249.023 M209.883 257.031 C 209.883 258.213,209.956 258.696,210.045 258.105 C 210.135 257.515,210.135 256.548,210.045 255.957 C 209.956 255.366,209.883 255.850,209.883 257.031 M191.518 257.617 C 191.521 258.691,191.597 259.084,191.687 258.491 C 191.776 257.897,191.774 257.018,191.681 256.538 C 191.589 256.057,191.515 256.543,191.518 257.617 M132.187 262.695 C 132.188 265.918,132.249 267.184,132.322 265.509 C 132.395 263.835,132.395 261.198,132.321 259.650 C 132.247 258.102,132.187 259.473,132.187 262.695 M191.538 265.625 C 191.538 267.236,191.607 267.896,191.691 267.090 C 191.775 266.284,191.775 264.966,191.691 264.160 C 191.607 263.354,191.538 264.014,191.538 265.625 M189.153 264.844 C 189.153 265.596,189.234 265.903,189.332 265.527 C 189.430 265.151,189.430 264.536,189.332 264.160 C 189.234 263.784,189.153 264.092,189.153 264.844 M199.316 270.592 C 199.907 270.682,200.874 270.682,201.465 270.592 C 202.056 270.503,201.572 270.430,200.391 270.430 C 199.209 270.430,198.726 270.503,199.316 270.592 M189.247 298.047 C 189.247 312.764,189.296 318.784,189.355 311.426 C 189.415 304.067,189.415 292.026,189.355 284.668 C 189.296 277.310,189.247 283.330,189.247 298.047 M244.258 284.375 C 244.258 285.557,244.331 286.040,244.420 285.449 C 244.510 284.858,244.510 283.892,244.420 283.301 C 244.331 282.710,244.258 283.193,244.258 284.375 M246.184 284.766 C 246.184 285.518,246.265 285.825,246.363 285.449 C 246.461 285.073,246.461 284.458,246.363 284.082 C 246.265 283.706,246.184 284.014,246.184 284.766 M156.731 285.938 C 156.731 286.689,156.812 286.997,156.910 286.621 C 157.008 286.245,157.008 285.630,156.910 285.254 C 156.812 284.878,156.731 285.186,156.731 285.938 M129.857 307.154 C 129.748 307.436,129.716 309.590,129.786 311.939 L 129.912 316.211 129.995 311.647 L 130.078 307.083 131.152 306.920 L 132.227 306.758 131.140 306.699 C 130.543 306.667,129.965 306.872,129.857 307.154 M274.779 316.797 C 274.779 322.275,274.834 324.517,274.901 321.777 C 274.968 319.038,274.968 314.556,274.901 311.816 C 274.834 309.077,274.779 311.318,274.779 316.797 M129.842 323.633 C 129.842 326.641,129.904 327.819,129.978 326.252 C 130.052 324.685,130.052 322.224,129.977 320.784 C 129.902 319.343,129.841 320.625,129.842 323.633 M132.122 324.609 C 132.122 325.361,132.202 325.669,132.301 325.293 C 132.399 324.917,132.399 324.302,132.301 323.926 C 132.202 323.550,132.122 323.857,132.122 324.609 M191.558 331.055 C 191.559 333.848,191.621 334.939,191.696 333.480 C 191.772 332.021,191.771 329.736,191.695 328.402 C 191.619 327.068,191.557 328.262,191.558 331.055 M137.407 333.479 C 137.893 333.573,138.596 333.569,138.969 333.472 C 139.343 333.374,138.945 333.297,138.086 333.302 C 137.227 333.306,136.921 333.386,137.407 333.479 M262.988 333.483 C 263.579 333.572,264.546 333.572,265.137 333.483 C 265.728 333.393,265.244 333.320,264.063 333.320 C 262.881 333.320,262.397 333.393,262.988 333.483 M145.801 333.863 C 146.177 333.961,146.792 333.961,147.168 333.863 C 147.544 333.765,147.236 333.684,146.484 333.684 C 145.732 333.684,145.425 333.765,145.801 333.863 M253.223 333.863 C 253.599 333.961,254.214 333.961,254.590 333.863 C 254.966 333.765,254.658 333.684,253.906 333.684 C 253.154 333.684,252.847 333.765,253.223 333.863 M199.512 335.439 C 200.210 335.525,201.353 335.525,202.051 335.439 C 202.749 335.352,202.178 335.281,200.781 335.281 C 199.385 335.281,198.813 335.352,199.512 335.439 M200.098 340.113 C 200.474 340.211,201.089 340.211,201.465 340.113 C 201.841 340.015,201.533 339.934,200.781 339.934 C 200.029 339.934,199.722 340.015,200.098 340.113 M199.712 342.468 C 200.306 342.558,201.185 342.555,201.666 342.462 C 202.146 342.370,201.660 342.296,200.586 342.299 C 199.512 342.302,199.119 342.378,199.712 342.468 " stroke="none" fill="#6d615b" fill-rule="evenodd"></path><path id="path4" d="M195.063 102.734 C 195.063 104.775,195.129 105.610,195.209 104.590 C 195.289 103.569,195.289 101.899,195.209 100.879 C 195.129 99.858,195.063 100.693,195.063 102.734 M115.332 137.389 C 115.923 137.479,116.890 137.479,117.480 137.389 C 118.071 137.300,117.588 137.226,116.406 137.226 C 115.225 137.226,114.741 137.300,115.332 137.389 M274.707 137.379 C 275.083 137.477,275.698 137.477,276.074 137.379 C 276.450 137.280,276.143 137.200,275.391 137.200 C 274.639 137.200,274.331 137.280,274.707 137.379 M279.411 137.399 C 280.870 137.475,283.155 137.474,284.489 137.398 C 285.823 137.322,284.629 137.260,281.836 137.261 C 279.043 137.262,277.952 137.324,279.411 137.399 M94.438 154.573 C 94.924 154.667,95.627 154.663,96.001 154.565 C 96.374 154.467,95.977 154.391,95.117 154.395 C 94.258 154.400,93.952 154.480,94.438 154.573 M304.985 154.573 C 305.471 154.667,306.174 154.663,306.548 154.565 C 306.921 154.467,306.523 154.391,305.664 154.395 C 304.805 154.400,304.499 154.480,304.985 154.573 M96.289 176.953 L 92.773 177.196 96.605 177.270 C 99.078 177.318,100.351 177.205,100.195 176.953 C 100.063 176.738,99.920 176.596,99.879 176.636 C 99.838 176.677,98.223 176.819,96.289 176.953 M107.148 180.859 C 107.148 182.041,107.222 182.524,107.311 181.934 C 107.401 181.343,107.401 180.376,107.311 179.785 C 107.222 179.194,107.148 179.678,107.148 180.859 M161.035 218.238 C 161.411 218.336,162.026 218.336,162.402 218.238 C 162.778 218.140,162.471 218.059,161.719 218.059 C 160.967 218.059,160.659 218.140,161.035 218.238 M252.441 218.253 C 253.247 218.338,254.565 218.338,255.371 218.253 C 256.177 218.169,255.518 218.100,253.906 218.100 C 252.295 218.100,251.636 218.169,252.441 218.253 M153.613 225.660 C 153.989 225.758,154.604 225.758,154.980 225.660 C 155.356 225.562,155.049 225.481,154.297 225.481 C 153.545 225.481,153.237 225.562,153.613 225.660 M132.176 253.125 C 132.176 255.381,132.240 256.304,132.319 255.176 C 132.398 254.048,132.398 252.202,132.319 251.074 C 132.240 249.946,132.176 250.869,132.176 253.125 M189.194 268.750 C 189.194 270.361,189.263 271.021,189.347 270.215 C 189.431 269.409,189.431 268.091,189.347 267.285 C 189.263 266.479,189.194 267.139,189.194 268.750 M156.747 283.203 C 156.747 284.170,156.823 284.565,156.916 284.082 C 157.009 283.599,157.009 282.808,156.916 282.324 C 156.823 281.841,156.747 282.236,156.747 283.203 M132.190 317.188 C 132.190 320.732,132.249 322.183,132.322 320.410 C 132.394 318.638,132.394 315.737,132.322 313.965 C 132.249 312.192,132.190 313.643,132.190 317.188 M212.255 318.555 C 212.256 320.918,212.321 321.834,212.398 320.591 C 212.476 319.348,212.476 317.414,212.397 316.294 C 212.318 315.174,212.255 316.191,212.255 318.555 M189.214 329.492 C 189.215 332.285,189.277 333.376,189.353 331.917 C 189.428 330.458,189.427 328.173,189.351 326.839 C 189.275 325.505,189.214 326.699,189.214 329.492 " stroke="none" fill="#7a6e61" fill-rule="evenodd"></path><path id="path5" d="M186.621 79.963 C 187.104 80.056,187.896 80.056,188.379 79.963 C 188.862 79.870,188.467 79.794,187.500 79.794 C 186.533 79.794,186.138 79.870,186.621 79.963 M224.374 104.297 C 224.374 107.412,224.435 108.687,224.509 107.129 C 224.583 105.571,224.583 103.022,224.509 101.465 C 224.435 99.907,224.374 101.182,224.374 104.297 M222.812 104.883 C 222.813 108.105,222.874 109.372,222.947 107.697 C 223.020 106.022,223.020 103.385,222.946 101.838 C 222.872 100.290,222.812 101.660,222.812 104.883 M235.645 109.570 C 235.650 110.430,235.730 110.735,235.823 110.249 C 235.917 109.763,235.913 109.060,235.815 108.687 C 235.717 108.313,235.641 108.711,235.645 109.570 M117.655 138.961 C 115.316 139.123,115.382 139.023,115.069 142.871 C 114.769 146.552,115.513 146.674,119.306 143.565 C 120.740 142.390,122.436 141.119,123.074 140.742 C 123.712 140.365,124.153 139.845,124.054 139.586 C 123.942 139.295,124.159 139.171,124.624 139.261 C 125.036 139.340,125.476 139.240,125.601 139.038 C 125.821 138.682,122.167 138.647,117.655 138.961 M275.230 139.007 C 275.116 139.191,275.677 139.675,276.476 140.081 C 277.276 140.488,277.988 140.952,278.060 141.113 C 278.132 141.274,278.439 141.406,278.743 141.406 C 279.048 141.406,279.297 141.582,279.297 141.797 C 279.297 142.012,279.554 142.188,279.869 142.188 C 280.184 142.188,280.629 142.539,280.859 142.969 C 281.089 143.398,281.463 143.750,281.689 143.750 C 281.916 143.750,282.393 144.101,282.750 144.530 C 283.642 145.603,286.179 146.114,285.807 145.146 C 285.664 144.772,285.435 143.264,285.298 141.795 L 285.050 139.125 286.177 138.957 C 286.797 138.864,284.634 138.763,281.371 138.730 C 278.107 138.698,275.344 138.823,275.230 139.007 M104.422 144.531 C 104.422 145.928,104.493 146.499,104.579 145.801 C 104.666 145.103,104.666 143.960,104.579 143.262 C 104.493 142.563,104.422 143.135,104.422 144.531 M146.560 144.432 C 148.858 144.501,152.725 144.501,155.154 144.432 C 157.583 144.364,155.703 144.307,150.977 144.307 C 146.250 144.307,144.263 144.363,146.560 144.432 M183.402 144.538 C 183.537 144.756,183.839 144.817,184.072 144.673 C 184.305 144.528,184.387 144.587,184.254 144.802 C 184.121 145.017,184.527 145.686,185.156 146.289 C 185.786 146.892,186.208 147.534,186.096 147.716 C 185.983 147.898,191.834 148.044,199.098 148.041 C 207.306 148.037,212.089 147.899,211.736 147.675 C 211.333 147.421,211.723 147.279,213.063 147.193 C 214.774 147.082,215.049 146.928,215.884 145.605 L 216.808 144.141 199.983 144.141 C 188.685 144.141,183.238 144.271,183.402 144.538 M244.217 144.432 C 246.514 144.501,250.381 144.501,252.810 144.432 C 255.239 144.364,253.359 144.307,248.633 144.307 C 243.906 144.307,241.919 144.363,244.217 144.432 M231.250 146.112 C 231.250 146.385,230.975 146.463,230.566 146.308 C 230.048 146.110,229.992 146.157,230.333 146.502 C 230.638 146.809,231.002 146.834,231.458 146.579 C 231.913 146.324,231.989 146.114,231.691 145.929 C 231.448 145.780,231.250 145.862,231.250 146.112 M189.543 153.711 C 189.587 154.248,189.771 154.688,189.952 154.688 C 190.133 154.688,190.179 154.851,190.056 155.051 C 189.932 155.251,190.013 155.527,190.234 155.664 C 190.456 155.801,190.537 156.077,190.413 156.277 C 190.289 156.477,190.374 156.641,190.602 156.641 C 190.829 156.641,190.995 156.772,190.969 156.934 C 190.944 157.095,190.966 157.358,191.018 157.520 C 191.174 158.001,191.243 158.321,191.561 160.059 C 191.729 160.972,192.038 161.719,192.248 161.719 C 192.459 161.719,192.519 162.070,192.383 162.500 C 192.246 162.930,192.292 163.281,192.484 163.281 C 192.676 163.281,192.759 163.788,192.668 164.407 C 192.577 165.026,192.684 165.644,192.905 165.781 C 193.130 165.920,193.211 166.630,193.087 167.390 C 192.944 168.271,193.022 168.750,193.308 168.750 C 193.551 168.750,193.750 169.121,193.750 169.574 C 193.750 170.282,193.900 170.357,194.824 170.105 C 195.415 169.944,196.426 169.838,197.070 169.869 C 197.998 169.914,198.120 169.839,197.656 169.509 C 197.231 169.207,197.818 169.159,199.805 169.335 C 201.309 169.469,203.175 169.630,203.952 169.695 C 204.729 169.759,205.539 169.919,205.753 170.051 C 206.428 170.468,206.619 169.874,206.378 168.113 C 206.223 166.982,206.290 166.406,206.578 166.406 C 206.852 166.406,206.925 165.974,206.777 165.234 C 206.626 164.479,206.702 164.063,206.990 164.063 C 207.271 164.063,207.346 163.701,207.192 163.086 C 207.051 162.525,207.115 162.109,207.343 162.109 C 207.561 162.109,207.647 161.758,207.535 161.328 C 207.423 160.898,207.522 160.547,207.755 160.547 C 207.988 160.547,208.077 160.283,207.954 159.961 C 207.830 159.638,207.942 159.375,208.203 159.375 C 208.464 159.375,208.578 159.117,208.457 158.802 C 208.336 158.486,208.408 158.122,208.617 157.993 C 208.826 157.864,208.903 157.607,208.789 157.422 C 208.675 157.237,208.763 156.973,208.984 156.836 C 209.206 156.699,209.287 156.423,209.163 156.223 C 209.039 156.023,209.087 155.859,209.269 155.859 C 209.451 155.859,209.628 155.480,209.663 155.016 C 209.698 154.552,209.867 154.068,210.039 153.941 C 211.489 152.872,210.346 152.734,200.004 152.734 L 189.462 152.734 189.543 153.711 M127.514 155.566 L 126.367 156.836 127.637 155.689 C 128.820 154.619,129.086 154.297,128.784 154.297 C 128.717 154.297,128.146 154.868,127.514 155.566 M104.926 155.789 C 104.818 155.965,105.203 156.044,105.782 155.964 C 106.362 155.884,107.493 156.160,108.296 156.576 C 109.100 156.993,109.650 157.159,109.518 156.947 C 108.916 155.972,105.366 155.077,104.926 155.789 M291.519 156.462 C 290.017 157.363,289.906 157.535,290.252 158.445 C 290.460 158.992,290.514 159.629,290.372 159.859 C 290.214 160.114,290.299 160.162,290.591 159.982 C 290.854 159.819,290.965 159.416,290.838 159.085 C 290.536 158.297,290.970 156.957,291.434 157.244 C 291.634 157.367,291.797 157.260,291.797 157.006 C 291.797 156.669,291.960 156.680,292.403 157.048 C 292.914 157.472,293.043 157.419,293.229 156.705 C 293.351 156.240,293.714 155.859,294.036 155.859 C 294.430 155.859,294.555 156.116,294.418 156.641 C 294.305 157.071,294.358 157.334,294.534 157.225 C 294.711 157.116,294.926 157.238,295.012 157.497 C 295.110 157.789,295.269 157.708,295.432 157.284 C 295.589 156.875,295.539 156.696,295.308 156.839 C 295.096 156.970,294.922 156.715,294.922 156.273 C 294.922 155.154,293.577 155.229,291.519 156.462 M92.832 156.543 C 92.732 156.704,93.908 156.788,95.446 156.729 C 100.205 156.547,100.756 156.378,96.800 156.313 C 94.718 156.278,92.933 156.382,92.832 156.543 M300.684 156.533 C 301.382 156.619,302.524 156.619,303.223 156.533 C 303.921 156.446,303.350 156.375,301.953 156.375 C 300.557 156.375,299.985 156.446,300.684 156.533 M93.555 158.984 C 92.766 159.185,93.660 159.296,96.289 159.323 C 98.438 159.345,100.459 159.193,100.781 158.984 C 101.490 158.526,95.355 158.526,93.555 158.984 M290.904 160.664 C 290.761 161.038,290.835 161.328,291.073 161.328 C 291.315 161.328,291.403 161.689,291.278 162.166 C 291.125 162.754,291.182 162.880,291.472 162.590 C 291.744 162.318,291.761 161.807,291.522 161.089 C 291.228 160.208,291.110 160.127,290.904 160.664 M108.203 161.877 C 108.203 162.465,107.933 163.216,107.604 163.546 C 107.274 163.875,107.101 164.450,107.220 164.822 C 107.338 165.194,107.162 166.150,106.830 166.946 C 106.497 167.742,106.324 168.554,106.445 168.749 C 106.756 169.252,106.241 171.094,105.789 171.094 C 105.583 171.094,105.440 170.083,105.473 168.848 C 105.555 165.776,105.525 165.544,105.084 165.817 C 104.847 165.963,104.787 165.615,104.928 164.911 C 105.072 164.193,104.974 163.654,104.666 163.464 C 104.356 163.272,104.274 163.319,104.444 163.594 C 104.591 163.832,104.585 164.518,104.431 165.119 C 104.161 166.167,104.141 166.175,103.930 165.321 C 103.810 164.831,103.697 167.504,103.680 171.260 C 103.661 175.379,103.792 178.000,104.011 177.865 C 104.225 177.733,104.318 178.548,104.238 179.838 C 104.106 181.967,105.039 183.203,106.780 183.203 C 106.899 183.203,106.996 181.841,106.996 180.176 C 106.996 178.511,106.999 176.050,107.003 174.707 C 107.007 173.364,107.169 172.266,107.364 172.266 C 107.558 172.266,107.624 171.448,107.512 170.449 C 107.355 169.055,107.421 168.703,107.797 168.936 C 108.161 169.161,108.218 169.000,108.019 168.311 C 107.260 165.687,107.265 165.790,107.932 166.343 C 108.488 166.805,108.533 166.700,108.347 165.364 C 108.224 164.483,108.276 164.059,108.474 164.334 C 108.679 164.620,108.796 164.130,108.776 163.075 C 108.741 161.219,108.203 160.095,108.203 161.877 M95.996 162.009 C 92.271 162.173,92.033 162.657,95.608 162.802 C 97.057 162.860,98.682 162.996,99.219 163.103 C 99.916 163.243,100.336 163.073,100.687 162.509 C 101.138 161.784,101.090 161.725,100.101 161.797 C 99.508 161.841,97.661 161.936,95.996 162.009 M301.465 162.397 C 302.593 162.476,304.438 162.476,305.566 162.397 C 306.694 162.318,305.771 162.254,303.516 162.254 C 301.260 162.254,300.337 162.318,301.465 162.397 M88.998 164.551 C 88.916 164.819,88.958 165.918,89.090 166.992 L 89.330 168.945 89.392 166.504 C 89.451 164.166,89.316 163.502,88.998 164.551 M296.484 165.039 C 296.484 165.361,296.265 165.581,295.996 165.527 C 295.651 165.458,295.528 165.996,295.578 167.361 C 295.624 168.655,295.530 169.106,295.291 168.728 C 295.094 168.418,294.910 167.549,294.882 166.797 C 294.836 165.581,294.795 165.641,294.510 167.341 C 294.334 168.391,294.016 169.710,293.804 170.270 C 293.169 171.949,292.858 174.525,293.374 173.828 C 293.698 173.391,293.763 174.501,293.627 178.183 L 293.445 183.124 294.627 182.785 C 296.014 182.387,296.200 182.233,296.385 181.336 C 296.543 180.568,296.731 164.453,296.582 164.453 C 296.528 164.453,296.484 164.717,296.484 165.039 M311.356 166.309 C 311.402 169.422,312.050 170.120,312.082 167.090 C 312.098 165.574,311.943 164.453,311.719 164.453 C 311.504 164.453,311.340 165.288,311.356 166.309 M304.199 165.135 L 300.391 165.263 300.388 166.323 C 300.386 166.906,300.273 168.569,300.136 170.020 L 299.887 172.656 303.850 172.656 L 307.813 172.656 307.813 171.289 L 307.813 169.922 304.004 169.841 L 300.195 169.760 303.809 169.631 C 305.924 169.555,307.422 169.336,307.422 169.103 C 307.422 168.883,307.568 168.794,307.746 168.904 C 307.925 169.015,308.110 168.146,308.157 166.974 C 308.204 165.803,308.190 164.881,308.126 164.926 C 308.061 164.970,306.294 165.065,304.199 165.135 M92.907 167.383 L 92.773 169.532 96.545 169.532 L 100.316 169.531 100.114 168.019 C 99.992 167.116,100.086 166.399,100.346 166.239 C 101.489 165.532,100.469 165.234,96.911 165.234 L 93.041 165.234 92.907 167.383 M105.078 169.815 C 105.078 171.664,104.954 173.053,104.802 172.901 C 104.351 172.450,104.239 165.934,104.687 166.211 C 104.902 166.344,105.078 167.965,105.078 169.815 M318.504 170.703 C 318.504 172.959,318.568 173.882,318.647 172.754 C 318.726 171.626,318.726 169.780,318.647 168.652 C 318.568 167.524,318.504 168.447,318.504 170.703 M315.527 167.803 C 315.366 167.966,315.234 169.335,315.234 170.846 C 315.234 172.764,315.358 173.470,315.644 173.184 C 315.875 172.953,316.003 171.622,315.937 170.141 C 315.873 168.693,315.688 167.641,315.527 167.803 M293.022 168.816 C 292.993 169.174,292.855 169.789,292.716 170.183 C 292.521 170.735,292.573 170.797,292.944 170.455 C 293.209 170.211,293.347 169.596,293.250 169.088 C 293.154 168.580,293.051 168.457,293.022 168.816 M92.757 171.388 L 92.740 172.852 96.566 172.728 L 100.391 172.604 100.391 171.263 L 100.391 169.922 96.582 169.923 L 92.773 169.924 92.757 171.388 M294.410 171.777 C 294.312 172.153,294.231 171.846,294.231 171.094 C 294.231 170.342,294.312 170.034,294.410 170.410 C 294.508 170.786,294.508 171.401,294.410 171.777 M226.263 173.438 C 226.263 174.189,226.343 174.497,226.441 174.121 C 226.539 173.745,226.539 173.130,226.441 172.754 C 226.343 172.378,226.263 172.686,226.263 173.438 M173.927 174.414 C 173.931 175.273,174.011 175.579,174.104 175.093 C 174.198 174.607,174.194 173.904,174.097 173.531 C 173.999 173.157,173.922 173.555,173.927 174.414 M92.631 174.434 C 92.549 176.273,93.137 176.563,96.953 176.563 L 100.391 176.563 100.391 175.145 L 100.391 173.728 97.188 173.913 C 95.268 174.024,93.925 174.279,93.835 174.549 C 93.586 175.297,93.034 175.057,92.854 174.121 C 92.723 173.442,92.672 173.513,92.631 174.434 M300.000 175.000 L 300.000 176.563 303.711 176.563 C 307.375 176.563,307.422 176.551,307.422 175.618 C 307.422 175.098,307.529 174.395,307.659 174.055 C 307.866 173.517,307.388 173.438,303.948 173.438 L 300.000 173.438 300.000 175.000 M282.165 177.930 C 282.167 179.648,282.235 180.303,282.318 179.384 C 282.400 178.465,282.399 177.059,282.315 176.259 C 282.231 175.459,282.164 176.211,282.165 177.930 M280.169 177.734 C 280.169 178.486,280.249 178.794,280.347 178.418 C 280.446 178.042,280.446 177.427,280.347 177.051 C 280.249 176.675,280.169 176.982,280.169 177.734 M284.902 180.078 C 284.902 181.904,284.969 182.651,285.052 181.738 C 285.134 180.825,285.134 179.331,285.052 178.418 C 284.969 177.505,284.902 178.252,284.902 180.078 M184.075 179.688 C 184.075 180.439,184.155 180.747,184.254 180.371 C 184.352 179.995,184.352 179.380,184.254 179.004 C 184.155 178.628,184.075 178.936,184.075 179.688 M193.450 180.469 C 193.450 181.221,193.530 181.528,193.629 181.152 C 193.727 180.776,193.727 180.161,193.629 179.785 C 193.530 179.409,193.450 179.717,193.450 180.469 M300.000 182.617 C 299.578 183.126,299.791 183.204,301.612 183.207 C 302.767 183.210,304.370 183.321,305.176 183.454 C 306.325 183.644,306.641 183.570,306.641 183.110 C 306.641 182.017,300.855 181.587,300.000 182.617 M93.750 183.008 C 93.750 183.486,94.406 183.594,97.313 183.594 C 100.437 183.594,100.817 183.521,100.391 183.008 C 100.034 182.578,99.086 182.422,96.827 182.422 C 94.352 182.422,93.750 182.537,93.750 183.008 M283.399 189.061 C 283.267 189.275,283.099 189.759,283.027 190.137 C 282.629 192.200,281.956 194.141,281.638 194.141 C 281.438 194.141,281.390 194.448,281.531 194.824 C 281.754 195.420,281.703 195.440,281.136 194.979 C 280.688 194.614,280.591 194.249,280.826 193.807 C 281.452 192.626,282.392 189.035,282.014 189.269 C 281.809 189.395,281.641 189.712,281.641 189.972 C 281.641 193.089,277.024 200.001,273.043 202.843 L 272.070 203.538 273.037 203.076 C 273.568 202.821,274.913 201.753,276.025 200.701 C 277.137 199.649,278.123 198.929,278.217 199.101 C 278.311 199.273,278.324 199.169,278.247 198.871 C 278.140 198.456,278.232 198.431,278.633 198.764 C 279.023 199.087,279.285 199.076,279.647 198.721 C 279.915 198.458,280.101 198.418,280.060 198.633 C 279.874 199.609,280.129 199.710,280.705 198.889 C 281.057 198.386,281.574 198.087,281.886 198.207 C 282.343 198.383,282.359 198.268,281.976 197.550 C 281.542 196.734,281.558 196.716,282.238 197.266 C 282.636 197.588,282.833 197.635,282.674 197.371 C 282.362 196.851,283.168 193.685,283.554 193.916 C 283.683 193.993,283.835 192.845,283.892 191.364 C 283.992 188.739,283.891 188.266,283.399 189.061 M280.734 195.694 C 280.797 196.107,280.702 196.536,280.522 196.647 C 280.343 196.757,280.181 196.309,280.162 195.650 C 280.126 194.384,280.539 194.416,280.734 195.694 M120.492 195.978 C 120.564 196.579,120.783 197.038,120.978 196.998 C 121.173 196.958,121.928 197.661,122.655 198.560 C 123.383 199.460,124.603 200.711,125.368 201.341 C 126.175 202.007,125.831 201.516,124.548 200.170 C 123.332 198.895,121.893 197.184,121.350 196.369 C 120.395 194.936,120.366 194.922,120.492 195.978 M278.936 199.769 C 278.652 200.111,278.573 200.396,278.761 200.404 C 278.948 200.411,278.750 200.721,278.320 201.093 C 276.976 202.255,276.123 203.528,277.350 202.539 C 277.884 202.109,278.452 201.582,278.613 201.367 C 278.799 201.120,279.033 201.174,279.253 201.515 C 279.622 202.087,280.628 201.745,280.272 201.169 C 280.156 200.982,280.352 200.667,280.706 200.469 C 281.145 200.223,281.210 200.021,280.910 199.836 C 280.667 199.686,280.469 199.783,280.469 200.052 C 280.469 200.336,280.256 200.249,279.960 199.844 C 279.497 199.211,279.404 199.205,278.936 199.769 M121.615 202.537 C 121.615 202.859,121.981 203.430,122.428 203.807 C 123.225 204.477,123.228 204.475,122.586 203.711 C 122.226 203.281,121.933 202.783,121.935 202.604 C 121.938 202.425,121.867 202.205,121.777 202.116 C 121.688 202.026,121.615 202.216,121.615 202.537 M150.488 204.577 C 151.079 204.666,152.046 204.666,152.637 204.577 C 153.228 204.487,152.744 204.414,151.563 204.414 C 150.381 204.414,149.897 204.487,150.488 204.577 M143.848 209.277 C 147.231 209.342,152.769 209.342,156.152 209.277 C 159.536 209.212,156.768 209.158,150.000 209.158 C 143.232 209.158,140.464 209.212,143.848 209.277 M245.630 209.277 C 248.919 209.342,254.193 209.342,257.348 209.276 C 260.504 209.211,257.813 209.157,251.367 209.157 C 244.922 209.158,242.340 209.211,245.630 209.277 M232.910 218.238 C 233.286 218.336,233.901 218.336,234.277 218.238 C 234.653 218.140,234.346 218.059,233.594 218.059 C 232.842 218.059,232.534 218.140,232.910 218.238 M271.484 254.248 C 271.484 257.162,270.430 258.909,270.232 256.325 C 270.187 255.746,270.055 257.734,269.939 260.742 C 269.822 263.750,269.850 266.370,270.001 266.564 C 270.152 266.758,270.083 267.285,269.847 267.736 C 269.423 268.544,269.428 268.545,270.246 267.819 C 270.702 267.414,270.981 266.931,270.866 266.745 C 270.751 266.559,270.819 266.406,271.016 266.406 C 271.214 266.406,271.327 265.790,271.267 265.036 C 271.207 264.277,271.318 263.764,271.517 263.887 C 271.728 264.017,271.875 261.850,271.875 258.617 C 271.875 255.596,271.787 253.125,271.680 253.125 C 271.572 253.125,271.484 253.630,271.484 254.248 M212.273 261.855 C 212.162 262.145,212.126 263.595,212.193 265.078 L 212.314 267.773 212.505 264.550 C 212.695 261.331,212.655 260.861,212.273 261.855 M193.750 264.617 C 193.750 264.957,193.970 265.261,194.238 265.294 C 194.507 265.327,194.902 265.375,195.117 265.402 C 195.332 265.429,195.729 265.589,196.000 265.758 C 196.646 266.163,202.112 266.226,204.102 265.852 C 204.961 265.690,205.972 265.535,206.348 265.508 C 206.724 265.480,207.031 265.309,207.031 265.128 C 207.031 264.946,207.207 264.906,207.422 265.039 C 207.637 265.172,207.813 265.006,207.813 264.671 C 207.813 263.918,207.018 263.905,204.281 264.617 C 202.231 265.150,198.274 264.991,194.824 264.236 C 194.007 264.057,193.750 264.148,193.750 264.617 M130.117 265.109 C 130.096 265.577,130.353 266.235,130.689 266.571 C 131.025 266.907,131.203 267.339,131.084 267.531 C 130.965 267.723,131.160 268.120,131.517 268.413 C 132.099 268.890,132.140 268.843,131.909 267.969 C 131.767 267.432,131.649 266.772,131.646 266.504 C 131.643 266.235,131.436 266.060,131.187 266.113 C 130.937 266.167,130.603 265.771,130.445 265.234 C 130.180 264.339,130.153 264.328,130.117 265.109 M193.629 268.719 C 193.746 269.166,193.952 269.554,194.089 269.581 C 197.007 270.169,203.981 270.346,204.582 269.847 C 204.849 269.625,205.290 269.528,205.561 269.632 C 206.340 269.928,207.813 269.227,207.813 268.560 C 207.813 267.945,207.221 267.973,204.688 268.707 C 203.600 269.022,195.098 268.596,194.071 268.176 C 193.552 267.963,193.460 268.075,193.629 268.719 M263.281 274.977 C 263.281 275.204,263.530 275.391,263.835 275.391 C 264.139 275.391,264.448 275.569,264.520 275.788 C 264.752 276.483,270.393 278.201,270.869 277.722 C 271.170 277.417,271.096 277.371,270.605 277.558 C 270.217 277.706,269.922 277.637,269.922 277.398 C 269.922 277.166,269.630 277.090,269.272 277.227 C 268.838 277.394,268.715 277.326,268.902 277.024 C 269.090 276.719,268.963 276.655,268.511 276.829 C 268.095 276.988,267.936 276.932,268.092 276.680 C 268.240 276.440,267.428 275.991,266.105 275.583 C 264.874 275.203,263.735 274.818,263.574 274.728 C 263.413 274.637,263.281 274.749,263.281 274.977 M136.328 275.268 C 135.791 275.356,135.088 275.537,134.766 275.669 C 134.443 275.801,134.092 275.933,133.984 275.962 C 132.770 276.291,132.031 276.685,132.031 277.003 C 132.031 277.216,131.899 277.314,131.738 277.221 C 131.577 277.129,131.107 277.382,130.693 277.784 C 129.793 278.660,129.988 278.689,131.926 277.968 C 134.067 277.172,134.961 276.889,134.961 277.008 C 134.961 277.065,135.532 276.775,136.230 276.363 C 136.929 275.950,137.500 275.475,137.500 275.306 C 137.500 275.138,137.456 275.024,137.402 275.053 C 137.349 275.082,136.865 275.179,136.328 275.268 M261.719 282.190 C 261.719 282.483,263.261 284.035,263.545 284.027 C 264.371 284.005,265.600 284.491,265.426 284.771 C 265.320 284.943,265.613 284.984,266.076 284.863 C 266.575 284.733,266.823 284.798,266.683 285.024 C 266.542 285.252,266.911 285.338,267.599 285.237 C 269.195 285.002,269.080 284.899,266.381 284.141 C 264.688 283.666,264.158 283.371,264.525 283.108 C 264.915 282.828,264.886 282.787,264.404 282.940 C 264.055 283.051,263.308 282.902,262.744 282.609 C 262.180 282.317,261.719 282.128,261.719 282.190 M136.178 283.484 C 136.023 283.638,134.983 284.061,133.866 284.422 L 131.836 285.079 133.846 285.020 C 134.951 284.988,135.787 284.848,135.704 284.709 C 135.494 284.362,136.707 283.931,137.140 284.199 C 137.333 284.318,137.386 284.143,137.258 283.809 C 137.007 283.154,136.623 283.039,136.178 283.484 M118.359 286.259 C 117.082 286.871,116.288 288.672,117.296 288.672 C 117.497 288.672,117.557 288.945,117.429 289.278 C 117.287 289.648,117.358 289.785,117.610 289.629 C 118.295 289.205,118.693 287.737,118.267 287.207 C 118.041 286.927,118.028 286.719,118.237 286.719 C 118.437 286.719,118.942 286.461,119.359 286.145 C 120.329 285.412,120.067 285.442,118.359 286.259 M282.154 286.190 C 282.454 286.491,280.859 289.453,280.397 289.453 C 280.222 289.453,280.078 289.639,280.078 289.867 C 280.078 290.094,280.298 290.169,280.566 290.033 C 281.137 289.744,280.082 290.608,279.038 291.286 C 278.373 291.717,278.370 291.753,279.004 291.774 C 279.380 291.787,279.688 291.601,279.688 291.361 C 279.688 291.117,280.032 291.015,280.469 291.129 C 281.034 291.277,281.250 291.141,281.250 290.636 C 281.250 290.253,281.518 289.717,281.845 289.445 C 282.173 289.174,282.350 288.861,282.239 288.750 C 281.924 288.434,282.859 287.483,283.248 287.723 C 283.638 287.964,283.136 289.074,282.226 289.984 C 281.860 290.350,281.784 290.668,282.028 290.818 C 282.245 290.952,282.422 290.876,282.422 290.648 C 282.422 290.421,282.618 290.278,282.858 290.332 C 283.098 290.386,283.350 290.096,283.418 289.688 C 283.486 289.279,283.736 288.825,283.974 288.679 C 284.560 288.316,283.860 286.514,283.006 286.186 C 282.175 285.867,281.833 285.869,282.154 286.190 M210.327 296.875 C 210.327 302.568,210.381 304.897,210.448 302.051 C 210.515 299.204,210.515 294.546,210.448 291.699 C 210.381 288.853,210.327 291.182,210.327 296.875 M119.299 288.732 C 119.140 288.988,119.190 289.078,119.414 288.940 C 119.630 288.806,120.000 289.119,120.235 289.635 C 120.555 290.337,120.545 290.621,120.195 290.764 C 119.937 290.868,120.116 290.968,120.592 290.985 L 121.458 291.016 120.651 289.648 C 119.755 288.130,119.696 288.090,119.299 288.732 M137.673 289.226 C 137.256 289.531,137.047 289.911,137.208 290.072 C 137.368 290.233,137.500 290.160,137.500 289.909 C 137.500 289.658,137.764 289.453,138.086 289.453 C 138.408 289.453,138.672 289.277,138.672 289.063 C 138.672 288.551,138.574 288.567,137.673 289.226 M270.178 291.895 C 270.277 292.056,270.700 292.188,271.117 292.188 C 271.534 292.188,271.875 292.056,271.875 291.895 C 271.875 291.733,271.452 291.602,270.936 291.602 C 270.419 291.602,270.078 291.733,270.178 291.895 M125.494 292.077 C 126.087 292.167,126.966 292.165,127.447 292.072 C 127.927 291.979,127.441 291.906,126.367 291.909 C 125.293 291.912,124.900 291.987,125.494 292.077 M273.926 292.066 C 274.302 292.164,274.917 292.164,275.293 292.066 C 275.669 291.968,275.361 291.888,274.609 291.888 C 273.857 291.888,273.550 291.968,273.926 292.066 M118.358 293.873 C 118.359 294.049,118.571 294.576,118.829 295.045 C 119.087 295.514,119.331 296.091,119.371 296.325 C 119.837 299.051,124.661 303.383,127.635 303.746 C 128.118 303.805,128.847 303.959,129.256 304.089 C 130.842 304.592,137.888 302.870,137.891 301.978 C 137.892 301.857,136.793 301.837,135.450 301.934 L 133.008 302.110 134.766 302.364 C 136.329 302.589,136.207 302.624,133.668 302.676 C 131.784 302.714,130.898 302.597,131.064 302.329 C 131.219 302.078,130.822 301.943,130.012 301.974 C 127.277 302.079,124.896 300.308,123.677 297.263 C 122.673 294.753,122.814 294.210,124.512 294.049 C 125.317 293.973,124.262 293.830,122.167 293.733 C 120.072 293.635,118.358 293.698,118.358 293.873 M278.516 293.734 C 276.540 293.891,275.991 294.027,276.832 294.152 L 278.077 294.336 277.396 296.339 C 276.199 299.858,274.183 301.681,270.898 302.215 C 267.701 302.734,266.327 302.789,266.575 302.387 C 266.753 302.099,266.366 301.953,265.430 301.953 C 264.522 301.953,264.109 301.803,264.276 301.534 C 264.419 301.302,264.178 301.337,263.738 301.612 C 262.796 302.200,263.050 302.886,264.107 302.610 C 264.513 302.503,264.752 302.566,264.639 302.750 C 263.897 303.950,273.479 304.368,275.501 303.223 C 276.882 302.441,280.078 299.356,280.078 298.805 C 280.078 298.603,280.264 298.438,280.492 298.438 C 280.719 298.438,280.797 298.262,280.664 298.047 C 280.531 297.832,280.619 297.656,280.859 297.656 C 281.100 297.656,281.187 297.480,281.055 297.266 C 280.922 297.051,281.010 296.875,281.250 296.875 C 281.490 296.875,281.578 296.699,281.445 296.484 C 281.313 296.270,281.400 296.094,281.641 296.094 C 281.881 296.094,281.976 295.930,281.853 295.730 C 281.729 295.530,281.807 295.256,282.025 295.121 C 282.593 294.770,282.516 293.346,281.934 293.430 C 281.665 293.468,280.127 293.605,278.516 293.734 M262.891 295.699 C 262.891 295.965,264.031 296.414,264.711 296.417 C 264.844 296.417,265.064 296.599,265.201 296.821 C 265.354 297.069,265.668 297.090,266.015 296.876 C 266.325 296.684,266.491 296.439,266.384 296.332 C 266.014 295.962,262.891 295.396,262.891 295.699 M132.801 296.513 C 130.480 297.109,130.353 297.194,131.250 297.555 C 131.909 297.820,132.309 297.819,132.480 297.551 C 132.619 297.332,133.102 297.250,133.554 297.368 C 134.006 297.487,134.295 297.451,134.195 297.290 C 133.952 296.897,136.734 296.063,137.271 296.368 C 137.511 296.505,137.554 296.455,137.370 296.254 C 136.882 295.721,135.606 295.793,132.801 296.513 M130.537 309.082 C 130.602 311.043,130.612 311.060,130.755 309.473 C 130.837 308.560,131.070 307.813,131.272 307.813 C 131.475 307.813,131.641 307.637,131.641 307.422 C 131.641 307.207,131.377 307.031,131.055 307.031 C 130.600 307.031,130.484 307.489,130.537 309.082 M269.685 307.649 C 269.815 307.989,269.936 309.967,269.953 312.044 C 269.991 316.726,270.266 316.309,270.405 311.360 C 270.510 307.588,271.484 305.415,271.484 308.952 C 271.484 309.829,271.335 310.547,271.153 310.547 C 270.970 310.547,270.880 311.733,270.951 313.184 C 271.467 323.613,271.373 328.108,270.637 328.341 C 270.237 328.468,270.011 328.735,270.135 328.934 C 270.258 329.134,270.172 329.297,269.945 329.297 C 269.717 329.297,269.531 329.033,269.531 328.711 C 269.531 328.301,269.150 328.139,268.262 328.171 L 266.992 328.217 268.164 328.516 C 269.309 328.807,269.300 328.816,267.773 328.899 C 266.914 328.946,265.734 329.027,265.151 329.079 C 264.569 329.132,264.184 329.026,264.296 328.845 C 264.408 328.664,263.742 328.536,262.816 328.562 C 261.246 328.605,261.212 328.628,262.305 328.906 C 263.449 329.197,262.042 329.483,259.863 329.402 C 259.595 329.392,259.375 329.511,259.375 329.666 C 259.375 329.821,259.111 329.948,258.789 329.948 C 258.467 329.948,258.203 329.791,258.203 329.599 C 258.203 329.408,257.987 329.384,257.724 329.547 C 257.460 329.710,256.493 329.867,255.574 329.897 C 254.655 329.926,253.823 330.031,253.724 330.131 C 253.423 330.431,256.269 330.645,259.375 330.555 C 260.986 330.509,263.799 330.442,265.625 330.406 C 267.451 330.370,268.636 330.269,268.257 330.180 C 266.872 329.856,267.990 329.428,269.905 329.549 L 271.875 329.674 271.875 318.352 L 271.875 307.031 270.661 307.031 C 269.715 307.031,269.500 307.167,269.685 307.649 M270.039 321.094 C 270.039 322.275,270.112 322.759,270.202 322.168 C 270.291 321.577,270.291 320.610,270.202 320.020 C 270.112 319.429,270.039 319.912,270.039 321.094 M189.875 331.886 C 189.852 335.637,189.980 337.126,190.349 337.433 C 190.759 337.773,190.873 336.794,190.946 332.305 C 191.002 328.888,190.901 326.962,190.683 327.290 C 190.384 327.740,190.296 327.740,190.117 327.290 C 190.001 326.997,189.892 329.065,189.875 331.886 M193.937 328.919 C 192.846 330.686,204.774 331.519,207.453 329.864 C 208.415 329.269,207.782 328.542,206.543 328.818 C 204.905 329.184,197.057 329.186,195.425 328.821 C 194.713 328.662,194.070 328.705,193.937 328.919 M210.791 328.827 C 210.657 329.045,210.508 331.514,210.460 334.315 C 210.377 339.236,210.343 339.420,209.459 339.823 C 208.956 340.053,208.642 340.082,208.762 339.888 C 208.882 339.694,208.726 339.438,208.416 339.319 C 208.046 339.176,207.925 339.291,208.063 339.652 C 208.456 340.677,206.247 340.881,204.131 340.016 C 203.566 339.784,203.433 339.846,203.594 340.264 C 203.832 340.881,198.436 340.859,198.048 340.241 C 197.940 340.070,196.885 339.826,195.703 339.699 C 194.521 339.572,193.027 339.364,192.383 339.237 C 191.738 339.109,190.771 338.970,190.234 338.928 C 189.447 338.867,189.276 338.665,189.350 337.883 C 189.429 337.063,189.369 337.004,188.960 337.500 C 188.338 338.254,187.249 338.433,186.883 337.841 C 186.711 337.562,186.766 337.483,187.022 337.641 C 187.255 337.785,187.573 337.698,187.729 337.446 C 187.905 337.160,187.842 337.093,187.560 337.267 C 187.312 337.421,187.109 337.338,187.109 337.085 C 187.109 336.744,186.954 336.752,186.514 337.117 C 186.017 337.530,185.960 337.505,186.166 336.969 C 186.389 336.387,185.985 336.136,185.059 336.282 C 184.897 336.307,184.766 336.171,184.766 335.980 C 184.766 335.640,182.908 334.965,182.324 335.092 C 182.163 335.127,182.031 334.986,182.031 334.778 C 182.031 334.570,181.768 334.501,181.445 334.624 C 181.123 334.748,180.859 334.648,180.859 334.403 C 180.859 334.101,180.639 334.074,180.176 334.318 C 179.509 334.670,177.508 334.442,174.577 333.679 C 173.553 333.413,173.177 333.439,173.177 333.778 C 173.177 334.057,173.579 334.178,174.186 334.082 C 174.999 333.954,175.081 334.008,174.609 334.356 C 174.153 334.693,174.275 334.731,175.156 334.525 C 175.907 334.350,176.203 334.400,176.034 334.672 C 175.876 334.929,176.074 335.006,176.562 334.879 C 177.017 334.760,177.344 334.867,177.344 335.134 C 177.344 335.386,177.511 335.489,177.716 335.363 C 178.227 335.047,180.119 335.555,179.880 335.943 C 179.773 336.115,180.038 336.163,180.468 336.051 C 180.923 335.932,181.250 336.039,181.250 336.306 C 181.250 336.558,181.426 336.656,181.641 336.523 C 181.855 336.391,182.031 336.463,182.031 336.683 C 182.031 336.904,182.295 336.984,182.617 336.860 C 182.939 336.736,183.203 336.824,183.203 337.055 C 183.203 337.286,183.467 337.374,183.789 337.251 C 184.111 337.127,184.375 337.231,184.375 337.481 C 184.375 337.732,184.536 337.837,184.732 337.716 C 184.929 337.594,185.148 337.667,185.221 337.877 C 185.293 338.087,185.703 338.316,186.133 338.387 C 186.563 338.457,187.266 338.702,187.695 338.931 C 188.125 339.160,188.721 339.261,189.019 339.154 C 189.318 339.048,189.454 339.135,189.323 339.348 C 189.185 339.571,189.491 339.689,190.050 339.628 C 190.687 339.558,191.016 339.717,191.016 340.097 C 191.016 340.413,191.191 340.562,191.406 340.430 C 191.621 340.297,191.797 340.369,191.797 340.590 C 191.797 340.810,192.061 340.890,192.383 340.766 C 192.705 340.643,192.969 340.746,192.969 340.997 C 192.969 341.247,193.152 341.339,193.376 341.200 C 193.601 341.062,193.996 341.115,194.255 341.319 C 194.850 341.787,195.368 341.830,200.391 341.821 C 205.430 341.812,207.292 341.610,208.038 340.991 C 208.354 340.728,208.719 340.620,208.850 340.751 C 208.980 340.881,209.459 340.781,209.915 340.528 C 210.370 340.275,210.874 340.106,211.035 340.151 C 211.196 340.197,211.328 340.029,211.328 339.779 C 211.328 339.528,211.444 339.439,211.585 339.580 C 211.727 339.721,212.078 339.641,212.366 339.402 C 212.655 339.163,212.891 339.082,212.891 339.224 C 212.891 339.365,213.286 339.261,213.770 338.993 C 214.253 338.725,214.780 338.543,214.941 338.589 C 215.103 338.635,215.234 338.477,215.234 338.239 C 215.234 338.002,215.498 337.908,215.820 338.032 C 216.143 338.156,216.406 338.076,216.406 337.855 C 216.406 337.635,216.570 337.555,216.770 337.679 C 216.970 337.802,217.246 337.722,217.383 337.500 C 217.520 337.278,217.796 337.198,217.996 337.321 C 218.196 337.445,218.359 337.382,218.359 337.181 C 218.359 336.981,218.819 336.816,219.380 336.816 C 219.942 336.816,220.537 336.596,220.704 336.327 C 220.870 336.058,221.202 335.958,221.441 336.106 C 221.680 336.253,221.875 336.169,221.875 335.919 C 221.875 335.668,222.139 335.564,222.461 335.688 C 222.783 335.812,223.047 335.724,223.047 335.493 C 223.047 335.262,223.305 335.172,223.620 335.293 C 223.936 335.414,224.305 335.333,224.441 335.113 C 224.577 334.892,224.943 334.810,225.255 334.930 C 225.611 335.066,225.720 334.983,225.548 334.705 C 225.361 334.402,225.598 334.324,226.297 334.457 C 226.924 334.577,227.226 334.501,227.078 334.262 C 226.925 334.014,227.229 333.969,227.904 334.138 C 228.677 334.332,228.893 334.279,228.686 333.943 C 228.482 333.614,228.707 333.539,229.464 333.684 C 230.094 333.804,230.385 333.744,230.177 333.536 C 229.687 333.047,228.052 332.769,228.333 333.223 C 228.458 333.426,228.243 333.565,227.855 333.531 C 226.314 333.398,224.966 333.613,225.179 333.958 C 225.303 334.159,224.900 334.309,224.282 334.291 C 223.665 334.274,222.931 334.400,222.652 334.573 C 222.329 334.772,222.240 334.732,222.407 334.462 C 222.551 334.229,222.486 333.925,222.262 333.787 C 222.039 333.649,221.904 333.768,221.963 334.053 C 222.027 334.363,221.637 334.620,220.989 334.695 C 220.395 334.763,219.998 334.964,220.108 335.142 C 220.218 335.320,220.036 335.569,219.704 335.697 C 219.372 335.824,219.200 335.767,219.322 335.569 C 219.444 335.372,219.338 335.083,219.087 334.928 C 218.808 334.756,218.734 334.814,218.896 335.076 C 219.189 335.551,217.872 336.392,216.618 336.531 C 215.238 336.683,215.183 336.710,215.427 337.105 C 215.564 337.326,215.407 337.392,215.059 337.258 C 214.726 337.130,214.453 337.200,214.453 337.413 C 214.453 337.625,214.022 337.882,213.496 337.983 C 212.969 338.083,212.551 338.060,212.566 337.930 C 212.738 336.431,212.377 333.930,212.109 334.766 C 211.892 335.444,211.783 334.787,211.752 332.617 C 211.708 329.586,211.305 327.996,210.791 328.827 M137.109 329.688 C 136.665 329.975,136.830 330.068,137.793 330.072 C 138.491 330.075,139.063 329.902,139.063 329.688 C 139.063 329.191,137.877 329.191,137.109 329.688 M140.234 330.332 C 139.052 330.750,138.999 330.818,139.844 330.832 C 141.102 330.854,142.578 330.457,142.578 330.098 C 142.578 329.699,141.810 329.775,140.234 330.332 M152.441 330.347 C 152.817 330.446,153.433 330.446,153.809 330.347 C 154.185 330.249,153.877 330.169,153.125 330.169 C 152.373 330.169,152.065 330.249,152.441 330.347 M248.522 330.539 C 248.048 330.727,248.195 330.814,249.023 330.836 C 249.668 330.854,250.878 330.981,251.713 331.119 C 252.896 331.314,253.191 331.252,253.052 330.837 C 252.862 330.266,249.731 330.060,248.522 330.539 M147.363 331.129 C 147.739 331.227,148.354 331.227,148.730 331.129 C 149.106 331.030,148.799 330.950,148.047 330.950 C 147.295 330.950,146.987 331.030,147.363 331.129 M157.915 331.117 C 158.294 331.223,158.486 331.499,158.342 331.732 C 158.168 332.013,158.395 332.070,159.021 331.903 C 159.538 331.764,160.474 331.649,161.100 331.646 C 163.023 331.637,161.996 331.272,159.544 331.093 C 158.269 331.000,157.536 331.011,157.915 331.117 M231.904 331.255 C 232.441 331.751,234.109 332.159,233.844 331.729 C 233.713 331.517,233.150 331.256,232.593 331.150 C 232.037 331.043,231.727 331.091,231.904 331.255 M244.922 331.250 C 245.459 331.422,246.338 331.563,246.875 331.563 L 247.852 331.563 246.875 331.250 C 246.338 331.078,245.459 330.937,244.922 330.937 L 243.945 330.937 244.922 331.250 M236.523 331.641 C 236.435 331.784,236.574 331.923,236.834 331.950 C 237.093 331.978,237.814 332.120,238.437 332.267 C 239.175 332.442,239.483 332.395,239.321 332.133 C 239.029 331.661,236.758 331.261,236.523 331.641 M239.876 331.393 C 239.966 331.472,240.742 331.644,241.602 331.775 C 242.691 331.941,242.927 331.906,242.383 331.659 C 241.633 331.319,239.541 331.098,239.876 331.393 M234.375 331.986 C 234.375 332.176,234.855 332.423,235.442 332.535 C 236.440 332.725,236.460 332.703,235.758 332.190 C 234.899 331.562,234.375 331.485,234.375 331.986 M232.031 332.464 C 232.031 332.701,232.274 332.803,232.570 332.690 C 232.866 332.576,233.341 332.689,233.625 332.941 C 234.053 333.320,234.053 333.281,233.625 332.715 C 233.049 331.954,232.031 331.793,232.031 332.464 M205.664 333.269 C 204.805 333.477,201.882 333.587,199.169 333.514 C 193.971 333.374,192.286 334.087,195.934 334.883 C 199.418 335.644,207.679 334.828,207.271 333.764 C 207.163 333.483,207.285 333.168,207.541 333.064 C 208.294 332.758,207.351 332.861,205.664 333.269 M154.204 337.776 C 154.690 337.870,155.393 337.866,155.766 337.768 C 156.140 337.671,155.742 337.594,154.883 337.599 C 154.023 337.603,153.718 337.683,154.204 337.776 M245.801 337.769 C 246.177 337.868,246.792 337.868,247.168 337.769 C 247.544 337.671,247.236 337.591,246.484 337.591 C 245.732 337.591,245.425 337.671,245.801 337.769 M160.063 338.167 C 160.549 338.260,161.252 338.257,161.626 338.159 C 161.999 338.061,161.602 337.985,160.742 337.989 C 159.883 337.993,159.577 338.073,160.063 338.167 M240.527 338.166 C 241.011 338.259,241.802 338.259,242.285 338.166 C 242.769 338.073,242.373 337.997,241.406 337.997 C 240.439 337.997,240.044 338.073,240.527 338.166 M234.863 338.551 C 235.239 338.649,235.854 338.649,236.230 338.551 C 236.606 338.452,236.299 338.372,235.547 338.372 C 234.795 338.372,234.487 338.452,234.863 338.551 M171.391 338.948 C 171.877 339.042,172.580 339.038,172.954 338.940 C 173.327 338.842,172.930 338.766,172.070 338.770 C 171.211 338.775,170.905 338.855,171.391 338.948 M175.781 339.061 C 176.370 339.443,180.773 339.627,180.400 339.254 C 180.291 339.145,179.075 338.971,177.698 338.868 C 175.994 338.740,175.382 338.802,175.781 339.061 M229.985 338.948 C 230.471 339.042,231.174 339.038,231.548 338.940 C 231.921 338.842,231.523 338.766,230.664 338.770 C 229.805 338.775,229.499 338.855,229.985 338.948 M223.735 339.339 C 224.221 339.432,224.924 339.429,225.298 339.331 C 225.671 339.233,225.273 339.157,224.414 339.161 C 223.555 339.165,223.249 339.245,223.735 339.339 M199.316 345.202 C 199.907 345.291,200.874 345.291,201.465 345.202 C 202.056 345.112,201.572 345.039,200.391 345.039 C 199.209 345.039,198.726 345.112,199.316 345.202 " stroke="none" fill="#afa7a3" fill-rule="evenodd"></path></g></svg>