<svg id="svg" version="1.1" xmlns="http://www.w3.org/2000/svg" xmlns:xlink="http://www.w3.org/1999/xlink" width="400" height="400" viewBox="0, 0, 400,400"><g id="svgg"><path id="path0" d="M182.516 81.639 C 177.111 84.934,179.619 91.972,186.407 92.558 C 191.241 92.975,194.064 95.819,195.264 101.484 C 196.141 105.621,196.058 105.805,193.262 105.938 L 190.820 106.055 190.625 112.839 L 190.430 119.624 167.578 119.734 C 139.994 119.866,139.608 119.934,134.456 125.572 C 130.537 129.860,129.646 133.277,129.734 143.682 L 129.775 148.497 127.803 149.796 C 126.718 150.510,125.204 151.572,124.439 152.156 L 123.047 153.218 123.047 149.485 L 123.047 145.753 121.803 145.630 C 119.905 145.443,119.806 144.637,119.633 128.056 L 119.475 112.948 120.382 112.465 C 122.034 111.585,122.240 110.935,122.253 106.571 C 122.270 101.088,122.241 101.058,117.184 101.235 C 112.254 101.407,112.109 101.533,112.112 105.614 C 112.115 109.991,112.625 111.645,114.174 112.296 L 115.403 112.813 115.492 126.554 C 115.586 141.271,115.899 145.348,117.379 151.159 C 118.488 155.514,118.710 155.061,115.323 155.345 L 112.585 155.575 112.351 156.987 C 112.223 157.763,112.116 158.959,112.114 159.644 C 112.110 160.801,112.005 160.899,110.645 161.012 L 109.180 161.133 109.084 169.141 C 108.977 178.000,109.070 178.444,110.896 177.808 L 112.109 177.384 112.109 180.066 C 112.109 184.272,111.563 183.984,119.547 183.984 L 126.511 183.984 126.634 193.083 L 126.758 202.182 128.125 204.454 C 130.660 208.667,134.788 211.641,139.248 212.465 C 143.065 213.171,178.570 213.037,181.375 212.307 C 190.511 209.927,193.750 204.593,193.750 191.931 L 193.750 184.375 195.801 184.373 C 196.929 184.371,199.289 184.258,201.045 184.122 L 204.239 183.873 204.366 192.056 L 204.492 200.240 205.956 203.199 C 207.799 206.926,211.281 210.332,214.672 211.726 L 216.992 212.679 236.669 212.808 C 261.835 212.973,263.671 212.673,268.271 207.640 C 271.896 203.673,272.707 200.357,272.622 189.844 L 272.576 184.180 279.728 184.073 C 287.898 183.951,287.485 184.147,287.494 180.371 L 287.500 177.734 289.070 177.734 L 290.641 177.734 290.535 169.434 L 290.430 161.133 288.994 161.215 L 287.559 161.298 287.295 158.831 C 286.941 155.526,286.790 155.357,284.020 155.156 C 281.839 154.999,281.664 154.918,281.841 154.153 C 283.717 145.993,283.984 142.520,283.984 126.326 C 283.984 114.116,284.055 112.500,284.588 112.500 C 286.365 112.500,287.109 110.774,287.109 106.658 C 287.109 101.299,286.863 101.048,281.785 101.233 C 277.217 101.399,277.274 101.326,277.432 106.777 L 277.554 111.015 278.844 112.168 L 280.134 113.320 279.975 128.633 C 279.798 145.685,279.796 145.703,277.884 145.703 L 276.563 145.703 276.563 149.599 L 276.563 153.495 274.572 152.321 C 273.477 151.676,271.819 150.511,270.889 149.733 L 269.197 148.319 269.059 140.468 C 268.872 129.819,267.437 126.383,261.607 122.615 C 257.030 119.656,257.767 119.727,231.368 119.727 C 208.183 119.727,207.850 119.716,207.643 118.945 C 206.980 116.479,207.426 108.230,208.265 107.449 C 211.194 104.719,223.196 103.582,237.409 104.687 L 242.201 105.060 243.697 106.632 L 245.192 108.203 251.656 108.203 C 259.187 108.203,258.594 108.622,258.594 103.302 C 258.594 98.790,258.912 98.997,251.758 98.869 C 246.094 98.767,244.619 99.030,243.152 100.404 C 242.401 101.108,242.039 101.125,236.316 100.724 C 220.049 99.584,207.976 101.221,204.529 105.036 C 203.954 105.673,203.324 105.859,201.753 105.859 L 199.722 105.859 199.476 103.215 C 198.960 97.663,196.918 93.580,193.356 90.976 C 191.568 89.669,191.539 89.614,191.538 87.452 C 191.535 82.433,186.517 79.199,182.516 81.639 M186.482 83.691 C 187.331 85.046,185.410 86.568,184.161 85.531 C 183.466 84.954,183.414 83.343,184.082 83.064 C 184.946 82.703,186.041 82.989,186.482 83.691 M256.081 123.619 C 260.199 124.842,263.593 128.015,265.079 132.031 C 265.746 133.833,266.415 146.875,265.840 146.875 C 265.694 146.875,264.663 146.479,263.549 145.996 C 260.739 144.777,219.365 144.604,215.667 145.796 C 206.757 148.669,204.558 152.894,204.377 167.492 L 204.249 177.757 199.097 177.648 L 193.945 177.539 193.743 167.578 C 193.451 153.224,191.589 149.437,183.118 145.963 C 180.211 144.771,139.594 144.631,135.964 145.801 C 134.797 146.177,133.699 146.484,133.523 146.484 C 133.113 146.484,133.139 139.326,133.563 135.672 C 134.254 129.711,138.140 125.086,143.722 123.581 C 146.610 122.802,253.454 122.839,256.081 123.619 M180.859 152.567 C 187.280 155.545,187.282 155.553,187.420 177.866 C 187.568 201.806,187.324 202.703,179.873 205.614 L 177.148 206.678 158.594 206.562 L 140.039 206.445 137.811 205.351 C 131.012 202.012,130.262 199.502,130.318 180.273 C 130.404 151.020,129.810 151.607,159.375 151.585 L 178.711 151.570 180.859 152.567 M261.021 152.372 C 263.708 153.425,264.998 154.697,266.526 157.801 L 267.773 160.336 267.660 177.922 C 267.518 199.733,267.158 201.351,261.724 204.594 C 258.350 206.609,258.044 206.636,239.006 206.638 C 216.725 206.641,215.253 206.307,211.814 200.455 L 210.742 198.633 210.742 178.516 L 210.742 158.398 212.106 156.504 C 213.551 154.496,215.765 152.975,218.471 152.129 C 221.616 151.146,258.429 151.356,261.021 152.372 M128.543 154.199 C 128.339 154.575,127.718 155.924,127.163 157.197 C 126.461 158.805,126.028 159.387,125.745 159.104 C 125.202 158.561,126.265 156.017,127.633 154.590 C 128.826 153.344,129.060 153.244,128.543 154.199 M155.439 155.842 C 144.563 157.293,136.954 164.368,134.743 175.086 C 132.702 184.977,135.700 195.329,141.931 199.903 C 144.386 201.705,143.576 202.102,140.539 200.585 C 138.078 199.356,136.244 197.701,134.697 195.313 L 133.559 193.555 133.813 195.313 C 134.366 199.134,136.551 201.984,140.215 203.661 C 143.103 204.982,175.465 204.937,178.164 203.607 C 181.452 201.987,183.569 199.278,184.163 195.932 L 184.434 194.403 182.385 196.646 C 180.192 199.045,176.947 201.162,175.454 201.168 C 174.645 201.171,174.815 200.872,176.937 198.556 C 192.474 181.601,177.994 152.832,155.439 155.842 M272.321 159.245 C 272.747 160.996,273.139 164.311,273.238 166.992 L 273.410 171.680 272.861 166.211 C 272.559 163.203,271.969 159.540,271.550 158.070 C 271.131 156.600,270.966 155.575,271.182 155.792 C 271.399 156.009,271.912 157.563,272.321 159.245 M232.172 156.601 C 213.470 161.954,206.837 188.967,221.536 199.916 C 222.784 200.845,223.272 201.411,222.892 201.490 C 221.791 201.719,218.763 200.056,216.664 198.071 C 215.517 196.986,214.434 196.229,214.258 196.389 C 214.081 196.549,214.038 196.502,214.161 196.285 C 214.283 196.068,214.136 195.551,213.833 195.136 C 213.077 194.102,213.100 195.033,213.888 197.346 C 214.738 199.839,216.820 202.107,219.435 203.386 L 221.662 204.475 238.663 204.484 C 257.103 204.493,257.209 204.482,260.420 202.289 C 262.037 201.184,263.675 198.474,264.232 195.981 C 264.446 195.025,264.176 195.197,262.023 197.383 C 259.705 199.737,256.254 201.697,255.593 201.036 C 255.456 200.899,256.320 199.764,257.512 198.515 C 274.153 181.068,255.351 149.967,232.172 156.601 M122.776 159.277 C 122.867 159.438,122.745 160.361,122.506 161.328 L 122.070 163.086 118.261 163.281 L 114.451 163.477 114.452 161.442 L 114.453 159.407 117.676 159.275 C 119.448 159.203,121.284 159.108,121.754 159.064 C 122.225 159.020,122.685 159.116,122.776 159.277 M284.800 159.592 C 284.996 159.713,285.156 160.599,285.156 161.562 L 285.156 163.312 281.765 163.199 C 278.020 163.074,278.418 163.379,277.580 159.999 L 277.299 158.864 280.871 159.118 C 282.836 159.257,284.604 159.470,284.800 159.592 M275.767 160.705 C 277.012 163.981,277.196 175.391,276.003 175.391 C 275.457 175.391,274.376 161.609,274.830 160.427 C 275.170 159.540,275.344 159.592,275.767 160.705 M125.386 166.332 C 125.381 172.784,125.129 175.000,124.398 175.000 C 123.296 175.000,123.198 164.796,124.269 161.422 C 125.031 159.019,125.391 160.600,125.386 166.332 M112.085 167.676 C 112.056 172.749,111.572 172.348,111.140 166.895 C 110.889 163.718,110.930 163.281,111.482 163.281 C 112.022 163.281,112.106 163.891,112.085 167.676 M288.637 166.016 C 288.580 170.346,287.989 171.348,287.945 167.188 C 287.916 164.411,288.025 163.275,288.281 163.672 C 288.490 163.994,288.650 165.049,288.637 166.016 M154.352 164.125 C 156.447 164.753,158.927 166.989,159.808 169.045 C 163.437 177.510,152.661 185.098,145.884 178.851 C 138.695 172.225,144.969 161.314,154.352 164.125 M235.203 164.763 C 240.456 167.508,241.445 174.747,237.103 178.670 C 229.842 185.230,219.079 177.368,223.201 168.516 C 225.267 164.078,230.663 162.391,235.203 164.763 M175.545 175.451 C 175.970 176.057,176.027 176.495,175.749 177.014 C 175.240 177.964,173.576 177.942,173.061 176.979 C 172.072 175.131,174.343 173.734,175.545 175.451 M254.074 175.614 C 254.958 176.498,254.830 177.295,253.723 177.800 C 252.001 178.584,250.624 176.366,252.246 175.422 C 253.172 174.882,253.362 174.902,254.074 175.614 M177.315 181.889 C 178.863 183.857,177.808 186.328,175.419 186.328 C 173.059 186.328,171.930 183.504,173.615 181.818 C 174.874 180.559,176.291 180.586,177.315 181.889 M256.854 181.818 C 257.381 182.346,257.813 183.145,257.813 183.594 C 257.813 185.896,254.560 187.087,253.153 185.299 C 251.024 182.592,254.427 179.391,256.854 181.818 M149.432 184.553 C 151.951 187.072,148.744 190.841,145.951 188.644 C 144.528 187.524,144.528 185.523,145.951 184.403 C 147.303 183.340,148.260 183.381,149.432 184.553 M229.785 184.826 C 231.272 186.583,230.047 189.193,227.734 189.193 C 225.201 189.193,224.149 186.362,225.996 184.515 C 227.152 183.359,228.648 183.482,229.785 184.826 M170.145 194.625 C 170.551 195.030,169.794 196.094,169.099 196.094 C 168.497 196.094,168.359 196.384,168.359 197.656 L 168.359 199.219 165.269 199.219 L 162.178 199.219 161.918 197.679 C 161.719 196.501,161.460 196.112,160.813 196.019 C 159.626 195.849,159.484 194.643,160.622 194.394 C 161.693 194.159,169.878 194.357,170.145 194.625 M249.561 194.385 C 250.936 194.660,251.212 195.664,250.000 195.981 C 249.388 196.141,249.219 196.513,249.219 197.702 L 249.219 199.219 246.128 199.219 L 243.037 199.219 242.779 197.691 C 242.579 196.507,242.308 196.111,241.573 195.926 C 237.563 194.920,245.030 193.479,249.561 194.385 M195.703 209.945 C 195.703 212.803,200.803 214.267,203.257 212.113 C 204.451 211.064,205.350 208.969,204.395 209.461 C 201.179 211.116,199.335 211.233,196.834 209.940 C 195.828 209.419,195.703 209.420,195.703 209.945 M185.625 216.875 C 184.337 218.163,185.581 221.830,188.310 224.791 C 195.626 232.728,214.453 228.423,214.453 218.813 C 214.453 215.560,212.416 215.634,210.706 218.948 C 206.544 227.010,192.987 227.211,189.247 219.266 C 187.888 216.380,186.823 215.677,185.625 216.875 M132.153 221.929 C 132.499 223.321,133.354 231.622,133.169 231.785 C 133.080 231.863,131.606 231.760,129.892 231.555 C 125.745 231.059,122.821 231.441,121.627 232.634 L 120.703 233.558 120.703 247.411 L 120.703 261.263 118.737 261.685 C 110.923 263.361,107.503 270.027,113.069 272.731 C 115.114 273.725,115.162 274.233,113.255 274.721 C 110.077 275.533,108.406 279.654,110.290 282.031 C 111.773 283.902,112.505 284.176,116.543 284.375 L 120.508 284.570 120.703 291.250 C 120.969 300.357,121.003 300.391,129.845 300.391 C 135.204 300.391,137.500 300.018,137.500 299.149 C 137.500 298.761,137.451 298.752,144.922 300.549 C 155.951 303.202,165.004 306.616,175.679 312.149 C 181.842 315.343,183.777 315.858,185.521 314.769 C 186.164 314.368,186.560 314.556,188.434 316.157 C 190.864 318.234,191.266 318.297,200.586 318.059 L 204.492 317.959 206.309 316.210 L 208.125 314.460 209.617 315.084 C 212.060 316.104,213.854 315.620,221.779 311.803 C 237.614 304.175,257.913 297.915,260.762 299.781 C 262.003 300.595,272.041 300.658,273.938 299.865 C 276.241 298.903,276.349 298.548,276.563 291.250 L 276.758 284.570 280.265 284.483 C 287.587 284.299,290.070 277.029,283.596 274.730 C 281.415 273.955,281.192 273.635,282.590 273.284 C 289.049 271.663,286.286 263.512,278.614 261.555 L 276.758 261.082 276.655 247.452 L 276.552 233.821 275.537 232.761 C 274.284 231.453,272.185 231.136,267.619 231.566 L 264.339 231.874 264.580 226.572 L 264.821 221.270 260.633 221.559 C 228.291 223.793,204.829 232.607,198.274 244.985 L 197.524 246.401 195.994 244.034 C 188.495 232.432,167.611 224.345,138.281 221.688 C 136.885 221.561,134.883 221.356,133.833 221.232 C 131.979 221.012,131.931 221.032,132.153 221.929 M141.992 224.781 C 170.165 228.122,188.998 236.313,194.696 247.702 C 196.497 251.301,196.154 251.568,193.500 248.633 C 192.334 247.344,191.197 246.337,190.973 246.396 C 190.750 246.455,190.669 246.338,190.794 246.136 C 191.106 245.631,187.427 242.532,186.796 242.769 C 186.516 242.874,186.381 242.809,186.495 242.624 C 186.959 241.873,179.795 237.576,173.235 234.670 C 165.020 231.032,156.209 228.659,143.945 226.781 C 135.299 225.457,135.156 225.424,135.156 224.774 C 135.156 224.075,136.042 224.076,141.992 224.781 M262.035 224.901 C 261.936 225.415,261.329 225.658,259.565 225.889 C 228.390 229.973,213.114 235.741,203.381 247.102 C 199.797 251.285,198.620 251.918,199.836 249.008 C 204.952 236.763,225.559 227.489,253.516 224.848 C 261.690 224.076,262.194 224.079,262.035 224.901 M145.703 229.353 C 157.677 231.285,166.119 233.337,173.468 236.103 C 175.458 236.852,177.259 237.357,177.470 237.227 C 177.682 237.096,177.748 237.163,177.616 237.375 C 177.315 237.863,179.983 239.168,180.556 238.813 C 180.829 238.645,180.866 238.736,180.660 239.069 C 180.429 239.442,180.518 239.518,180.978 239.341 C 181.329 239.207,181.736 239.292,181.884 239.531 C 182.057 239.812,181.972 239.853,181.641 239.648 C 181.292 239.433,181.223 239.484,181.424 239.810 C 181.587 240.073,181.963 240.194,182.261 240.080 C 182.559 239.965,182.761 240.063,182.710 240.297 C 182.659 240.531,182.861 240.811,183.160 240.920 C 183.492 241.041,183.597 240.946,183.430 240.676 C 183.012 239.999,183.431 240.152,184.034 240.895 C 184.491 241.458,184.489 241.507,184.022 241.226 C 183.645 240.998,183.562 241.039,183.758 241.356 C 183.915 241.610,184.334 241.769,184.689 241.710 C 185.044 241.650,185.338 241.826,185.343 242.100 C 185.348 242.374,186.125 243.210,187.071 243.958 C 188.016 244.707,189.398 245.977,190.142 246.781 C 190.885 247.584,191.301 247.964,191.065 247.624 C 190.738 247.151,190.765 247.005,191.179 247.005 C 191.526 247.005,191.665 247.317,191.565 247.870 C 191.479 248.345,191.671 248.952,191.993 249.219 C 192.753 249.850,192.740 250.391,191.965 250.391 C 191.628 250.391,190.067 250.926,188.496 251.580 L 185.640 252.768 182.566 250.475 C 172.879 243.248,154.206 235.982,139.134 233.574 C 136.104 233.090,135.951 232.922,135.943 230.048 L 135.938 227.870 137.207 228.028 C 137.905 228.116,141.729 228.712,145.703 229.353 M261.680 229.590 C 261.592 232.893,261.651 232.848,256.044 233.865 C 237.153 237.292,216.988 245.168,209.490 252.047 L 208.629 252.837 205.975 251.739 C 204.515 251.135,203.168 250.512,202.982 250.354 C 202.435 249.888,208.543 244.007,211.664 241.994 C 221.304 235.779,235.578 231.449,254.688 228.942 C 262.382 227.933,261.725 227.872,261.680 229.590 M134.282 235.334 C 153.311 238.920,168.525 244.286,178.327 250.870 C 183.004 254.011,183.240 254.272,182.953 255.978 L 182.704 257.464 181.684 256.511 C 177.406 252.517,164.836 246.232,155.078 243.208 C 145.660 240.289,131.581 237.109,128.074 237.109 L 126.953 237.109 126.940 251.465 C 126.926 267.492,127.195 266.171,124.626 262.829 C 123.535 261.409,123.367 236.064,124.442 234.989 C 125.327 234.104,128.308 234.208,134.282 235.334 M272.723 235.021 C 273.387 235.623,273.438 236.562,273.438 248.417 L 273.438 261.165 271.777 262.795 L 270.117 264.425 270.225 250.716 L 270.332 237.006 267.490 237.282 C 248.645 239.106,220.322 248.984,211.907 256.668 C 211.132 257.376,211.111 257.365,210.696 256.039 L 210.273 254.689 213.814 252.333 C 226.490 243.897,243.754 238.129,266.797 234.630 C 269.448 234.227,272.034 234.398,272.723 235.021 M257.739 252.828 C 257.914 253.751,258.240 253.643,240.002 258.769 C 222.871 263.584,222.266 263.713,222.266 262.523 C 222.266 261.373,223.025 261.121,244.727 255.049 C 255.947 251.910,257.515 251.642,257.739 252.828 M204.250 253.784 C 206.627 254.736,198.421 256.993,194.939 256.346 C 192.379 255.870,188.799 254.430,189.193 254.036 C 190.078 253.152,202.166 252.949,204.250 253.784 M188.265 281.055 L 188.267 304.492 186.809 305.702 L 185.352 306.912 185.455 281.592 L 185.558 256.272 186.910 256.945 L 188.262 257.617 188.265 281.055 M207.813 281.218 C 207.813 294.736,207.915 306.117,208.040 306.511 C 208.240 307.143,208.206 307.156,207.747 306.626 C 207.461 306.296,206.653 305.623,205.952 305.131 L 204.677 304.236 204.693 284.442 C 204.717 256.836,204.691 257.083,207.520 256.682 C 207.681 256.659,207.813 267.700,207.813 281.218 M249.538 260.437 C 249.444 261.239,249.128 261.575,248.242 261.814 C 247.598 261.987,242.075 263.537,235.969 265.258 C 225.002 268.349,224.254 268.466,224.225 267.100 C 224.209 266.362,226.989 265.435,240.234 261.757 C 250.509 258.904,249.703 259.018,249.538 260.437 M256.953 262.578 C 257.966 263.591,257.210 266.406,255.924 266.406 C 254.883 266.406,254.297 265.612,254.297 264.199 C 254.297 262.478,255.884 261.509,256.953 262.578 M249.053 267.837 C 248.601 269.014,246.693 268.306,246.559 266.912 C 246.450 265.785,246.567 265.626,247.730 265.321 C 249.077 264.969,249.699 266.153,249.053 267.837 M155.587 273.790 C 156.737 274.940,154.696 274.473,146.389 271.683 C 136.156 268.245,135.938 268.155,135.938 267.381 C 135.938 266.796,154.719 272.922,155.587 273.790 M242.188 267.969 C 242.188 268.957,242.680 268.770,233.002 271.462 C 228.279 272.776,224.127 273.938,223.777 274.046 C 222.939 274.304,222.469 273.066,223.147 272.388 C 223.433 272.103,227.351 270.830,231.853 269.561 C 242.681 266.508,242.188 266.584,242.188 267.969 M128.906 294.700 C 129.873 294.686,132.257 294.447,134.203 294.170 C 141.403 293.146,155.009 296.362,168.359 302.243 C 175.653 305.456,183.523 310.007,183.899 311.230 C 184.311 312.570,182.395 311.998,176.609 309.056 C 164.152 302.722,153.896 299.067,141.003 296.368 C 138.702 295.887,138.204 295.904,135.925 296.550 C 134.392 296.985,131.811 297.305,129.364 297.364 C 123.729 297.500,123.828 297.646,123.828 289.164 L 123.828 282.710 125.195 280.807 C 125.947 279.761,126.563 278.715,126.563 278.483 C 126.563 277.962,124.002 274.068,123.247 273.442 C 122.784 273.057,123.025 272.506,124.726 270.059 L 126.758 267.136 126.953 280.931 L 127.148 294.727 128.906 294.700 M271.987 269.878 L 273.776 272.569 271.999 274.663 C 271.022 275.815,270.155 276.831,270.072 276.921 C 269.989 277.010,269.922 274.857,269.922 272.135 C 269.922 269.414,269.984 267.188,270.060 267.188 C 270.136 267.188,271.003 268.398,271.987 269.878 M256.666 270.717 C 257.523 271.175,257.696 273.007,256.953 273.750 C 255.389 275.314,253.211 273.190,254.446 271.305 C 255.161 270.213,255.538 270.113,256.666 270.717 M249.290 272.852 C 250.158 274.757,248.326 276.686,246.953 275.313 C 246.695 275.055,246.484 274.387,246.484 273.828 C 246.484 271.829,248.504 271.126,249.290 272.852 M242.109 273.906 C 243.292 275.089,242.395 277.344,240.742 277.344 C 240.248 277.344,239.841 277.212,239.838 277.051 C 239.835 276.890,239.731 276.379,239.607 275.915 C 239.221 274.477,241.140 272.937,242.109 273.906 M234.138 275.618 C 234.851 277.476,233.402 279.882,232.181 278.868 C 231.432 278.247,231.109 276.226,231.654 275.570 C 232.283 274.812,233.840 274.842,234.138 275.618 M225.172 279.810 C 225.643 281.147,225.105 282.170,223.832 282.358 C 222.303 282.584,221.661 280.348,222.899 279.110 C 223.780 278.229,224.718 278.518,225.172 279.810 M271.845 281.253 L 273.491 283.599 273.367 289.834 C 273.210 297.690,273.362 297.474,268.033 297.419 C 265.152 297.389,263.664 297.173,261.962 296.536 C 260.723 296.072,259.570 295.778,259.400 295.883 C 259.231 295.987,256.507 296.619,253.348 297.286 C 242.095 299.662,232.318 303.165,218.626 309.727 C 212.532 312.647,211.931 312.836,211.590 311.947 C 210.755 309.772,231.544 300.332,245.622 296.494 C 254.866 293.973,258.951 293.507,264.543 294.334 C 270.903 295.274,270.380 295.973,270.238 286.722 C 270.171 282.423,270.136 278.906,270.158 278.906 C 270.181 278.906,270.940 279.962,271.845 281.253 M228.906 286.081 C 228.906 286.885,228.586 287.094,226.465 287.670 C 225.122 288.035,223.716 288.422,223.340 288.529 C 222.799 288.684,222.656 288.483,222.656 287.568 C 222.656 286.490,222.807 286.373,224.902 285.823 C 228.265 284.941,228.906 284.982,228.906 286.081 M203.948 307.895 C 206.298 309.275,207.946 311.719,206.527 311.719 C 206.249 311.719,205.150 312.509,204.085 313.475 L 202.148 315.231 197.376 315.233 L 192.604 315.234 190.676 313.522 C 189.615 312.580,188.532 311.737,188.270 311.650 C 187.594 311.425,189.121 308.561,190.300 307.843 C 192.968 306.217,201.143 306.248,203.948 307.895 " stroke="none" fill="#e2e6e1" fill-rule="evenodd"></path><path id="path1" d="M225.300 100.283 C 226.002 100.370,227.057 100.368,227.644 100.279 C 228.231 100.190,227.656 100.119,226.367 100.121 C 225.078 100.123,224.598 100.196,225.300 100.283 M116.119 101.062 C 116.712 101.151,117.591 101.149,118.072 101.056 C 118.552 100.964,118.066 100.890,116.992 100.893 C 115.918 100.896,115.525 100.972,116.119 101.062 M228.223 104.566 C 228.599 104.664,229.214 104.664,229.590 104.566 C 229.966 104.468,229.658 104.388,228.906 104.388 C 228.154 104.388,227.847 104.468,228.223 104.566 M279.857 128.320 C 279.857 133.691,279.912 135.943,279.979 133.324 C 280.047 130.704,280.047 126.310,279.980 123.558 C 279.912 120.806,279.857 122.949,279.857 128.320 M284.147 126.758 C 284.148 130.840,284.205 132.457,284.276 130.351 C 284.346 128.245,284.346 124.905,284.275 122.929 C 284.204 120.953,284.147 122.676,284.147 126.758 M162.598 123.336 C 163.833 123.413,165.854 123.413,167.090 123.336 C 168.325 123.258,167.314 123.195,164.844 123.195 C 162.373 123.195,161.362 123.258,162.598 123.336 M154.985 144.417 C 155.471 144.510,156.174 144.507,156.548 144.409 C 156.921 144.311,156.523 144.235,155.664 144.239 C 154.805 144.243,154.499 144.323,154.985 144.417 M252.441 144.811 C 253.032 144.901,253.999 144.901,254.590 144.811 C 255.181 144.722,254.697 144.648,253.516 144.648 C 252.334 144.648,251.851 144.722,252.441 144.811 M116.516 159.663 C 117.543 159.743,119.125 159.742,120.031 159.660 C 120.938 159.579,120.098 159.512,118.164 159.514 C 116.230 159.515,115.489 159.582,116.516 159.663 M280.381 159.662 C 281.300 159.744,282.706 159.743,283.506 159.659 C 284.306 159.575,283.555 159.507,281.836 159.509 C 280.117 159.510,279.463 159.579,280.381 159.662 M204.064 166.211 C 204.065 169.648,204.125 171.002,204.197 169.220 C 204.270 167.437,204.269 164.625,204.196 162.970 C 204.123 161.315,204.064 162.773,204.064 166.211 M124.767 160.877 C 124.921 161.125,124.889 161.328,124.698 161.328 C 124.201 161.328,124.169 161.651,124.021 168.164 C 123.880 174.376,124.003 174.833,124.441 169.727 C 124.631 167.512,124.804 166.829,125.034 167.383 C 125.236 167.870,125.345 166.800,125.323 164.542 C 125.303 162.536,125.109 160.810,124.888 160.673 C 124.659 160.531,124.608 160.618,124.767 160.877 M284.738 161.426 C 284.712 162.261,284.695 162.266,284.389 161.523 C 284.111 160.847,284.033 160.827,283.809 161.375 C 283.423 162.315,278.529 162.329,278.485 161.390 C 278.467 161.020,278.373 160.942,278.264 161.209 C 277.680 162.645,278.854 163.283,281.947 163.210 L 284.961 163.138 281.836 162.891 L 278.711 162.643 281.934 162.572 C 285.092 162.501,285.156 162.480,285.156 161.523 C 285.156 160.309,284.776 160.220,284.738 161.426 M114.506 162.207 L 114.453 163.281 117.871 163.202 L 121.289 163.122 118.092 162.991 C 115.153 162.870,114.880 162.790,114.727 161.996 C 114.587 161.275,114.551 161.309,114.506 162.207 M186.967 166.113 C 186.665 171.244,186.900 194.843,187.257 195.200 C 187.406 195.349,187.478 187.964,187.416 178.790 C 187.355 169.616,187.282 162.110,187.254 162.110 C 187.226 162.109,187.097 163.911,186.967 166.113 M193.849 163.477 C 193.853 164.336,193.933 164.642,194.026 164.156 C 194.120 163.670,194.116 162.967,194.018 162.593 C 193.921 162.220,193.844 162.617,193.849 163.477 M275.628 165.039 C 275.783 166.113,275.919 167.300,275.930 167.676 C 275.940 168.052,276.088 168.359,276.258 168.359 C 276.733 168.359,276.330 164.064,275.807 163.544 C 275.452 163.192,275.411 163.539,275.628 165.039 M210.937 180.156 C 210.830 189.330,210.876 196.703,211.040 196.539 C 211.203 196.375,211.291 188.869,211.235 179.859 L 211.132 163.477 210.937 180.156 M275.537 169.323 C 275.416 169.638,275.408 170.122,275.518 170.397 C 275.639 170.699,275.758 170.587,275.816 170.117 C 275.869 169.688,276.029 170.391,276.172 171.680 L 276.431 174.023 276.497 171.387 C 276.558 168.914,276.085 167.896,275.537 169.323 M184.143 178.666 C 184.029 178.964,183.994 179.975,184.066 180.912 C 184.192 182.562,184.203 182.545,184.383 180.371 C 184.573 178.090,184.517 177.692,184.143 178.666 M212.957 179.102 C 212.951 179.531,213.097 180.234,213.281 180.664 C 213.709 181.659,213.709 180.632,213.281 179.297 C 213.030 178.512,212.966 178.474,212.957 179.102 M264.108 179.167 C 264.083 179.418,263.949 179.946,263.810 180.339 C 263.614 180.894,263.666 180.955,264.042 180.608 C 264.308 180.362,264.442 179.835,264.340 179.436 C 264.237 179.037,264.133 178.916,264.108 179.167 M267.309 182.617 C 267.311 183.906,267.384 184.387,267.471 183.684 C 267.558 182.982,267.556 181.928,267.467 181.341 C 267.377 180.754,267.306 181.328,267.309 182.617 M130.958 182.617 C 130.962 183.477,131.042 183.782,131.136 183.296 C 131.229 182.810,131.226 182.107,131.128 181.734 C 131.030 181.360,130.954 181.758,130.958 182.617 M213.153 183.160 C 213.009 183.882,212.910 184.846,212.933 185.303 C 212.957 185.759,213.132 185.342,213.322 184.375 C 213.512 183.408,213.611 182.444,213.542 182.233 C 213.472 182.021,213.297 182.439,213.153 183.160 M263.979 184.766 C 264.074 185.410,264.219 185.938,264.302 185.938 C 264.385 185.938,264.453 185.410,264.453 184.766 C 264.453 184.121,264.308 183.594,264.130 183.594 C 263.953 183.594,263.885 184.121,263.979 184.766 M130.858 190.353 C 130.751 193.533,130.805 196.275,130.977 196.447 C 131.149 196.618,131.318 197.136,131.353 197.598 C 131.388 198.060,131.543 198.438,131.697 198.438 C 131.958 198.438,132.325 199.267,132.476 200.195 C 132.511 200.410,132.821 200.791,133.164 201.043 C 133.508 201.294,133.797 201.733,133.807 202.019 C 133.817 202.305,134.036 202.495,134.295 202.441 C 134.554 202.388,134.766 202.597,134.766 202.907 C 134.766 203.216,134.926 203.569,135.122 203.690 C 135.740 204.072,135.343 202.807,134.580 201.964 C 133.865 201.174,133.865 201.159,134.600 201.273 C 135.824 201.463,136.290 201.920,136.126 202.768 C 136.006 203.392,136.161 203.552,136.834 203.498 C 138.236 203.386,138.403 203.484,137.883 204.111 C 137.315 204.795,137.289 204.761,138.965 205.574 C 139.716 205.939,140.234 206.023,140.234 205.782 C 140.234 205.522,140.437 205.542,140.790 205.835 C 141.385 206.328,175.801 206.518,177.061 206.034 C 177.411 205.900,177.908 205.921,178.167 206.080 C 178.484 206.277,178.534 206.205,178.320 205.858 C 178.084 205.476,178.218 205.402,178.846 205.566 C 179.309 205.687,179.602 205.646,179.495 205.474 C 179.389 205.302,179.748 205.050,180.292 204.913 C 180.837 204.776,181.178 204.496,181.050 204.290 C 180.923 204.084,181.063 204.009,181.361 204.123 C 181.659 204.237,182.247 204.016,182.669 203.630 C 183.090 203.245,183.163 203.102,182.831 203.314 C 182.435 203.565,182.483 203.397,182.971 202.825 C 183.380 202.346,183.907 201.967,184.143 201.984 C 184.387 202.002,184.360 202.099,184.080 202.213 C 183.810 202.321,183.687 202.569,183.807 202.764 C 183.928 202.959,184.262 202.900,184.552 202.633 C 184.932 202.283,184.962 202.007,184.660 201.638 C 184.431 201.357,184.404 201.159,184.602 201.196 C 185.600 201.386,186.024 201.160,185.609 200.660 C 185.344 200.342,185.303 199.716,185.499 199.000 C 185.685 198.324,185.648 197.478,185.409 196.944 C 185.112 196.277,185.142 195.811,185.522 195.186 C 185.807 194.718,185.901 194.466,185.732 194.626 C 185.562 194.785,185.219 194.745,184.968 194.537 C 184.634 194.260,184.558 194.469,184.684 195.322 C 184.778 195.961,184.703 196.484,184.517 196.484 C 184.331 196.484,184.139 196.924,184.089 197.461 C 183.888 199.630,183.800 199.941,183.412 199.874 C 183.190 199.836,183.006 200.106,183.003 200.473 C 183.001 200.841,182.746 201.368,182.436 201.645 C 181.955 202.076,181.955 202.036,182.441 201.367 C 182.753 200.938,182.305 201.190,181.445 201.929 C 180.586 202.668,179.883 203.401,179.883 203.557 C 179.883 203.713,179.723 203.988,179.527 204.167 C 179.321 204.356,179.289 204.288,179.453 204.004 C 179.823 203.361,179.505 203.388,178.086 204.122 C 177.441 204.455,176.527 204.622,176.055 204.492 C 175.253 204.272,175.242 204.294,175.890 204.816 C 176.492 205.301,176.505 205.407,175.988 205.606 C 175.659 205.732,175.391 205.668,175.391 205.465 C 175.391 205.240,169.058 205.039,159.277 204.952 C 150.415 204.873,142.725 204.730,142.188 204.633 C 140.358 204.303,139.068 203.824,139.243 203.539 C 139.410 203.269,138.884 203.140,137.425 203.094 C 137.061 203.082,136.846 202.858,136.946 202.596 C 137.047 202.333,136.604 201.615,135.961 201.000 C 135.319 200.384,134.902 199.704,135.035 199.489 C 135.168 199.274,135.106 199.204,134.897 199.333 C 134.441 199.615,133.441 197.048,133.788 196.487 C 133.921 196.271,133.844 196.094,133.617 196.094 C 133.389 196.094,133.189 195.522,133.172 194.824 C 133.155 194.126,133.053 193.774,132.944 194.043 C 132.836 194.312,132.477 194.531,132.146 194.531 C 131.673 194.531,131.642 194.649,132.002 195.082 C 132.317 195.462,132.331 195.713,132.047 195.888 C 131.391 196.294,131.265 195.445,131.155 189.844 L 131.051 184.570 130.858 190.353 M213.348 186.914 C 213.341 187.344,213.487 188.047,213.672 188.477 C 214.100 189.472,214.100 188.445,213.672 187.109 C 213.420 186.324,213.357 186.286,213.348 186.914 M126.293 190.039 C 126.295 191.328,126.368 191.808,126.455 191.106 C 126.542 190.404,126.540 189.350,126.451 188.763 C 126.362 188.176,126.291 188.750,126.293 190.039 M214.794 190.723 C 214.589 191.124,214.613 192.578,214.825 192.578 C 215.070 192.578,216.406 195.084,216.406 195.544 C 216.406 195.657,216.203 195.624,215.955 195.471 C 215.674 195.296,215.610 195.364,215.787 195.649 C 215.942 195.901,216.233 196.005,216.433 195.882 C 216.633 195.758,216.797 195.843,216.797 196.071 C 216.797 196.298,216.969 196.484,217.180 196.484 C 217.391 196.484,216.938 195.347,216.174 193.956 C 215.409 192.566,214.896 191.247,215.032 191.027 C 215.169 190.806,215.182 190.625,215.062 190.625 C 214.942 190.625,214.821 190.669,214.794 190.723 M135.652 192.871 C 135.760 193.247,135.964 193.833,136.105 194.173 C 136.276 194.585,136.155 194.792,135.742 194.792 C 135.401 194.792,135.206 194.575,135.308 194.309 C 135.511 193.779,134.579 193.789,134.093 194.322 C 133.926 194.506,133.996 194.538,134.249 194.393 C 134.659 194.158,134.993 194.676,135.219 195.898 C 135.259 196.113,136.140 196.979,137.177 197.823 C 138.214 198.667,139.063 199.502,139.063 199.678 C 139.063 200.110,140.133 200.090,140.402 199.654 C 140.520 199.463,140.311 199.068,139.937 198.775 C 139.322 198.293,139.309 198.307,139.794 198.926 C 140.791 200.197,139.660 199.611,137.793 197.890 C 135.868 196.114,135.520 195.443,136.526 195.443 C 136.849 195.443,137.070 195.633,137.017 195.866 C 136.963 196.099,137.094 196.289,137.307 196.289 C 137.521 196.289,137.629 196.113,137.548 195.898 C 137.467 195.684,137.394 195.296,137.385 195.037 C 137.377 194.778,137.249 194.640,137.101 194.731 C 136.731 194.961,135.875 192.995,136.151 192.549 C 136.274 192.350,136.168 192.188,135.915 192.188 C 135.662 192.188,135.544 192.495,135.652 192.871 M212.386 194.458 C 212.491 195.506,212.360 196.383,212.039 196.779 C 211.704 197.192,211.688 197.317,211.992 197.134 C 212.561 196.793,213.437 198.260,213.044 198.897 C 212.876 199.168,212.944 199.232,213.221 199.061 C 213.469 198.907,213.672 198.958,213.672 199.173 C 213.672 199.387,213.488 199.677,213.262 199.816 C 212.983 199.989,212.999 200.246,213.314 200.626 C 213.664 201.047,213.905 201.074,214.310 200.738 C 214.702 200.413,214.844 200.412,214.844 200.733 C 214.844 200.975,214.684 201.172,214.490 201.172 C 214.295 201.172,214.182 201.479,214.238 201.855 C 214.295 202.231,214.273 202.358,214.190 202.137 C 214.107 201.916,213.648 201.493,213.172 201.196 C 212.408 200.720,212.362 200.726,212.790 201.243 C 213.056 201.566,213.173 201.931,213.049 202.055 C 212.925 202.179,213.180 202.471,213.615 202.704 C 214.147 202.989,214.486 202.997,214.652 202.729 C 214.934 202.273,215.625 202.587,215.625 203.171 C 215.625 203.386,215.461 203.461,215.261 203.337 C 215.061 203.213,214.770 203.335,214.613 203.607 C 214.456 203.879,214.467 203.975,214.638 203.821 C 214.809 203.667,215.388 203.887,215.925 204.310 C 216.463 204.732,217.043 205.078,217.215 205.078 C 217.387 205.078,218.022 205.279,218.627 205.524 C 219.232 205.769,220.078 206.023,220.508 206.088 C 221.622 206.256,256.716 206.281,257.422 206.114 C 257.744 206.038,258.447 205.794,258.984 205.573 C 259.521 205.351,260.105 205.255,260.280 205.359 C 260.456 205.462,260.543 205.240,260.475 204.865 C 260.407 204.490,260.576 204.134,260.850 204.074 C 261.124 204.014,261.166 204.055,260.945 204.164 C 260.723 204.274,260.637 204.518,260.754 204.707 C 260.871 204.895,261.311 204.704,261.733 204.283 C 262.155 203.861,262.774 203.516,263.109 203.516 C 263.444 203.516,263.604 203.331,263.465 203.106 C 263.294 202.829,263.002 202.856,262.563 203.189 C 262.206 203.460,262.430 203.117,263.061 202.426 C 263.692 201.736,264.066 201.172,263.892 201.172 C 263.719 201.172,263.795 200.908,264.063 200.586 C 264.330 200.264,264.747 200.014,264.989 200.031 C 265.264 200.050,265.245 200.136,264.939 200.260 C 264.669 200.368,264.564 200.645,264.706 200.875 C 264.872 201.143,264.768 201.179,264.416 200.974 C 264.114 200.799,263.999 200.802,264.161 200.980 C 264.323 201.158,264.158 201.670,263.795 202.117 C 263.432 202.564,263.764 202.314,264.532 201.563 C 265.301 200.811,265.929 200.107,265.927 200.000 C 265.908 198.957,266.076 198.429,266.370 198.610 C 266.565 198.731,266.633 198.479,266.521 198.052 C 266.409 197.624,266.164 197.369,265.976 197.486 C 265.788 197.602,265.744 197.409,265.879 197.058 C 266.071 196.558,266.193 196.529,266.439 196.929 C 266.934 197.729,267.014 197.238,266.765 194.922 C 266.638 193.740,266.505 193.071,266.470 193.434 C 266.435 193.797,266.212 194.215,265.974 194.362 C 265.680 194.543,265.624 194.331,265.797 193.701 C 266.028 192.865,266.008 192.846,265.594 193.511 C 265.342 193.917,264.921 195.059,264.658 196.050 C 264.396 197.041,264.048 198.269,263.885 198.779 C 263.654 199.501,263.706 199.639,264.118 199.400 C 264.430 199.220,264.515 199.240,264.323 199.449 C 264.144 199.645,263.836 199.827,263.639 199.854 C 263.442 199.880,263.095 199.924,262.868 199.951 C 262.640 199.978,262.546 200.149,262.658 200.331 C 262.887 200.700,261.311 202.272,259.668 203.315 C 259.077 203.689,258.591 203.844,258.588 203.658 C 258.584 203.472,258.432 203.557,258.248 203.847 C 258.065 204.136,257.452 204.400,256.887 204.433 C 256.322 204.465,255.860 204.624,255.860 204.785 C 255.859 204.946,248.301 205.078,239.063 205.078 C 229.824 205.078,222.266 204.946,222.266 204.785 C 222.266 204.624,221.738 204.492,221.094 204.492 C 220.449 204.492,219.922 204.663,219.922 204.872 C 219.922 205.081,219.641 204.851,219.298 204.361 C 218.704 203.513,218.648 203.504,218.138 204.177 C 217.703 204.751,217.590 204.774,217.531 204.297 C 217.491 203.975,217.437 203.535,217.411 203.320 C 217.310 202.513,216.699 201.907,216.184 202.105 C 215.661 202.306,215.091 201.750,215.027 200.977 C 215.010 200.762,214.504 199.565,213.904 198.317 C 213.073 196.589,212.866 195.704,213.038 194.606 C 213.191 193.625,213.156 193.414,212.928 193.945 C 212.613 194.679,212.581 194.667,212.405 193.750 C 212.302 193.213,212.293 193.531,212.386 194.458 M214.224 193.262 C 214.375 193.530,214.307 193.750,214.072 193.750 C 213.780 193.750,213.799 194.029,214.132 194.629 C 214.400 195.112,214.577 195.653,214.526 195.830 C 214.475 196.007,214.590 196.055,214.781 195.937 C 215.258 195.643,215.010 193.752,214.425 193.213 C 214.067 192.883,214.017 192.895,214.224 193.262 M180.546 193.652 C 180.721 194.313,179.993 195.697,179.599 195.453 C 179.355 195.303,179.288 195.373,179.440 195.619 C 179.586 195.855,179.143 196.687,178.456 197.470 C 177.093 199.022,177.468 200.006,179.081 199.108 C 179.522 198.862,180.015 198.654,180.176 198.647 C 180.337 198.639,180.481 198.457,180.497 198.242 C 180.512 198.027,180.803 197.544,181.143 197.168 C 181.925 196.304,181.524 196.266,180.667 197.123 C 180.190 197.600,179.915 197.650,179.584 197.319 C 179.253 196.988,179.260 196.875,179.609 196.875 C 179.867 196.875,180.034 196.663,179.980 196.404 C 179.927 196.146,180.094 195.926,180.352 195.916 C 180.609 195.906,181.049 195.643,181.328 195.331 C 181.772 194.836,181.741 194.836,181.079 195.331 C 180.270 195.938,180.269 195.989,181.096 193.945 C 181.227 193.623,181.139 193.359,180.901 193.359 C 180.663 193.359,180.504 193.491,180.546 193.652 M262.122 194.509 C 261.863 194.992,261.420 195.210,260.901 195.110 C 260.241 194.983,260.172 195.057,260.541 195.500 C 260.790 195.801,261.276 195.939,261.620 195.807 C 262.104 195.622,262.185 195.737,261.980 196.319 C 261.784 196.876,261.958 196.799,262.653 196.021 C 263.169 195.444,263.740 195.092,263.921 195.240 C 264.101 195.387,263.916 195.112,263.510 194.629 C 262.613 193.564,262.626 193.565,262.122 194.509 M182.609 194.931 C 182.041 195.558,181.993 195.821,182.376 196.201 C 182.758 196.580,182.805 196.537,182.599 195.996 C 182.455 195.620,182.514 195.313,182.729 195.313 C 182.944 195.313,183.221 195.049,183.344 194.727 C 183.647 193.937,183.461 193.989,182.609 194.931 M263.027 195.130 C 262.779 195.777,262.109 195.910,262.109 195.313 C 262.109 195.098,262.296 194.922,262.523 194.922 C 262.751 194.922,262.811 194.719,262.658 194.471 C 262.489 194.198,262.550 194.126,262.813 194.288 C 263.052 194.436,263.148 194.814,263.027 195.130 M164.879 194.905 C 160.304 195.090,159.726 195.187,160.306 195.667 C 160.809 196.084,161.080 196.107,161.423 195.765 C 161.997 195.191,169.299 195.131,168.945 195.703 C 168.813 195.918,168.848 196.094,169.024 196.094 C 169.199 196.094,169.563 195.742,169.831 195.313 C 170.100 194.883,170.274 194.567,170.218 194.612 C 170.163 194.656,167.760 194.788,164.879 194.905 M245.959 194.823 C 241.944 194.931,241.395 195.023,241.807 195.521 C 242.069 195.836,242.513 196.094,242.795 196.094 C 243.157 196.094,243.261 196.549,243.151 197.656 C 243.061 198.564,243.163 199.219,243.396 199.219 C 243.616 199.219,243.708 199.076,243.601 198.903 C 243.493 198.729,244.493 198.715,245.822 198.871 C 247.152 199.028,248.325 199.071,248.430 198.966 C 248.754 198.641,249.541 195.699,249.256 195.876 C 249.107 195.967,248.731 195.881,248.419 195.683 C 248.005 195.421,248.188 195.323,249.098 195.318 C 249.784 195.315,250.453 195.137,250.586 194.922 C 250.719 194.707,250.773 194.569,250.707 194.615 C 250.640 194.661,248.504 194.755,245.959 194.823 M162.255 197.363 L 162.305 199.023 165.011 199.023 C 167.653 199.023,167.724 198.997,168.013 197.916 C 168.532 195.976,168.166 195.703,165.045 195.703 L 162.205 195.703 162.255 197.363 M186.380 196.998 C 186.351 197.818,186.138 198.844,185.906 199.278 C 185.263 200.478,185.673 200.491,186.342 199.291 C 186.727 198.602,186.842 197.774,186.679 196.875 L 186.431 195.508 186.380 196.998 M215.356 196.365 C 215.684 196.896,218.750 199.370,218.750 199.103 C 218.750 199.004,217.923 198.245,216.913 197.417 C 215.902 196.589,215.202 196.115,215.356 196.365 M126.284 198.242 C 126.287 199.316,126.362 199.709,126.452 199.116 C 126.542 198.522,126.540 197.643,126.447 197.163 C 126.354 196.682,126.281 197.168,126.284 198.242 M217.809 196.818 C 217.695 197.002,218.031 197.555,218.555 198.047 C 219.079 198.539,219.422 199.080,219.318 199.249 C 219.213 199.417,219.294 199.658,219.498 199.784 C 220.429 200.359,220.166 199.224,219.141 198.242 C 218.511 197.639,218.089 196.997,218.201 196.815 C 218.313 196.633,218.318 196.484,218.210 196.484 C 218.103 196.484,217.922 196.635,217.809 196.818 M184.609 198.680 C 184.267 198.978,184.162 199.010,184.376 198.751 C 184.590 198.493,184.786 197.921,184.811 197.480 C 184.852 196.759,184.875 196.752,185.044 197.409 C 185.147 197.811,184.951 198.383,184.609 198.680 M179.436 197.846 C 179.720 198.585,178.303 199.433,177.893 198.769 C 177.731 198.506,177.784 198.422,178.020 198.568 C 178.244 198.706,178.518 198.470,178.630 198.042 C 178.872 197.118,179.132 197.054,179.436 197.846 M134.518 199.881 C 135.219 200.715,135.219 200.737,134.514 200.684 C 134.045 200.649,133.768 200.302,133.731 199.704 C 133.699 199.194,133.701 198.833,133.735 198.900 C 133.769 198.968,134.122 199.409,134.518 199.881 M175.820 199.763 C 175.195 200.429,175.075 200.782,175.405 200.985 C 175.660 201.143,176.005 201.051,176.172 200.781 C 176.339 200.511,176.688 200.422,176.948 200.583 C 177.308 200.805,177.322 200.689,177.006 200.099 C 176.777 199.671,176.701 199.210,176.837 199.075 C 176.972 198.939,176.997 198.828,176.891 198.828 C 176.785 198.828,176.303 199.249,175.820 199.763 M167.480 205.761 C 163.667 205.825,157.427 205.825,153.613 205.761 C 149.800 205.697,152.920 205.645,160.547 205.645 C 168.174 205.645,171.294 205.697,167.480 205.761 M243.678 205.761 C 239.878 205.825,233.550 205.825,229.615 205.761 C 225.680 205.697,228.789 205.645,236.523 205.645 C 244.258 205.645,247.477 205.697,243.678 205.761 M152.660 213.183 C 155.735 213.249,160.657 213.249,163.598 213.182 C 166.539 213.116,164.023 213.062,158.008 213.062 C 151.992 213.063,149.586 213.117,152.660 213.183 M231.567 213.183 C 234.641 213.249,239.563 213.249,242.504 213.182 C 245.445 213.116,242.930 213.062,236.914 213.062 C 230.898 213.063,228.492 213.117,231.567 213.183 M135.579 224.358 C 135.669 224.435,136.357 224.610,137.109 224.748 C 138.071 224.925,138.303 224.885,137.891 224.615 C 137.361 224.268,135.192 224.027,135.579 224.358 M260.297 224.518 C 259.971 224.728,259.986 224.928,260.353 225.269 C 260.741 225.629,261.016 225.607,261.579 225.170 C 262.282 224.625,262.281 224.616,261.557 224.870 C 261.040 225.052,260.897 224.992,261.092 224.676 C 261.408 224.165,260.977 224.079,260.297 224.518 M140.234 224.948 C 140.234 225.160,139.927 225.395,139.551 225.471 C 138.985 225.585,138.968 225.649,139.455 225.842 C 140.147 226.115,141.211 225.167,140.621 224.802 C 140.408 224.671,140.234 224.737,140.234 224.948 M255.479 225.037 C 254.948 225.253,253.885 225.324,253.116 225.194 C 251.830 224.977,251.719 225.034,251.719 225.913 C 251.719 226.537,251.895 226.801,252.227 226.674 C 252.506 226.567,252.734 226.322,252.734 226.130 C 252.734 225.938,253.174 225.781,253.711 225.781 C 254.248 225.781,254.688 225.984,254.688 226.232 C 254.688 226.491,255.015 226.387,255.455 225.989 C 255.941 225.549,256.592 225.365,257.228 225.487 C 257.866 225.608,258.181 225.519,258.090 225.242 C 257.897 224.653,256.661 224.556,255.479 225.037 M142.871 225.280 C 141.687 225.459,141.462 225.960,142.403 226.321 C 142.751 226.454,142.908 226.389,142.771 226.167 C 142.639 225.955,142.894 225.781,143.336 225.781 C 143.779 225.781,144.141 225.605,144.141 225.391 C 144.141 225.176,144.097 225.026,144.043 225.059 C 143.989 225.091,143.462 225.190,142.871 225.280 M146.289 225.689 C 144.851 225.943,144.480 226.163,144.751 226.601 C 144.942 226.911,145.109 226.892,145.328 226.537 C 145.570 226.145,145.863 226.187,146.694 226.732 C 147.276 227.113,147.633 227.231,147.486 226.994 C 147.067 226.315,148.416 226.485,149.132 227.201 C 149.550 227.619,149.821 227.686,149.917 227.396 C 150.134 226.747,150.814 226.856,151.423 227.637 C 151.864 228.204,151.918 228.212,151.736 227.687 C 151.559 227.175,151.729 227.090,152.614 227.243 C 153.639 227.422,153.663 227.397,152.975 226.867 C 152.569 226.555,151.843 226.376,151.360 226.468 C 150.877 226.561,150.363 226.444,150.218 226.209 C 150.073 225.974,149.778 225.781,149.563 225.781 C 149.348 225.781,149.286 225.964,149.424 226.188 C 149.695 226.627,147.620 226.255,147.266 225.801 C 147.158 225.663,146.719 225.613,146.289 225.689 M247.168 226.005 C 246.577 226.325,246.094 226.728,246.094 226.900 C 246.094 227.586,246.618 227.665,247.470 227.107 C 248.077 226.709,248.448 226.654,248.624 226.938 C 248.797 227.219,249.259 227.134,250.027 226.680 C 251.367 225.888,251.499 225.391,250.368 225.391 C 249.925 225.391,249.672 225.566,249.805 225.781 C 249.937 225.996,249.674 226.172,249.219 226.172 C 248.764 226.172,248.500 225.996,248.633 225.781 C 248.969 225.237,248.432 225.319,247.168 226.005 M244.405 226.056 C 243.986 226.164,243.780 226.468,243.904 226.792 C 244.151 227.435,242.768 227.576,242.379 226.947 C 242.037 226.394,241.396 226.863,241.637 227.490 C 241.754 227.795,242.359 227.971,243.130 227.924 C 244.685 227.829,245.417 227.437,245.074 226.882 C 244.935 226.658,245.064 226.322,245.360 226.134 C 245.926 225.776,245.595 225.748,244.405 226.056 M154.492 227.568 C 154.492 228.084,154.676 228.578,154.901 228.664 C 155.472 228.883,155.517 227.480,154.954 227.012 C 154.620 226.735,154.492 226.889,154.492 227.568 M239.875 227.110 C 239.526 227.531,239.538 227.705,239.925 227.861 C 240.203 227.972,240.034 228.077,239.551 228.094 C 238.988 228.114,238.672 227.897,238.672 227.491 C 238.672 227.030,238.539 226.967,238.184 227.260 C 237.915 227.481,237.080 227.722,236.328 227.796 C 235.576 227.869,234.864 228.059,234.746 228.217 C 234.628 228.375,233.898 228.550,233.124 228.607 C 232.350 228.664,231.804 228.853,231.911 229.027 C 232.018 229.200,232.660 229.240,233.338 229.115 L 234.570 228.887 233.412 229.408 C 232.434 229.848,232.361 229.971,232.944 230.195 C 233.406 230.372,233.544 230.313,233.361 230.017 C 233.173 229.714,233.413 229.637,234.122 229.772 C 234.691 229.881,235.156 229.798,235.156 229.588 C 235.156 229.378,235.499 229.295,235.919 229.405 C 236.338 229.515,236.734 229.451,236.798 229.263 C 236.862 229.075,237.635 228.856,238.516 228.777 C 240.543 228.596,241.194 228.225,240.647 227.566 C 240.424 227.297,240.357 226.961,240.498 226.820 C 240.640 226.678,240.660 226.563,240.543 226.563 C 240.426 226.563,240.125 226.809,239.875 227.110 M156.250 227.296 C 156.250 228.296,157.042 229.268,157.663 229.030 C 158.003 228.899,158.457 229.038,158.670 229.338 C 158.969 229.758,159.005 229.719,158.826 229.167 C 158.698 228.774,158.591 228.246,158.588 227.995 C 158.584 227.700,158.464 227.725,158.248 228.066 C 157.984 228.482,157.741 228.406,157.082 227.699 C 156.624 227.208,156.250 227.026,156.250 227.296 M159.863 229.004 C 160.385 230.110,162.082 230.253,161.798 229.166 C 161.651 228.605,161.536 228.563,161.267 228.971 C 160.991 229.389,160.843 229.356,160.520 228.809 C 159.931 227.808,159.377 227.973,159.863 229.004 M162.671 229.524 C 163.011 229.863,163.188 230.304,163.065 230.503 C 162.942 230.702,163.278 230.666,163.811 230.423 C 164.481 230.118,164.704 229.784,164.531 229.346 C 164.308 228.779,164.266 228.784,164.143 229.395 C 163.974 230.233,163.444 230.284,163.140 229.492 C 163.016 229.170,162.721 228.906,162.484 228.906 C 162.247 228.906,162.331 229.184,162.671 229.524 M165.426 229.694 C 165.293 229.908,165.467 230.192,165.812 230.324 C 166.653 230.647,166.839 230.385,166.192 229.789 C 165.858 229.481,165.579 229.447,165.426 229.694 M125.000 234.819 C 125.000 235.035,124.743 235.469,124.430 235.782 C 123.638 236.574,123.794 262.500,124.590 262.500 C 124.723 262.500,125.177 263.071,125.599 263.770 L 126.367 265.039 126.587 262.891 C 126.709 261.709,126.747 255.425,126.673 248.926 L 126.539 237.109 127.820 237.103 C 128.791 237.099,128.960 237.006,128.516 236.719 C 127.788 236.248,128.330 236.207,129.225 236.665 C 130.286 237.207,132.341 237.601,131.641 237.127 C 131.137 236.787,131.151 236.730,131.738 236.725 C 132.114 236.721,132.422 236.914,132.422 237.152 C 132.422 237.424,132.820 237.492,133.496 237.335 C 134.138 237.186,134.370 237.220,134.073 237.419 C 133.403 237.869,138.114 238.702,139.609 238.398 C 140.344 238.249,140.653 238.311,140.490 238.574 C 140.115 239.180,141.328 239.503,142.882 239.212 C 143.791 239.041,144.169 239.091,144.002 239.361 C 143.863 239.586,144.280 239.952,144.936 240.181 C 145.638 240.426,146.026 240.441,145.889 240.219 C 145.761 240.012,145.829 239.844,146.038 239.844 C 146.248 239.844,146.478 240.019,146.549 240.234 C 146.621 240.448,147.254 240.788,147.957 240.990 C 148.749 241.217,149.148 241.217,149.008 240.991 C 148.884 240.789,148.968 240.625,149.196 240.625 C 149.423 240.625,149.609 240.820,149.609 241.057 C 149.609 241.295,149.882 241.385,150.216 241.257 C 150.549 241.129,150.731 241.172,150.619 241.353 C 150.304 241.863,153.361 242.632,154.535 242.337 C 155.197 242.171,155.496 242.218,155.344 242.464 C 155.211 242.679,155.548 243.057,156.092 243.305 C 156.874 243.662,157.021 243.653,156.794 243.265 C 156.636 242.994,156.886 243.106,157.349 243.513 C 157.813 243.919,158.720 244.271,159.364 244.294 C 160.009 244.317,160.636 244.595,160.758 244.911 C 160.953 245.417,161.023 245.417,161.343 244.911 C 161.611 244.487,161.708 244.470,161.713 244.847 C 161.716 245.129,161.876 245.261,162.068 245.142 C 162.261 245.024,162.534 245.228,162.675 245.597 C 162.896 246.171,162.985 246.185,163.296 245.692 C 163.564 245.268,163.661 245.251,163.666 245.629 C 163.669 245.910,163.848 246.031,164.063 245.898 C 164.277 245.766,164.453 245.852,164.453 246.090 C 164.453 246.639,166.784 247.637,167.460 247.377 C 167.740 247.270,167.969 247.374,167.969 247.609 C 167.969 248.028,172.355 250.442,172.943 250.347 C 173.750 250.216,174.238 250.435,173.999 250.820 C 173.821 251.109,174.015 251.099,174.596 250.789 C 175.070 250.535,175.560 250.429,175.684 250.554 C 175.809 250.679,175.760 250.781,175.575 250.781 C 175.390 250.781,175.810 251.203,176.508 251.718 C 177.207 252.233,177.591 252.717,177.362 252.793 C 177.133 252.870,177.317 253.164,177.771 253.448 C 178.226 253.732,178.492 253.794,178.363 253.585 C 177.989 252.980,179.195 252.726,179.678 253.309 C 180.004 253.701,179.996 253.911,179.646 254.127 C 179.359 254.305,179.278 254.253,179.438 253.994 C 179.582 253.760,179.522 253.459,179.303 253.324 C 178.630 252.908,178.865 254.168,179.567 254.737 C 180.128 255.192,180.179 255.192,179.903 254.734 C 179.678 254.360,179.744 254.256,180.121 254.393 C 180.420 254.501,180.627 254.767,180.582 254.983 C 180.536 255.200,180.796 255.354,181.158 255.325 C 181.521 255.297,181.821 255.493,181.827 255.762 C 181.832 256.030,181.968 256.250,182.129 256.250 C 182.290 256.250,182.531 256.250,182.665 256.250 C 182.799 256.250,182.689 255.986,182.422 255.664 C 181.957 255.104,182.163 254.894,183.008 255.064 C 183.223 255.108,183.252 254.997,183.073 254.818 C 182.894 254.639,182.630 254.491,182.487 254.489 C 181.906 254.483,180.494 253.230,180.764 252.960 C 180.924 252.800,180.879 252.721,180.664 252.785 C 180.449 252.848,179.885 252.685,179.410 252.421 C 178.936 252.158,178.408 251.966,178.238 251.994 C 177.131 252.179,176.849 251.918,177.562 251.366 C 178.297 250.797,178.298 250.787,177.573 251.042 C 177.048 251.226,176.911 251.165,177.113 250.838 C 177.272 250.581,177.257 250.396,177.080 250.427 C 176.292 250.564,175.755 250.359,175.974 250.004 C 176.116 249.775,175.940 249.723,175.542 249.876 C 175.051 250.064,174.957 249.994,175.192 249.615 C 175.406 249.269,175.361 249.191,175.054 249.381 C 174.802 249.536,174.715 249.854,174.859 250.087 C 175.020 250.349,174.938 250.398,174.643 250.216 C 174.380 250.054,174.261 249.671,174.379 249.366 C 174.546 248.931,174.433 248.895,173.860 249.202 C 173.321 249.490,173.003 249.441,172.649 249.015 C 172.386 248.697,171.928 248.438,171.632 248.438 C 171.336 248.438,171.094 248.290,171.094 248.110 C 171.094 247.929,170.644 247.577,170.095 247.327 C 169.546 247.076,169.204 246.699,169.334 246.487 C 169.470 246.268,169.312 246.202,168.968 246.334 C 168.636 246.462,168.464 246.768,168.586 247.014 C 168.708 247.260,168.531 247.120,168.193 246.703 C 167.855 246.286,167.578 246.078,167.578 246.242 C 167.578 246.406,167.292 246.254,166.942 245.904 C 166.592 245.554,166.065 245.360,165.770 245.473 C 165.475 245.586,165.234 245.523,165.234 245.333 C 165.234 245.142,164.447 244.686,163.484 244.318 C 162.522 243.951,161.819 243.513,161.922 243.346 C 162.026 243.178,161.731 243.141,161.268 243.262 C 160.727 243.403,160.517 243.333,160.682 243.067 C 160.845 242.802,160.619 242.721,160.059 242.844 C 159.341 243.001,159.287 242.957,159.766 242.600 C 160.224 242.259,160.105 242.221,159.219 242.428 C 158.312 242.639,158.152 242.584,158.415 242.147 C 158.670 241.723,158.618 241.694,158.180 242.016 C 157.291 242.671,155.588 242.161,156.069 241.384 C 156.191 241.186,156.025 241.126,155.700 241.251 C 154.949 241.539,152.268 240.672,152.542 240.230 C 152.655 240.047,152.541 239.771,152.290 239.615 C 152.004 239.439,151.937 239.502,152.111 239.783 C 152.288 240.070,152.088 240.234,151.563 240.234 C 151.107 240.234,150.834 240.075,150.954 239.880 C 151.074 239.685,150.794 239.625,150.330 239.746 C 149.780 239.890,149.578 239.819,149.750 239.542 C 149.894 239.308,149.807 238.989,149.555 238.834 C 149.270 238.657,149.203 238.720,149.377 239.002 C 149.557 239.294,149.337 239.451,148.754 239.447 C 148.028 239.442,147.966 239.367,148.438 239.063 C 149.203 238.568,148.754 238.571,147.442 239.070 C 146.575 239.399,146.433 239.368,146.618 238.887 C 146.741 238.568,146.646 238.186,146.407 238.038 C 146.144 237.876,146.083 237.948,146.252 238.221 C 146.423 238.499,146.259 238.670,145.824 238.667 C 144.631 238.658,143.357 238.210,143.565 237.873 C 143.674 237.698,143.557 237.427,143.305 237.271 C 143.020 237.095,142.953 237.158,143.127 237.440 C 143.312 237.740,143.039 237.889,142.308 237.885 C 141.441 237.880,141.334 237.796,141.797 237.482 C 142.232 237.188,142.106 237.150,141.309 237.335 C 140.624 237.494,140.234 237.425,140.234 237.144 C 140.234 236.863,139.861 236.798,139.200 236.964 C 138.525 237.133,138.252 237.082,138.416 236.817 C 138.554 236.593,138.410 236.311,138.096 236.191 C 137.782 236.070,137.414 236.151,137.278 236.371 C 137.125 236.619,136.751 236.516,136.289 236.098 C 135.855 235.705,135.547 235.613,135.547 235.877 C 135.547 236.444,134.489 236.474,134.302 235.913 C 134.226 235.685,133.728 235.442,133.195 235.373 C 132.662 235.304,131.919 235.121,131.543 234.965 C 131.167 234.809,130.859 234.847,130.859 235.049 C 130.859 235.251,130.603 235.417,130.291 235.417 C 129.978 235.417,129.812 235.270,129.923 235.091 C 130.118 234.776,129.114 234.574,128.320 234.769 C 127.750 234.909,127.277 234.882,126.074 234.642 C 125.472 234.521,125.000 234.599,125.000 234.819 M268.257 234.645 C 267.878 234.744,267.669 234.987,267.792 235.186 C 267.914 235.384,267.345 235.544,266.527 235.541 C 265.360 235.536,265.165 235.444,265.625 235.113 C 266.112 234.763,266.090 234.731,265.495 234.924 C 265.102 235.052,264.696 235.156,264.593 235.156 C 264.491 235.156,264.516 235.332,264.648 235.547 C 264.786 235.769,264.449 235.938,263.867 235.938 C 263.293 235.938,262.949 235.768,263.083 235.551 C 263.220 235.330,263.064 235.264,262.718 235.397 C 262.386 235.524,262.228 235.813,262.367 236.038 C 262.536 236.311,262.056 236.371,260.920 236.219 C 259.724 236.059,259.388 236.107,259.786 236.383 C 260.203 236.671,260.023 236.734,259.103 236.622 C 258.416 236.538,257.943 236.613,258.051 236.789 C 258.160 236.965,257.789 237.109,257.227 237.109 C 256.652 237.109,256.309 236.940,256.443 236.723 C 256.579 236.502,256.423 236.436,256.077 236.569 C 255.745 236.696,255.570 236.958,255.689 237.150 C 255.808 237.343,255.621 237.500,255.273 237.500 C 254.926 237.500,254.749 237.326,254.880 237.114 C 255.017 236.893,254.861 236.827,254.515 236.959 C 254.183 237.087,254.008 237.349,254.127 237.541 C 254.246 237.733,253.971 237.891,253.516 237.891 C 252.982 237.891,252.776 237.717,252.936 237.402 C 253.072 237.134,252.940 237.210,252.642 237.571 C 252.271 238.022,251.642 238.192,250.635 238.112 C 249.778 238.044,248.950 238.215,248.640 238.526 C 248.228 238.938,248.065 238.948,247.907 238.571 C 247.766 238.232,247.517 238.320,247.079 238.865 C 246.550 239.525,246.399 239.557,246.099 239.072 C 245.797 238.583,245.707 238.597,245.487 239.171 C 245.345 239.541,245.062 239.844,244.857 239.844 C 244.652 239.844,244.593 239.670,244.724 239.458 C 244.860 239.236,244.704 239.171,244.358 239.303 C 244.026 239.431,243.852 239.692,243.971 239.885 C 244.089 240.077,243.902 240.234,243.555 240.234 C 243.176 240.234,243.035 240.053,243.201 239.783 C 243.375 239.502,243.308 239.439,243.023 239.615 C 242.771 239.771,242.682 240.105,242.824 240.359 C 243.023 240.712,242.967 240.713,242.588 240.363 C 242.039 239.855,240.894 240.112,241.236 240.666 C 241.355 240.858,241.281 241.016,241.071 241.016 C 240.862 241.016,240.608 240.796,240.507 240.527 C 240.399 240.239,240.155 240.439,239.913 241.016 C 239.560 241.856,239.498 241.883,239.472 241.211 C 239.448 240.611,239.362 240.555,239.100 240.968 C 238.913 241.264,238.576 241.393,238.352 241.255 C 238.128 241.116,237.832 241.184,237.695 241.406 C 237.558 241.628,237.295 241.716,237.109 241.602 C 236.924 241.487,236.661 241.575,236.523 241.797 C 236.386 242.019,236.099 242.092,235.884 241.959 C 235.670 241.827,235.389 242.122,235.260 242.616 C 235.039 243.461,235.008 243.469,234.727 242.753 C 234.476 242.110,234.426 242.096,234.402 242.664 C 234.386 243.073,234.162 243.253,233.829 243.125 C 233.528 243.010,233.164 243.106,233.020 243.339 C 232.876 243.572,232.595 243.662,232.395 243.538 C 232.195 243.414,232.031 243.499,232.031 243.727 C 232.031 243.954,231.845 244.141,231.618 244.141 C 231.390 244.141,231.315 243.921,231.451 243.652 C 231.587 243.384,231.466 243.445,231.181 243.788 C 230.897 244.131,230.346 244.364,229.956 244.307 C 229.567 244.250,229.153 244.451,229.036 244.755 C 228.920 245.059,228.667 245.211,228.475 245.092 C 228.158 244.896,227.961 245.443,228.079 246.191 C 228.168 246.758,227.378 246.476,226.984 245.801 C 226.611 245.160,226.586 245.163,226.574 245.843 C 226.566 246.336,226.368 246.493,225.956 246.335 C 225.576 246.190,225.449 246.262,225.615 246.531 C 225.793 246.820,225.594 246.868,225.000 246.680 C 224.448 246.505,224.211 246.546,224.363 246.792 C 224.496 247.008,224.333 247.288,224.001 247.416 C 223.591 247.573,223.490 247.492,223.688 247.163 C 223.918 246.780,223.853 246.781,223.379 247.165 C 223.049 247.431,222.664 247.534,222.523 247.392 C 222.381 247.251,222.266 247.340,222.266 247.591 C 222.266 247.842,222.134 248.026,221.973 248.001 C 221.214 247.881,220.679 248.082,220.882 248.411 C 221.005 248.611,220.928 248.885,220.709 249.019 C 220.491 249.154,220.313 249.066,220.313 248.823 C 220.313 248.574,220.038 248.656,219.680 249.014 C 219.332 249.362,219.112 249.682,219.192 249.726 C 219.271 249.769,219.688 250.000,220.117 250.239 C 220.942 250.698,222.656 250.213,222.656 249.520 C 222.656 249.326,222.261 249.274,221.777 249.406 C 220.999 249.619,220.979 249.596,221.602 249.207 C 222.130 248.877,222.448 248.884,222.872 249.236 C 223.303 249.593,223.438 249.595,223.438 249.244 C 223.438 248.990,223.613 248.891,223.828 249.023 C 224.043 249.156,224.219 249.122,224.219 248.947 C 224.219 248.638,226.649 247.660,227.637 247.570 C 227.905 247.546,228.125 247.399,228.125 247.243 C 228.125 247.014,229.085 246.631,230.469 246.307 C 230.576 246.282,231.060 246.042,231.543 245.773 C 232.026 245.505,232.422 245.401,232.422 245.542 C 232.422 245.683,232.686 245.580,233.008 245.313 C 233.330 245.045,233.599 244.980,233.606 245.167 C 233.612 245.354,233.799 245.196,234.020 244.816 C 234.242 244.436,234.588 244.226,234.790 244.351 C 234.991 244.475,235.156 244.381,235.156 244.141 C 235.156 243.900,235.340 243.817,235.564 243.956 C 235.788 244.094,236.184 244.041,236.443 243.837 C 236.702 243.633,237.302 243.500,237.777 243.542 C 238.251 243.583,238.737 243.364,238.855 243.054 C 239.012 242.646,238.882 242.563,238.383 242.753 C 237.815 242.969,237.785 242.926,238.210 242.504 C 238.634 242.082,238.816 242.116,239.247 242.699 C 239.582 243.154,239.861 243.256,240.029 242.986 C 240.171 242.755,240.432 242.654,240.608 242.763 C 240.783 242.871,241.136 242.709,241.391 242.402 C 241.645 242.095,242.134 241.951,242.475 242.082 C 242.888 242.240,243.002 242.167,242.814 241.862 C 242.654 241.604,242.070 241.491,241.480 241.602 C 240.457 241.796,240.460 241.790,241.568 241.355 C 242.514 240.983,242.783 241.015,243.169 241.542 C 243.423 241.890,243.745 242.062,243.883 241.924 C 244.021 241.786,243.938 241.438,243.699 241.149 C 243.413 240.804,243.403 240.625,243.670 240.625 C 243.894 240.625,244.399 240.521,244.792 240.393 C 245.328 240.219,245.375 240.256,244.978 240.539 C 243.852 241.344,245.400 241.452,248.290 240.771 C 250.468 240.257,251.055 239.993,250.524 239.765 C 250.084 239.575,250.304 239.544,251.090 239.684 C 251.838 239.817,252.607 239.721,252.929 239.454 C 253.233 239.202,253.651 239.100,253.858 239.228 C 254.065 239.356,254.542 239.153,254.918 238.777 C 255.434 238.260,255.643 238.217,255.771 238.602 C 255.899 238.987,256.125 238.943,256.705 238.418 C 257.303 237.877,257.537 237.835,257.780 238.228 C 258.025 238.625,258.218 238.601,258.704 238.115 C 259.380 237.439,260.346 237.267,259.961 237.891 C 259.622 238.438,260.222 238.355,261.029 237.742 C 261.402 237.459,261.604 237.125,261.479 237.000 C 261.353 236.874,261.618 236.868,262.066 236.985 C 262.515 237.102,262.796 237.338,262.690 237.508 C 262.585 237.678,262.849 237.726,263.276 237.614 C 263.704 237.503,263.957 237.255,263.840 237.065 C 263.722 236.875,263.998 236.719,264.453 236.719 C 264.908 236.719,265.172 236.895,265.039 237.109 C 264.714 237.635,265.015 237.602,266.606 236.938 C 267.413 236.600,268.043 236.523,268.181 236.745 C 268.306 236.949,268.810 237.043,269.300 236.954 C 269.790 236.865,270.438 236.949,270.740 237.140 C 271.129 237.387,271.147 237.490,270.801 237.494 C 270.532 237.497,270.313 237.686,270.313 237.914 C 270.313 238.141,270.444 238.247,270.605 238.148 C 270.767 238.050,270.898 242.243,270.898 247.468 C 270.898 252.692,270.767 257.098,270.605 257.259 C 270.444 257.420,270.313 259.048,270.313 260.875 L 270.313 264.199 271.289 263.281 C 271.826 262.777,272.266 262.145,272.266 261.879 C 272.266 261.612,272.485 261.319,272.754 261.228 C 273.590 260.946,273.326 236.617,272.472 235.314 C 271.949 234.515,271.714 234.413,271.263 234.787 C 270.865 235.118,270.703 235.125,270.703 234.813 C 270.703 234.378,269.577 234.301,268.257 234.645 M153.125 240.069 C 153.125 240.333,155.154 241.070,155.348 240.876 C 155.436 240.788,154.972 240.528,154.317 240.300 C 153.661 240.071,153.125 239.967,153.125 240.069 M169.941 248.252 C 170.575 248.580,171.094 248.936,171.094 249.044 C 171.094 249.218,168.794 248.162,168.392 247.802 C 167.997 247.448,168.888 247.707,169.941 248.252 M218.033 250.319 C 217.767 250.681,217.654 250.757,217.782 250.488 C 218.124 249.771,217.660 249.893,216.721 250.768 C 216.268 251.190,215.748 251.443,215.566 251.331 C 215.384 251.218,215.234 251.312,215.234 251.539 C 215.234 251.767,215.527 251.953,215.885 251.953 C 216.243 251.953,216.407 252.083,216.248 252.241 C 215.831 252.659,214.696 252.603,214.361 252.148 C 214.100 251.793,213.893 252.744,214.022 253.711 C 214.050 253.926,213.784 253.750,213.430 253.320 C 212.902 252.681,212.828 252.663,213.021 253.223 C 213.151 253.599,213.086 253.928,212.878 253.955 C 212.670 253.982,212.356 254.026,212.179 254.053 C 212.003 254.080,211.527 254.432,211.123 254.837 C 210.403 255.556,210.408 255.566,211.346 255.305 C 212.221 255.061,212.245 255.086,211.621 255.589 C 211.245 255.893,210.938 256.284,210.938 256.459 C 210.938 256.634,211.377 256.364,211.914 255.859 C 212.451 255.355,212.896 255.104,212.903 255.303 C 212.909 255.502,213.096 255.353,213.317 254.972 C 213.539 254.592,213.885 254.382,214.087 254.507 C 214.438 254.724,214.627 254.142,214.471 253.320 C 214.430 253.104,214.599 253.128,214.849 253.373 C 215.380 253.894,216.776 253.620,216.843 252.982 C 216.869 252.738,216.861 252.275,216.827 251.953 C 216.786 251.571,216.872 251.516,217.074 251.796 C 217.459 252.332,218.750 252.352,218.750 251.823 C 218.750 251.608,218.859 251.541,218.992 251.674 C 219.125 251.807,219.497 251.652,219.820 251.330 C 220.635 250.515,220.070 250.111,219.025 250.761 C 218.254 251.241,218.217 251.233,218.671 250.683 C 218.950 250.346,219.030 249.978,218.848 249.865 C 218.667 249.753,218.300 249.957,218.033 250.319 M202.624 253.756 C 202.507 253.873,200.158 253.999,197.403 254.035 C 192.760 254.097,192.384 254.158,192.246 254.870 C 192.112 255.566,192.165 255.585,192.803 255.066 C 193.335 254.634,193.430 254.623,193.189 255.024 C 192.993 255.350,193.073 255.682,193.397 255.882 C 193.710 256.076,194.036 256.029,194.198 255.766 C 194.399 255.442,194.628 255.453,195.059 255.811 C 195.623 256.280,200.000 256.314,200.000 255.849 C 200.000 255.598,203.585 254.482,204.004 254.603 C 204.579 254.769,204.284 254.317,203.567 253.934 C 203.166 253.719,202.741 253.639,202.624 253.756 M120.434 258.789 C 120.436 260.078,120.509 260.558,120.596 259.856 C 120.683 259.154,120.681 258.100,120.592 257.513 C 120.502 256.926,120.431 257.500,120.434 258.789 M206.391 257.551 L 205.557 258.008 205.493 280.469 C 205.458 292.822,205.337 303.301,205.224 303.755 C 205.035 304.520,205.806 305.050,207.144 305.073 C 207.482 305.079,207.308 260.048,206.964 258.789 C 206.847 258.359,206.941 257.886,207.173 257.736 C 207.933 257.246,207.246 257.084,206.391 257.551 M186.172 258.140 C 185.983 258.446,185.869 301.519,186.051 304.102 C 186.147 305.475,186.525 305.719,187.321 304.923 C 187.898 304.345,188.186 261.002,187.628 258.691 C 187.418 257.824,186.566 257.502,186.172 258.140 M125.663 268.990 C 125.275 269.506,125.067 270.104,125.199 270.319 C 125.332 270.533,125.161 270.816,124.819 270.947 C 124.307 271.143,124.286 271.292,124.697 271.798 C 125.115 272.313,125.095 272.374,124.574 272.180 C 123.560 271.800,122.770 272.504,123.285 273.329 C 123.523 273.711,123.946 274.023,124.224 274.023 C 124.502 274.023,124.772 274.308,124.823 274.657 C 124.945 275.487,126.169 277.344,126.595 277.344 C 126.778 277.344,126.785 276.956,126.609 276.482 C 126.434 276.008,126.396 275.085,126.524 274.431 C 126.653 273.777,126.670 272.074,126.563 270.646 L 126.367 268.050 125.663 268.990 M270.321 271.821 L 270.313 275.868 271.124 274.946 C 271.570 274.438,271.806 274.270,271.649 274.572 C 271.461 274.933,271.518 275.025,271.815 274.842 C 272.063 274.689,272.266 274.323,272.266 274.028 C 272.266 273.734,272.558 273.201,272.915 272.844 C 273.306 272.453,273.411 272.092,273.179 271.937 C 272.968 271.796,272.677 271.361,272.533 270.971 C 272.389 270.582,272.096 270.371,271.882 270.503 C 271.668 270.636,271.576 270.515,271.677 270.235 C 271.778 269.955,271.517 269.287,271.096 268.750 L 270.330 267.773 270.321 271.821 M125.646 280.402 C 125.291 280.795,125.000 281.247,125.000 281.406 C 125.000 281.566,124.766 281.931,124.479 282.217 C 123.752 282.944,123.785 295.753,124.514 295.997 C 124.784 296.087,124.909 296.316,124.791 296.506 C 124.034 297.732,134.442 297.370,135.596 296.131 C 136.016 295.681,136.659 295.324,137.027 295.337 C 137.521 295.356,137.466 295.454,136.816 295.715 C 135.452 296.264,135.781 296.459,137.290 295.996 C 138.086 295.752,138.541 295.405,138.395 295.154 C 138.258 294.919,138.559 295.078,139.063 295.508 C 139.566 295.938,139.857 296.081,139.709 295.828 C 139.561 295.574,139.638 295.244,139.879 295.095 C 140.677 294.602,139.356 294.153,137.109 294.153 C 135.580 294.153,135.130 294.262,135.547 294.531 C 135.996 294.822,135.860 294.910,134.961 294.910 C 134.033 294.910,133.911 294.825,134.375 294.502 C 134.806 294.201,134.599 294.164,133.594 294.361 C 132.842 294.509,132.097 294.827,131.940 295.069 C 131.734 295.383,131.651 295.371,131.647 295.029 C 131.642 294.666,131.381 294.652,130.566 294.968 C 129.215 295.494,127.699 295.686,127.936 295.302 C 128.035 295.142,127.811 294.930,127.437 294.832 C 126.822 294.670,126.758 293.949,126.758 287.172 C 126.758 279.429,126.722 279.213,125.646 280.402 M270.313 281.273 C 270.313 281.970,270.475 282.367,270.703 282.227 C 270.954 282.072,271.072 283.217,271.032 285.426 C 270.978 288.451,270.939 288.631,270.703 286.914 C 270.513 285.526,270.435 286.317,270.435 289.648 C 270.435 292.980,270.513 293.771,270.703 292.383 L 270.971 290.430 271.032 292.198 C 271.114 294.537,270.291 295.720,268.630 295.652 L 267.383 295.600 268.750 295.313 C 270.087 295.031,268.281 294.795,264.551 294.765 C 264.067 294.761,263.672 294.619,263.672 294.449 C 263.672 293.992,258.275 294.075,257.396 294.545 C 256.981 294.767,256.641 294.792,256.641 294.599 C 256.641 294.407,256.201 294.333,255.664 294.436 C 255.127 294.538,254.688 294.778,254.688 294.967 C 254.688 295.157,254.501 295.313,254.274 295.313 C 254.046 295.313,253.987 295.107,254.143 294.855 C 254.335 294.544,254.208 294.482,253.743 294.660 C 253.368 294.804,252.977 294.922,252.875 294.922 C 252.772 294.922,252.797 295.098,252.930 295.313 C 253.062 295.527,252.799 295.703,252.344 295.703 C 251.889 295.703,251.609 295.553,251.723 295.369 C 251.837 295.185,251.456 295.125,250.878 295.236 C 249.918 295.419,249.893 295.466,250.597 295.771 C 251.223 296.042,251.166 296.077,250.293 295.958 C 249.702 295.877,249.219 295.963,249.219 296.148 C 249.219 296.333,249.033 296.484,248.805 296.484 C 248.578 296.484,248.499 296.311,248.630 296.098 C 248.767 295.877,248.610 295.811,248.262 295.945 C 247.929 296.073,247.656 296.334,247.656 296.526 C 247.656 296.718,247.470 296.875,247.243 296.875 C 247.015 296.875,246.938 296.699,247.070 296.484 C 247.438 295.890,247.007 296.018,246.317 296.708 C 245.979 297.045,245.703 297.150,245.703 296.939 C 245.703 296.729,245.354 296.649,244.926 296.761 C 244.499 296.872,244.227 297.090,244.322 297.243 C 244.417 297.397,244.108 297.491,243.634 297.452 C 242.460 297.356,241.751 297.657,242.043 298.130 C 242.193 298.372,241.969 298.421,241.455 298.258 C 240.896 298.080,240.623 298.163,240.619 298.509 C 240.614 298.923,240.547 298.920,240.277 298.493 C 240.039 298.118,239.862 298.091,239.670 298.402 C 239.521 298.643,239.234 298.739,239.033 298.614 C 238.831 298.490,238.565 298.652,238.441 298.974 C 238.318 299.296,237.998 299.476,237.730 299.373 C 237.463 299.271,236.730 299.397,236.103 299.653 C 235.475 299.910,234.785 300.163,234.570 300.217 C 234.355 300.270,233.652 300.533,233.008 300.802 C 232.363 301.072,231.639 301.334,231.397 301.385 C 230.874 301.497,228.456 302.534,226.593 303.447 C 225.858 303.807,225.155 304.112,225.031 304.124 C 224.691 304.159,216.241 308.366,216.016 308.613 C 215.378 309.312,213.349 310.484,213.140 310.275 C 212.882 310.017,212.855 310.102,212.695 311.694 C 212.611 312.532,212.657 312.567,213.077 311.993 C 213.339 311.634,213.668 311.455,213.808 311.595 C 213.948 311.735,214.063 311.634,214.063 311.370 C 214.063 311.107,214.238 311.000,214.453 311.133 C 214.668 311.266,214.846 311.144,214.850 310.863 C 214.854 310.491,214.959 310.512,215.234 310.938 C 215.548 311.424,215.615 311.390,215.625 310.742 C 215.635 310.094,215.702 310.061,216.016 310.547 C 216.330 311.033,216.396 311.000,216.406 310.352 C 216.416 309.704,216.483 309.670,216.797 310.156 C 217.111 310.642,217.178 310.609,217.188 309.961 C 217.197 309.313,217.264 309.280,217.578 309.766 C 217.831 310.156,217.959 310.189,217.963 309.863 C 217.966 309.595,218.101 309.396,218.262 309.421 C 219.281 309.582,219.694 309.332,219.040 308.951 C 218.662 308.731,218.152 308.676,217.905 308.828 C 217.620 309.005,217.565 308.932,217.753 308.627 C 217.915 308.365,218.306 308.249,218.622 308.370 C 218.939 308.492,219.580 308.387,220.048 308.138 C 220.817 307.728,220.847 307.747,220.362 308.334 C 219.570 309.294,220.147 309.124,221.136 308.105 C 221.606 307.622,221.855 307.464,221.690 307.754 C 221.448 308.180,221.549 308.196,222.218 307.838 C 222.674 307.594,223.047 307.302,223.047 307.190 C 223.047 307.077,222.844 307.111,222.596 307.264 C 222.311 307.440,222.251 307.371,222.433 307.076 C 222.592 306.819,223.044 306.711,223.438 306.836 C 223.831 306.961,224.268 306.877,224.408 306.650 C 224.549 306.423,224.827 306.338,225.027 306.462 C 225.227 306.586,225.391 306.490,225.391 306.250 C 225.391 306.010,225.548 305.911,225.740 306.029 C 225.933 306.148,226.195 305.972,226.323 305.637 C 226.452 305.302,226.734 305.138,226.950 305.272 C 227.167 305.405,227.344 305.318,227.344 305.078 C 227.344 304.838,227.520 304.750,227.734 304.883 C 227.949 305.016,228.128 304.894,228.131 304.613 C 228.135 304.241,228.240 304.262,228.516 304.688 C 228.831 305.175,228.900 305.142,228.931 304.492 C 228.951 304.063,229.054 303.924,229.160 304.185 C 229.288 304.499,229.574 304.542,230.008 304.311 C 230.631 303.981,231.363 303.722,232.227 303.527 C 232.441 303.478,232.969 303.245,233.398 303.008 C 233.828 302.771,234.506 302.523,234.905 302.457 C 236.006 302.273,237.083 301.594,236.328 301.559 C 236.006 301.544,236.344 301.271,237.080 300.951 C 237.816 300.632,238.607 300.449,238.838 300.545 C 239.069 300.641,238.921 300.733,238.509 300.750 C 238.097 300.767,237.855 300.876,237.971 300.992 C 238.332 301.353,243.040 299.877,243.247 299.339 C 243.355 299.058,243.610 298.828,243.815 298.828 C 244.019 298.828,244.082 298.997,243.955 299.203 C 243.818 299.425,244.206 299.410,244.908 299.165 C 245.560 298.938,246.094 298.593,246.094 298.399 C 246.094 298.205,246.280 298.047,246.507 298.047 C 246.735 298.047,246.814 298.221,246.682 298.433 C 246.546 298.654,246.702 298.720,247.048 298.587 C 247.380 298.460,247.555 298.198,247.436 298.006 C 247.317 297.814,247.391 297.656,247.601 297.656 C 247.810 297.656,248.048 297.856,248.129 298.099 C 248.225 298.386,248.512 298.307,248.943 297.876 C 249.310 297.510,249.609 297.386,249.609 297.601 C 249.609 298.060,251.750 297.530,252.539 296.875 C 252.909 296.568,253.091 296.578,253.202 296.911 C 253.307 297.226,253.555 297.170,253.993 296.732 C 254.716 296.010,255.659 295.861,255.242 296.535 C 255.075 296.805,255.180 296.900,255.512 296.779 C 255.810 296.671,256.017 296.403,255.971 296.183 C 255.880 295.753,258.530 295.118,258.894 295.483 C 259.015 295.604,258.744 295.703,258.291 295.703 C 257.838 295.703,257.366 295.868,257.242 296.069 C 257.102 296.295,257.492 296.298,258.266 296.076 C 258.953 295.879,259.657 295.494,259.830 295.222 C 260.015 294.930,260.147 294.901,260.150 295.152 C 260.154 295.386,260.604 295.782,261.151 296.031 C 262.532 296.660,262.901 296.574,261.719 295.898 C 260.541 295.225,260.903 295.136,262.275 295.761 C 262.930 296.059,263.425 296.080,263.758 295.823 C 264.045 295.601,264.674 295.569,265.234 295.747 L 266.211 296.057 265.234 296.017 C 264.697 295.995,263.935 296.116,263.541 296.285 C 262.463 296.749,263.523 297.265,265.430 297.204 L 266.992 297.155 265.430 296.875 L 263.867 296.595 265.723 296.540 C 266.801 296.508,267.578 296.657,267.578 296.897 C 267.578 297.493,271.926 297.195,272.161 296.584 C 272.264 296.317,272.476 296.177,272.632 296.274 C 272.789 296.371,272.927 295.886,272.939 295.198 C 272.951 294.509,272.999 291.744,273.046 289.053 C 273.132 284.089,272.824 282.569,271.364 280.762 C 270.575 279.784,270.313 279.911,270.313 281.273 M120.463 291.016 C 120.463 293.701,120.525 294.800,120.602 293.457 C 120.678 292.114,120.678 289.917,120.602 288.574 C 120.525 287.231,120.463 288.330,120.463 291.016 M140.810 294.548 C 140.683 294.754,140.741 294.922,140.939 294.922 C 141.138 294.922,141.793 295.405,142.397 295.996 C 143.001 296.587,143.366 296.851,143.208 296.582 C 142.771 295.834,143.780 295.997,144.419 296.777 C 144.728 297.153,144.869 297.241,144.732 296.973 C 144.573 296.658,144.779 296.484,145.313 296.484 C 145.768 296.484,146.043 296.642,145.924 296.834 C 145.805 297.026,145.979 297.288,146.312 297.416 C 146.657 297.548,146.814 297.482,146.677 297.261 C 146.546 297.049,146.723 296.875,147.070 296.875 C 147.418 296.875,147.594 297.051,147.461 297.266 C 147.328 297.480,147.275 297.656,147.343 297.656 C 147.411 297.656,148.040 297.821,148.741 298.022 C 149.532 298.249,149.929 298.249,149.789 298.022 C 149.665 297.821,149.848 297.656,150.195 297.656 C 150.543 297.656,150.726 297.820,150.603 298.020 C 150.479 298.220,150.584 298.511,150.835 298.666 C 151.121 298.843,151.188 298.780,151.014 298.498 C 150.847 298.228,150.989 298.047,151.367 298.047 C 151.715 298.047,151.902 298.204,151.783 298.397 C 151.664 298.589,151.839 298.851,152.171 298.978 C 152.517 299.111,152.673 299.045,152.536 298.824 C 152.405 298.611,152.582 298.438,152.930 298.438 C 153.300 298.438,153.449 298.620,153.289 298.879 C 153.122 299.149,153.227 299.244,153.559 299.125 C 153.857 299.018,154.439 299.215,154.852 299.563 C 155.265 299.911,155.475 299.976,155.318 299.707 C 154.921 299.030,155.401 299.096,156.124 299.818 C 156.487 300.182,157.033 300.319,157.512 300.167 C 158.090 299.983,158.219 300.049,157.993 300.415 C 157.774 300.768,157.871 300.842,158.324 300.669 C 158.714 300.519,159.115 300.683,159.353 301.090 C 159.575 301.471,159.747 301.548,159.754 301.270 C 159.760 301.001,159.952 300.781,160.179 300.781 C 160.407 300.781,160.486 300.955,160.354 301.167 C 160.217 301.389,160.374 301.454,160.722 301.321 C 161.056 301.193,161.328 301.293,161.328 301.544 C 161.328 301.794,161.505 301.890,161.722 301.756 C 162.271 301.416,163.732 301.930,163.462 302.367 C 163.340 302.564,163.513 302.621,163.847 302.493 C 164.260 302.334,164.455 302.492,164.459 302.986 C 164.464 303.597,164.525 303.619,164.844 303.125 C 165.083 302.754,165.225 302.714,165.228 303.015 C 165.232 303.298,165.498 303.390,165.884 303.242 C 166.303 303.081,166.440 303.146,166.269 303.422 C 166.122 303.659,166.209 303.979,166.460 304.135 C 166.746 304.311,166.813 304.248,166.639 303.967 C 166.486 303.719,166.546 303.516,166.774 303.516 C 167.001 303.516,167.188 303.686,167.188 303.894 C 167.188 304.102,167.480 304.160,167.838 304.023 C 168.272 303.856,168.395 303.924,168.208 304.226 C 168.019 304.531,168.147 304.595,168.598 304.421 C 169.034 304.254,169.176 304.315,169.003 304.594 C 168.857 304.831,168.943 305.151,169.195 305.307 C 169.501 305.496,169.547 305.419,169.332 305.072 C 169.097 304.692,169.193 304.624,169.694 304.816 C 170.070 304.960,170.450 305.078,170.540 305.078 C 170.630 305.078,170.706 305.386,170.709 305.762 C 170.714 306.346,170.770 306.360,171.094 305.859 C 171.409 305.372,171.479 305.405,171.509 306.055 C 171.529 306.484,171.633 306.620,171.740 306.357 C 171.878 306.017,172.606 306.217,174.248 307.046 C 175.521 307.689,176.563 308.092,176.563 307.943 C 176.563 307.794,177.062 308.231,177.672 308.914 C 178.282 309.597,178.941 310.154,179.136 310.150 C 179.332 310.147,179.229 309.974,178.906 309.766 C 177.933 309.136,179.027 309.357,180.078 310.002 C 180.799 310.444,180.850 310.542,180.273 310.378 C 179.504 310.158,179.503 310.163,180.250 310.741 C 180.844 311.201,181.076 311.222,181.319 310.840 C 181.556 310.467,181.630 310.482,181.635 310.905 C 181.638 311.209,181.756 311.343,181.898 311.201 C 182.039 311.060,182.391 311.140,182.679 311.379 C 183.089 311.720,183.203 311.637,183.203 310.998 C 183.203 310.439,183.021 310.251,182.629 310.401 C 181.980 310.650,179.959 309.234,180.372 308.820 C 180.520 308.673,180.309 308.680,179.904 308.835 C 179.353 309.046,179.249 308.988,179.488 308.600 C 179.685 308.283,179.656 308.176,179.415 308.326 C 179.198 308.459,178.688 308.310,178.280 307.994 C 177.559 307.435,177.560 307.426,178.320 307.658 C 179.400 307.986,177.045 306.505,174.229 305.083 C 171.991 303.953,170.651 303.506,171.875 304.297 C 172.211 304.514,172.266 304.678,172.005 304.682 C 171.194 304.692,170.311 304.224,170.516 303.892 C 170.626 303.715,170.510 303.442,170.259 303.287 C 169.973 303.110,169.906 303.174,170.080 303.455 C 170.464 304.077,170.464 304.077,166.768 302.515 C 164.958 301.750,163.125 300.980,162.695 300.804 C 160.034 299.715,159.876 299.616,161.133 299.824 C 162.232 300.006,162.247 299.993,161.369 299.610 C 160.855 299.386,160.086 299.313,159.660 299.448 C 159.113 299.621,158.972 299.554,159.180 299.219 C 159.393 298.874,159.232 298.821,158.594 299.023 C 157.979 299.218,157.798 299.168,157.992 298.854 C 158.188 298.537,157.957 298.484,157.201 298.674 C 156.481 298.855,156.218 298.805,156.393 298.521 C 156.536 298.290,156.475 297.990,156.256 297.856 C 156.038 297.721,155.859 297.895,155.859 298.242 C 155.859 298.590,155.681 298.764,155.462 298.629 C 155.244 298.494,155.159 298.232,155.273 298.047 C 155.388 297.862,155.303 297.600,155.084 297.465 C 154.866 297.330,154.688 297.406,154.688 297.633 C 154.688 297.861,154.501 298.047,154.274 298.047 C 154.046 298.047,153.961 297.883,154.085 297.683 C 154.208 297.483,154.131 297.209,153.913 297.074 C 153.694 296.939,153.510 297.059,153.504 297.340 C 153.497 297.635,153.312 297.543,153.067 297.121 C 152.724 296.530,152.577 296.493,152.298 296.926 C 152.008 297.376,151.896 297.372,151.594 296.902 C 151.396 296.595,151.001 296.298,150.715 296.242 C 150.429 296.185,149.756 296.027,149.219 295.890 C 148.682 295.753,147.979 295.631,147.656 295.619 C 147.334 295.606,146.822 295.401,146.519 295.162 C 146.108 294.838,145.925 294.849,145.806 295.205 C 145.686 295.561,145.404 295.525,144.701 295.065 C 143.839 294.500,143.737 294.501,143.517 295.075 C 143.248 295.775,142.522 295.948,142.676 295.275 C 142.804 294.711,141.115 294.054,140.810 294.548 M177.344 307.242 C 177.344 307.350,176.641 307.079,175.781 306.641 C 174.922 306.202,174.219 305.756,174.219 305.648 C 174.219 305.541,174.922 305.812,175.781 306.250 C 176.641 306.688,177.344 307.135,177.344 307.242 M194.922 306.904 C 193.207 307.134,192.448 307.783,193.770 307.890 C 196.958 308.149,202.614 307.962,202.478 307.603 C 202.394 307.381,202.021 307.181,201.650 307.159 C 201.280 307.137,199.922 307.030,198.633 306.920 C 197.344 306.811,195.674 306.803,194.922 306.904 M191.643 307.631 C 191.313 307.961,190.949 308.225,190.834 308.217 C 190.149 308.171,190.102 308.256,190.625 308.594 C 191.744 309.317,192.575 309.055,192.489 308.008 C 192.393 306.857,192.410 306.864,191.643 307.631 M175.391 308.398 C 176.357 308.916,177.324 309.340,177.539 309.340 C 177.754 309.340,177.139 308.916,176.172 308.398 C 175.205 307.881,174.238 307.457,174.023 307.457 C 173.809 307.457,174.424 307.881,175.391 308.398 M201.367 309.239 C 200.723 309.310,198.174 309.414,195.703 309.470 L 191.211 309.570 191.172 311.523 C 191.135 313.388,191.197 313.509,192.539 314.190 C 194.231 315.047,201.874 315.663,201.404 314.904 C 201.251 314.656,201.279 314.453,201.466 314.453 C 201.982 314.453,203.465 312.300,203.662 311.265 C 203.758 310.763,203.959 310.044,204.108 309.668 C 204.394 308.952,204.216 308.924,201.367 309.239 M221.599 311.978 C 221.728 312.187,221.228 312.577,220.487 312.845 C 219.747 313.113,219.141 313.507,219.141 313.720 C 219.141 313.934,218.965 314.000,218.750 313.867 C 218.535 313.734,218.359 313.821,218.359 314.059 C 218.359 314.550,215.659 315.789,215.322 315.453 C 215.202 315.333,215.339 315.234,215.625 315.234 C 215.911 315.234,216.054 315.142,215.941 315.030 C 215.661 314.750,214.419 315.254,214.614 315.568 C 214.699 315.707,213.072 315.797,210.998 315.769 C 207.424 315.720,205.664 316.159,205.664 317.097 C 205.664 317.254,205.519 317.335,205.342 317.275 C 205.165 317.216,205.124 317.336,205.250 317.541 C 205.377 317.745,205.082 317.989,204.596 318.083 C 203.950 318.207,204.080 318.282,205.078 318.362 L 206.445 318.470 204.883 318.728 C 197.731 319.907,244.352 319.526,276.367 318.143 C 281.914 317.903,294.453 316.615,294.822 316.246 C 296.354 314.714,276.003 313.419,244.638 313.052 C 232.128 312.906,221.980 312.646,222.086 312.475 C 222.192 312.304,222.073 312.036,221.821 311.881 C 221.566 311.723,221.467 311.766,221.599 311.978 M172.597 312.689 C 172.499 312.788,161.090 313.045,147.244 313.261 C 133.399 313.477,120.488 313.829,118.555 314.042 C 116.621 314.256,113.302 314.616,111.178 314.842 C 103.529 315.658,105.566 316.643,116.406 317.370 C 118.232 317.493,120.869 317.675,122.266 317.776 C 123.662 317.876,127.266 318.048,130.273 318.159 C 133.281 318.269,140.400 318.561,146.094 318.806 C 160.042 319.408,189.036 319.447,193.555 318.870 L 197.070 318.420 193.652 318.515 C 191.772 318.567,190.234 318.460,190.234 318.277 C 190.234 318.094,189.927 317.832,189.551 317.695 C 188.669 317.374,186.329 315.363,186.564 315.129 C 186.812 314.881,185.571 315.028,184.287 315.398 C 183.599 315.596,182.593 315.491,181.444 315.099 C 180.466 314.766,179.768 314.658,179.892 314.859 C 180.021 315.067,179.814 315.115,179.415 314.970 C 178.423 314.609,177.090 313.672,177.569 313.672 C 177.789 313.672,178.177 313.880,178.431 314.134 C 178.685 314.388,178.990 314.499,179.109 314.381 C 179.435 314.054,176.612 312.814,176.168 313.089 C 175.955 313.220,175.781 313.170,175.781 312.978 C 175.781 312.622,172.924 312.363,172.597 312.689 M200.684 318.635 C 201.167 318.728,201.958 318.728,202.441 318.635 C 202.925 318.542,202.529 318.466,201.563 318.466 C 200.596 318.466,200.200 318.542,200.684 318.635 M196.191 319.420 C 196.782 319.510,197.749 319.510,198.340 319.420 C 198.931 319.331,198.447 319.258,197.266 319.258 C 196.084 319.258,195.601 319.331,196.191 319.420 " stroke="none" fill="#b5b5b6" fill-rule="evenodd"></path><path id="path2" d="M232.329 104.573 C 232.815 104.667,233.518 104.663,233.891 104.565 C 234.265 104.467,233.867 104.391,233.008 104.395 C 232.148 104.400,231.843 104.480,232.329 104.573 M207.576 113.477 C 207.577 116.484,207.638 117.663,207.712 116.096 C 207.787 114.529,207.786 112.068,207.711 110.627 C 207.636 109.187,207.575 110.469,207.576 113.477 M115.359 115.234 C 115.359 116.631,115.430 117.202,115.517 116.504 C 115.604 115.806,115.604 114.663,115.517 113.965 C 115.430 113.267,115.359 113.838,115.359 115.234 M190.310 116.674 L 190.234 119.482 188.965 119.639 L 187.695 119.797 188.977 119.859 C 190.548 119.936,190.706 119.581,190.525 116.365 L 190.385 113.867 190.310 116.674 M146.777 119.807 C 147.261 119.900,148.052 119.900,148.535 119.807 C 149.019 119.714,148.623 119.638,147.656 119.638 C 146.689 119.638,146.294 119.714,146.777 119.807 M157.916 119.812 C 158.509 119.901,159.388 119.899,159.869 119.806 C 160.349 119.714,159.863 119.640,158.789 119.643 C 157.715 119.646,157.322 119.722,157.916 119.812 M163.574 119.821 C 165.132 119.895,167.681 119.895,169.238 119.821 C 170.796 119.747,169.521 119.686,166.406 119.686 C 163.291 119.686,162.017 119.747,163.574 119.821 M208.887 119.807 C 209.370 119.900,210.161 119.900,210.645 119.807 C 211.128 119.714,210.732 119.638,209.766 119.638 C 208.799 119.638,208.403 119.714,208.887 119.807 M251.660 119.801 C 252.036 119.899,252.651 119.899,253.027 119.801 C 253.403 119.702,253.096 119.622,252.344 119.622 C 251.592 119.622,251.284 119.702,251.660 119.801 M115.325 126.953 C 115.325 127.705,115.405 128.013,115.504 127.637 C 115.602 127.261,115.602 126.646,115.504 126.270 C 115.405 125.894,115.325 126.201,115.325 126.953 M115.368 133.789 C 115.370 135.508,115.438 136.162,115.521 135.244 C 115.603 134.325,115.602 132.919,115.518 132.119 C 115.434 131.319,115.367 132.070,115.368 133.789 M129.778 136.328 C 129.778 137.080,129.859 137.388,129.957 137.012 C 130.055 136.636,130.055 136.021,129.957 135.645 C 129.859 135.269,129.778 135.576,129.778 136.328 M265.731 137.109 C 265.731 138.076,265.808 138.472,265.901 137.988 C 265.994 137.505,265.994 136.714,265.901 136.230 C 265.808 135.747,265.731 136.143,265.731 137.109 M269.299 142.383 C 269.299 145.820,269.359 147.174,269.432 145.392 C 269.504 143.609,269.504 140.796,269.431 139.142 C 269.358 137.487,269.298 138.945,269.299 142.383 M133.352 141.992 C 133.353 144.570,133.416 145.574,133.493 144.223 C 133.569 142.872,133.569 140.762,133.491 139.535 C 133.414 138.309,133.351 139.414,133.352 141.992 M123.183 149.609 C 123.183 151.436,123.251 152.183,123.333 151.270 C 123.415 150.356,123.415 148.862,123.333 147.949 C 123.251 147.036,123.183 147.783,123.183 149.609 M127.693 154.590 C 126.317 156.115,125.247 158.606,125.751 159.110 C 126.026 159.385,126.470 158.783,127.163 157.197 C 127.718 155.924,128.339 154.575,128.543 154.199 C 129.066 153.232,128.812 153.349,127.693 154.590 M113.965 155.354 C 114.448 155.447,115.239 155.447,115.723 155.354 C 116.206 155.261,115.811 155.185,114.844 155.185 C 113.877 155.185,113.481 155.261,113.965 155.354 M237.402 155.744 C 237.886 155.838,238.677 155.838,239.160 155.744 C 239.644 155.651,239.248 155.575,238.281 155.575 C 237.314 155.575,236.919 155.651,237.402 155.744 M271.144 156.725 C 271.369 157.431,271.630 158.253,271.723 158.552 C 271.817 158.851,271.972 159.017,272.069 158.921 C 272.331 158.659,271.512 155.922,271.095 155.665 C 270.895 155.541,270.916 156.012,271.144 156.725 M120.703 159.135 C 120.703 159.218,121.221 159.362,121.854 159.455 C 122.488 159.548,122.917 159.480,122.808 159.304 C 122.614 158.991,120.703 158.838,120.703 159.135 M277.599 159.277 C 277.500 159.438,278.237 159.518,279.237 159.454 C 282.089 159.270,282.435 159.079,280.004 159.030 C 278.781 159.005,277.699 159.116,277.599 159.277 M108.749 168.750 C 108.749 171.865,108.810 173.140,108.884 171.582 C 108.958 170.024,108.958 167.476,108.884 165.918 C 108.810 164.360,108.749 165.635,108.749 168.750 M111.092 165.521 C 111.231 166.760,111.337 168.319,111.328 168.986 C 111.319 169.653,111.488 170.620,111.705 171.135 C 111.997 171.828,112.075 170.984,112.006 167.878 C 111.937 164.749,111.778 163.633,111.377 163.477 C 110.942 163.308,110.888 163.698,111.092 165.521 M267.721 167.383 C 267.722 169.531,267.787 170.360,267.867 169.225 C 267.946 168.090,267.945 166.332,267.865 165.319 C 267.785 164.306,267.720 165.234,267.721 167.383 M287.940 167.457 C 287.981 170.674,288.039 171.007,288.301 169.531 C 288.748 167.019,288.738 164.149,288.281 163.867 C 288.030 163.712,287.908 164.991,287.940 167.457 M272.656 165.602 C 272.656 166.019,272.832 166.469,273.047 166.602 C 273.268 166.738,273.438 166.410,273.438 165.843 C 273.438 165.294,273.262 164.844,273.047 164.844 C 272.832 164.844,272.656 165.185,272.656 165.602 M123.528 166.406 C 123.528 167.158,123.609 167.466,123.707 167.090 C 123.805 166.714,123.805 166.099,123.707 165.723 C 123.609 165.347,123.528 165.654,123.528 166.406 M290.780 170.703 C 290.780 173.818,290.841 175.093,290.915 173.535 C 290.989 171.978,290.989 169.429,290.915 167.871 C 290.841 166.313,290.780 167.588,290.780 170.703 M276.694 169.141 C 276.694 170.752,276.763 171.411,276.847 170.605 C 276.931 169.800,276.931 168.481,276.847 167.676 C 276.763 166.870,276.694 167.529,276.694 169.141 M275.195 168.750 C 275.047 169.425,275.007 170.059,275.107 170.159 C 275.206 170.258,275.400 169.778,275.537 169.092 C 275.863 167.464,275.547 167.148,275.195 168.750 M123.549 170.117 C 123.552 171.191,123.628 171.584,123.718 170.991 C 123.808 170.397,123.805 169.518,123.712 169.038 C 123.620 168.557,123.546 169.043,123.549 170.117 M125.106 171.484 C 125.106 172.451,125.183 172.847,125.276 172.363 C 125.369 171.880,125.369 171.089,125.276 170.605 C 125.183 170.122,125.106 170.518,125.106 171.484 M275.807 172.070 C 275.787 172.930,275.665 174.028,275.535 174.512 C 275.369 175.131,275.469 175.391,275.874 175.391 C 276.327 175.391,276.412 174.960,276.279 173.340 C 276.059 170.665,275.852 170.110,275.807 172.070 M193.916 174.609 L 193.945 177.539 198.633 177.557 L 203.320 177.575 198.747 177.448 L 194.174 177.320 194.030 174.500 L 193.886 171.680 193.916 174.609 M130.247 182.031 C 130.247 187.295,130.302 189.448,130.370 186.816 C 130.438 184.185,130.438 179.878,130.370 177.246 C 130.302 174.614,130.247 176.768,130.247 182.031 M288.579 178.011 C 289.065 178.104,289.768 178.101,290.141 178.003 C 290.515 177.905,290.117 177.829,289.258 177.833 C 288.398 177.837,288.093 177.917,288.579 178.011 M116.914 184.276 C 118.804 184.347,121.792 184.347,123.554 184.275 C 125.316 184.202,123.770 184.144,120.117 184.144 C 116.465 184.145,115.023 184.204,116.914 184.276 M200.879 184.264 C 201.470 184.354,202.437 184.354,203.027 184.264 C 203.618 184.175,203.135 184.101,201.953 184.101 C 200.771 184.101,200.288 184.175,200.879 184.264 M272.520 184.277 C 272.420 184.438,274.387 184.524,276.892 184.468 C 285.293 184.279,286.183 184.135,279.418 184.060 C 275.724 184.018,272.620 184.116,272.520 184.277 M163.000 194.428 C 164.027 194.509,165.609 194.508,166.516 194.426 C 167.422 194.344,166.582 194.278,164.648 194.279 C 162.715 194.280,161.973 194.347,163.000 194.428 M243.665 194.429 C 244.801 194.508,246.558 194.507,247.572 194.427 C 248.585 194.347,247.656 194.282,245.508 194.283 C 243.359 194.284,242.530 194.350,243.665 194.429 M272.356 198.047 C 272.356 198.799,272.437 199.106,272.535 198.730 C 272.633 198.354,272.633 197.739,272.535 197.363 C 272.437 196.987,272.356 197.295,272.356 198.047 M155.772 204.583 C 156.691 204.666,158.097 204.665,158.897 204.581 C 159.697 204.497,158.945 204.429,157.227 204.431 C 155.508 204.432,154.853 204.501,155.772 204.583 M234.290 204.585 C 235.426 204.664,237.183 204.664,238.197 204.583 C 239.210 204.503,238.281 204.439,236.133 204.440 C 233.984 204.441,233.155 204.506,234.290 204.585 M198.737 229.189 C 199.440 229.276,200.494 229.274,201.081 229.185 C 201.668 229.096,201.094 229.025,199.805 229.027 C 198.516 229.029,198.035 229.102,198.737 229.189 M120.451 238.086 C 120.450 240.020,120.516 240.860,120.598 239.953 C 120.680 239.047,120.681 237.465,120.600 236.438 C 120.519 235.411,120.452 236.152,120.451 238.086 M276.738 248.047 C 276.738 255.244,276.790 258.188,276.855 254.590 C 276.919 250.991,276.919 245.103,276.855 241.504 C 276.790 237.905,276.738 240.850,276.738 248.047 M270.403 248.438 C 270.403 249.189,270.484 249.497,270.582 249.121 C 270.680 248.745,270.680 248.130,270.582 247.754 C 270.484 247.378,270.403 247.686,270.403 248.438 M199.121 253.401 C 199.604 253.494,200.396 253.494,200.879 253.401 C 201.362 253.308,200.967 253.231,200.000 253.231 C 199.033 253.231,198.638 253.308,199.121 253.401 M204.809 263.867 C 204.811 265.156,204.884 265.637,204.971 264.934 C 205.058 264.232,205.056 263.178,204.967 262.591 C 204.877 262.004,204.806 262.578,204.809 263.867 M204.867 285.742 C 204.867 295.410,204.918 299.309,204.980 294.407 C 205.042 289.505,205.042 281.594,204.980 276.829 C 204.918 272.063,204.867 276.074,204.867 285.742 M269.984 272.536 C 269.950 274.510,270.054 276.208,270.215 276.308 C 270.376 276.408,270.459 275.320,270.400 273.890 C 270.212 269.359,270.049 268.827,269.984 272.536 M116.113 284.660 C 116.919 284.744,118.237 284.744,119.043 284.660 C 119.849 284.575,119.189 284.506,117.578 284.506 C 115.967 284.506,115.308 284.575,116.113 284.660 M276.734 284.881 C 276.627 285.160,276.594 287.928,276.661 291.034 L 276.781 296.680 276.867 290.746 L 276.953 284.813 278.418 284.660 L 279.883 284.506 278.406 284.441 C 277.504 284.401,276.853 284.572,276.734 284.881 M136.426 294.030 C 137.017 294.119,137.983 294.119,138.574 294.030 C 139.165 293.940,138.682 293.867,137.500 293.867 C 136.318 293.867,135.835 293.940,136.426 294.030 M259.082 294.030 C 259.673 294.119,260.640 294.119,261.230 294.030 C 261.821 293.940,261.338 293.867,260.156 293.867 C 258.975 293.867,258.491 293.940,259.082 294.030 M127.056 297.546 C 127.650 297.636,128.529 297.633,129.009 297.541 C 129.490 297.448,129.004 297.374,127.930 297.377 C 126.855 297.380,126.462 297.456,127.056 297.546 M267.480 297.541 C 267.964 297.634,268.755 297.634,269.238 297.541 C 269.722 297.448,269.326 297.372,268.359 297.372 C 267.393 297.372,266.997 297.448,267.480 297.541 M126.862 300.674 C 127.565 300.761,128.619 300.759,129.206 300.670 C 129.793 300.581,129.219 300.509,127.930 300.512 C 126.641 300.514,126.160 300.587,126.862 300.674 M267.291 300.671 C 267.884 300.761,268.763 300.758,269.244 300.666 C 269.724 300.573,269.238 300.499,268.164 300.502 C 267.090 300.505,266.697 300.581,267.291 300.671 M198.547 318.256 C 199.574 318.337,201.156 318.336,202.063 318.254 C 202.969 318.172,202.129 318.106,200.195 318.107 C 198.262 318.109,197.520 318.176,198.547 318.256 " stroke="none" fill="#746c6c" fill-rule="evenodd"></path></g></svg>