<?xml version="1.0" standalone="no"?>
<!DOCTYPE svg PUBLIC "-//W3C//DTD SVG 20010904//EN"
 "http://www.w3.org/TR/2001/REC-SVG-20010904/DTD/svg10.dtd">
<svg version="1.0" xmlns="http://www.w3.org/2000/svg"
 width="493.000000pt" height="395.000000pt" viewBox="0 0 493.000000 395.000000"
 preserveAspectRatio="xMidYMid meet">

<g transform="translate(0.000000,395.000000) scale(0.100000,-0.100000)"
fill="#000000" stroke="none">
<path d="M2877 3543 c-4 -3 -7 -15 -7 -25 0 -26 24 -17 28 10 3 21 -8 29 -21
15z"/>
<path d="M2176 3494 c-22 -21 -20 -43 5 -70 l21 -22 -46 -27 c-62 -36 -139
-123 -154 -174 -7 -23 -19 -41 -27 -41 -24 0 -26 -17 -11 -67 9 -26 22 -122
30 -212 10 -111 19 -167 28 -172 11 -7 35 -11 68 -11 3 0 22 3 43 6 20 4 37 3
37 -1 0 -4 -28 -23 -61 -42 -33 -19 -82 -54 -110 -78 -43 -36 -57 -43 -94 -43
-52 0 -104 -39 -136 -101 -46 -92 3 -218 81 -207 24 4 38 -2 61 -23 27 -25 29
-32 29 -106 0 -68 7 -110 35 -209 6 -18 3 -20 -29 -16 -27 3 -40 -1 -60 -22
-36 -35 -34 -71 4 -91 17 -9 28 -20 25 -25 -10 -16 -88 -51 -96 -43 -3 5 -75
217 -158 473 -84 256 -157 475 -162 488 -11 29 -11 32 1 32 18 0 95 53 83 57
-7 3 -32 -7 -56 -21 l-43 -26 -18 55 c-9 30 -27 67 -40 82 -13 16 -26 37 -30
48 -3 11 -14 30 -24 42 -16 22 -19 22 -65 8 l-47 -14 -15 34 c-7 19 -17 35
-20 35 -3 0 -1 -9 5 -19 5 -11 10 -28 9 -38 -2 -37 -43 74 -45 122 l-3 50 32
-39 c64 -77 106 -121 111 -116 3 3 -26 44 -64 90 -56 70 -66 87 -54 96 13 10
20 44 9 44 -2 0 -20 -7 -38 -16 l-35 -17 2 -188 c1 -104 5 -192 9 -195 4 -4 0
-15 -9 -25 -14 -15 -7 -41 84 -300 55 -156 103 -299 107 -316 5 -26 12 -33 30
-33 22 0 53 -25 43 -36 -3 -2 -17 0 -32 5 -34 13 -53 5 -71 -30 -26 -50 -19
-85 26 -134 23 -25 40 -47 38 -48 -2 -2 -19 -9 -37 -17 -35 -14 -62 -54 -62
-92 0 -31 23 -63 73 -99 25 -18 46 -43 53 -65 11 -33 11 -34 -5 -20 -26 24
-59 19 -92 -13 -57 -58 -26 -117 77 -146 33 -9 64 -18 70 -20 6 -2 14 -22 17
-45 3 -24 15 -53 29 -67 22 -24 47 -27 107 -12 9 3 22 -15 36 -51 12 -30 53
-102 92 -160 94 -140 223 -338 223 -342 0 -2 -89 -4 -198 -4 -163 -2 -446 -25
-459 -38 -7 -6 168 -16 312 -17 206 -1 388 -13 392 -26 2 -5 11 -19 19 -29 15
-18 15 -17 10 11 -2 17 -8 38 -11 48 -7 16 2 17 106 16 123 -1 124 -4 9 -19
-64 -8 -53 -8 70 -5 510 16 1030 41 1055 52 38 16 -96 18 -675 14 l-576 -4
-17 184 c-21 225 -22 259 -3 259 8 0 18 -4 21 -10 13 -21 44 -9 64 24 12 18
33 45 47 59 24 24 28 25 47 12 12 -8 31 -14 42 -14 17 1 17 2 3 6 -10 2 -18
13 -18 24 0 48 -88 -8 -142 -91 -12 -19 -19 -22 -28 -13 -17 16 -7 49 31 106
17 26 29 50 27 53 -7 7 -69 -66 -91 -106 -10 -19 -21 -29 -27 -24 -8 8 -70
215 -70 233 0 5 20 14 45 20 44 11 58 25 76 80 6 18 7 10 4 -26 -5 -46 -3 -53
16 -64 20 -10 26 -7 56 27 53 61 113 140 113 149 0 4 -13 -10 -29 -31 -16 -21
-42 -52 -58 -67 l-30 -28 1 40 c0 31 -6 47 -29 71 l-29 30 22 39 c12 21 22 53
22 70 0 26 4 31 23 31 31 0 67 40 67 73 0 21 -11 35 -45 59 -34 24 -43 36 -40
52 3 12 7 40 8 63 1 24 3 43 4 43 2 0 14 -23 28 -50 14 -28 42 -69 63 -92 l37
-41 75 7 c41 3 101 9 132 12 55 6 58 5 68 -20 10 -29 14 -30 82 -26 39 1 48
-2 59 -21 10 -20 9 -25 -12 -40 -70 -52 -79 -62 -79 -84 0 -13 4 -26 9 -29 7
-5 171 74 230 112 23 14 23 12 -5 -21 -16 -20 -49 -53 -73 -74 -24 -20 -52
-50 -61 -66 -18 -29 -18 -29 -30 -8 -6 12 -36 33 -66 46 -66 29 -101 22 -110
-24 -5 -24 -19 -35 -88 -69 -44 -23 -89 -43 -98 -46 -19 -6 -25 -26 -8 -26 5
0 26 11 46 25 43 29 59 32 49 8 -5 -10 -13 -39 -18 -64 -9 -38 -7 -52 9 -85
10 -21 28 -43 39 -48 19 -8 20 -16 17 -122 -2 -62 2 -152 9 -201 7 -48 12
-109 11 -134 -2 -52 16 -70 43 -43 17 18 19 36 5 50 -7 7 8 67 48 187 45 135
56 177 45 181 -18 7 -17 46 2 46 25 0 58 89 59 161 1 62 3 67 27 76 l26 10
-13 -36 c-26 -73 -9 -167 35 -190 17 -10 19 -15 10 -38 -19 -51 -7 -246 24
-383 1 -3 -4 -14 -10 -26 -7 -12 -8 -26 -3 -35 15 -23 45 3 43 37 -3 31 60
215 112 331 24 51 30 74 22 82 -8 8 -5 17 10 33 26 28 73 121 73 144 0 13 3
14 14 5 10 -9 27 -9 63 -2 l48 10 -46 -4 c-26 -2 -49 -2 -52 2 -3 3 12 29 33
57 59 78 60 101 11 161 -23 27 -41 54 -41 60 0 5 7 2 14 -8 19 -25 30 -5 22
38 l-7 33 53 12 c29 6 100 18 158 27 58 8 112 22 122 30 9 8 19 10 22 5 3 -5
29 -12 58 -15 29 -4 77 -9 105 -13 52 -6 54 -6 93 34 36 36 40 44 40 91 0 45
-5 56 -36 91 -26 29 -32 40 -20 40 9 0 16 4 16 10 0 5 -32 57 -71 115 -67 99
-71 107 -55 124 25 28 19 57 -18 86 -18 14 -62 71 -98 128 -57 89 -65 107 -61
139 7 56 -3 82 -52 138 l-44 50 24 24 c27 27 35 89 14 102 -15 9 -28 -12 -35
-58 -4 -21 -8 -38 -9 -38 -1 0 -20 7 -41 16 -50 21 -111 11 -162 -25 -38 -28
-42 -29 -191 -32 l-153 -4 6 29 c3 16 6 44 6 62 0 30 3 34 28 34 45 0 88 34
107 84 23 60 14 103 -35 162 -42 51 -42 72 0 94 25 13 26 3 3 -25 -10 -11 -7
-9 7 5 36 38 80 94 80 102 0 4 -16 -4 -36 -17 -45 -31 -54 -31 -54 -2 0 14
-11 0 -31 -42 l-31 -63 -37 34 c-48 46 -94 73 -160 92 -63 18 -178 21 -235 5
-44 -12 -56 -3 -56 42 0 46 -43 65 -74 33z m279 -115 c36 -12 65 -26 65 -30 0
-5 -12 -16 -26 -25 -14 -10 -43 -43 -64 -75 -46 -66 -40 -65 -252 -75 -137 -6
-138 -6 -138 15 0 69 94 167 190 196 23 7 24 7 10 -10 -14 -17 -13 -17 7 -7
25 14 87 30 120 31 13 1 52 -9 88 -20z m95 -3 c0 -2 -9 -2 -20 1 -11 3 -20 9
-20 15 0 5 9 4 20 -2 11 -6 20 -12 20 -14z m290 -20 c0 -3 -4 -8 -10 -11 -5
-3 -10 -1 -10 4 0 6 5 11 10 11 6 0 10 -2 10 -4z m-256 -54 c4 -2 3 -8 -4 -12
-6 -4 -12 -13 -14 -21 -3 -19 -25 -57 -26 -43 0 5 5 15 12 22 9 9 9 12 -1 12
-9 0 -11 8 -7 26 5 18 3 24 -5 18 -8 -4 -9 -3 -5 4 6 10 25 8 50 -6z m66 3 c0
-2 -14 -12 -31 -21 -17 -8 -28 -11 -24 -4 4 6 17 15 29 20 27 11 26 11 26 5z
m-160 -45 c-6 -11 -13 -20 -16 -20 -2 0 0 9 6 20 6 11 13 20 16 20 2 0 0 -9
-6 -20z m215 0 c3 -5 -9 -19 -27 -30 -18 -11 -33 -23 -33 -27 -1 -13 -34 -69
-35 -58 0 6 7 21 16 33 8 12 10 22 5 22 -6 0 -18 -14 -27 -31 -16 -32 -16 -84
1 -124 8 -20 8 -20 -13 -1 -49 43 -39 120 24 182 42 42 76 55 89 34z m-325
-109 c0 -16 -27 -20 -185 -31 -203 -13 -215 -13 -215 5 0 8 1 16 3 17 2 1 197
10 350 16 26 1 47 -2 47 -7z m3 -143 c3 -51 11 -142 18 -201 11 -94 11 -109
-1 -117 -19 -12 -151 -12 -170 0 -23 15 -9 19 83 26 63 5 87 11 87 21 0 10
-22 12 -117 7 -65 -3 -137 -10 -160 -16 -23 -6 -53 -8 -66 -4 -20 5 -24 12
-24 43 -1 21 -8 98 -17 172 -8 74 -13 137 -11 139 2 3 44 4 92 4 48 -1 122 3
163 7 41 4 85 9 96 10 20 1 22 -5 27 -91z m-1026 -118 c10 -26 9 -30 -7 -30
-23 0 -55 46 -37 53 25 11 33 6 44 -23z m1819 8 l28 -13 -30 -6 c-29 -7 -29
-7 6 -8 57 -2 65 -16 17 -28 -139 -38 -210 -232 -106 -289 21 -11 22 -13 6
-19 -32 -13 -68 4 -83 40 -32 77 -7 174 64 249 l37 39 -45 -25 c-86 -49 -129
-156 -96 -242 20 -52 44 -76 88 -86 l33 -8 -34 -1 c-107 -3 -169 137 -114 259
20 45 82 113 126 137 29 16 69 16 103 1z m-1803 -65 c-7 -2 -21 -2 -30 0 -10
3 -4 5 12 5 17 0 24 -2 18 -5z m1432 -14 c5 -7 -8 -8 -41 -3 -64 9 -68 14 -11
14 25 0 49 -5 52 -11z m60 -63 c-9 -32 -24 -71 -35 -85 -27 -39 -103 -107
-157 -141 -26 -17 -43 -30 -37 -30 5 0 1 -5 -9 -11 -9 -5 -22 -7 -29 -3 -6 4
-8 3 -5 -3 8 -13 -78 -46 -178 -69 -114 -27 -332 -23 -373 6 -9 7 -5 1 10 -13
70 -65 324 -60 505 12 29 11 64 23 79 25 26 5 26 4 21 -37 -5 -31 -4 -37 4
-22 7 15 8 11 4 -20 -3 -30 -2 -36 6 -25 8 11 9 7 5 -18 -4 -21 -2 -31 4 -27
7 4 9 -9 5 -37 -4 -33 -3 -39 5 -23 9 18 10 17 6 -8 -2 -15 0 -30 4 -32 5 -3
11 -23 15 -44 3 -22 15 -47 26 -57 19 -17 20 -17 13 2 -7 19 -6 19 8 0 8 -10
20 -16 26 -12 7 4 12 4 12 1 0 -11 -244 -124 -297 -138 -41 -10 -50 -16 -41
-25 19 -19 -17 -26 -136 -27 l-109 0 -45 65 c-96 142 -203 390 -210 485 -4 55
-1 64 24 94 27 33 154 121 174 121 6 0 19 -9 29 -19 20 -20 19 -20 -14 -31
-30 -10 -57 -40 -36 -40 5 0 12 -7 15 -16 3 -8 2 -12 -4 -9 -6 3 -10 2 -10 -4
0 -21 43 -33 94 -28 l51 6 -45 -15 c-25 -8 -61 -13 -80 -10 -28 4 -31 3 -17
-5 37 -22 219 12 356 65 150 58 237 115 292 190 16 21 29 35 29 30 0 -20 -92
-124 -135 -154 -59 -40 -147 -80 -255 -115 -70 -23 -104 -28 -192 -29 -96 -1
-109 1 -123 19 -32 41 -34 51 -19 80 12 23 12 26 0 16 -20 -17 -39 -68 -32
-86 13 -35 74 -48 206 -42 184 8 319 53 444 148 61 45 94 86 130 158 15 29 29
51 32 49 2 -3 -3 -31 -11 -62z m-1312 -428 c223 -676 267 -825 267 -899 0 -48
-8 -32 -36 72 -27 101 -91 296 -130 395 -14 34 -55 153 -93 264 -46 138 -70
196 -74 182 -3 -12 -1 -22 5 -22 6 0 8 -6 5 -14 -3 -8 -2 -16 2 -18 4 -2 36
-88 70 -193 35 -104 81 -237 103 -295 37 -98 99 -321 111 -400 l6 -35 -14 30
c-7 17 -49 140 -94 275 -44 135 -128 385 -186 555 -142 413 -155 453 -155 499
0 40 22 76 45 76 8 0 76 -191 168 -472z m1659 460 c-27 -6 -55 -22 -79 -46
-35 -35 -36 -35 -19 -7 29 47 57 65 101 64 l40 -1 -43 -10z m-1758 -67 c9 -28
16 -53 16 -58 -1 -12 -26 47 -34 80 -11 45 1 31 18 -22z m1901 -168 c21 -38
48 -80 58 -95 11 -14 17 -32 15 -39 -2 -7 -34 32 -70 86 -60 91 -70 115 -49
115 4 0 24 -30 46 -67z m-21 -64 c37 -59 55 -97 51 -108 -8 -20 -12 -15 -88
109 -36 59 -59 86 -77 91 l-25 6 25 11 c33 13 43 4 114 -109z m-534 76 c0 -8
-4 -15 -10 -15 -5 0 -7 7 -4 15 4 8 8 15 10 15 2 0 4 -7 4 -15z m-572 -12
c-10 -2 -26 -2 -35 0 -10 3 -2 5 17 5 19 0 27 -2 18 -5z m107 -23 c-11 -5 -27
-9 -35 -9 -9 0 -8 4 5 9 11 5 27 9 35 9 9 0 8 -4 -5 -9z m945 -41 c15 -28 5
-23 -15 7 -9 15 -12 23 -6 20 6 -4 16 -16 21 -27z m-1360 2 c0 -12 -16 -29
-44 -45 -25 -15 -48 -38 -56 -56 -15 -37 -7 -95 16 -121 25 -28 1 -23 -25 5
-37 39 -40 105 -7 160 15 26 28 46 29 46 1 0 20 7 42 15 22 8 41 14 43 15 1 0
2 -9 2 -19z m785 -63 c3 -55 2 -58 -5 -23 -10 47 -12 101 -4 92 3 -3 7 -34 9
-69z m555 -203 c24 -39 24 -39 50 -25 18 9 19 7 18 -35 l-1 -46 -41 6 c-23 3
-72 0 -111 -9 -53 -11 -72 -12 -77 -3 -13 20 -9 26 25 40 54 23 60 38 68 170
10 172 21 187 36 49 8 -82 17 -121 33 -147z m5 189 c5 -6 19 -27 30 -47 21
-40 12 -64 -12 -32 -13 17 -15 17 -10 2 7 -18 -3 -111 -10 -103 -5 5 -33 201
-32 226 0 8 6 4 12 -10 6 -14 16 -30 22 -36z m66 -6 c8 -15 8 -18 0 -14 -6 4
-16 16 -22 28 -8 15 -8 18 0 14 6 -4 16 -16 22 -28z m-1479 -28 c-5 -47 16
-86 50 -93 13 -3 7 -4 -12 -4 -32 2 -36 6 -49 44 -12 33 -12 47 -3 67 16 35
18 33 14 -14z m865 -52 c-3 -8 -6 -5 -6 6 -1 11 2 17 5 13 3 -3 4 -12 1 -19z
m10 -60 c-3 -7 -5 -2 -5 12 0 14 2 19 5 13 2 -7 2 -19 0 -25z m806 -58 c31
-44 52 -82 46 -85 -18 -12 -49 7 -65 38 -9 18 -28 47 -41 65 -14 18 -23 35
-20 38 6 6 77 -87 77 -102 0 -7 9 -18 20 -24 19 -10 10 4 -79 131 -7 10 -9 19
-4 19 6 0 35 -36 66 -80z m-796 8 c-3 -8 -6 -5 -6 6 -1 11 2 17 5 13 3 -3 4
-12 1 -19z m779 -115 c-13 -13 -37 10 -61 56 -41 81 -29 91 21 18 25 -38 43
-71 40 -74z m-526 73 c0 -2 -8 -10 -17 -17 -16 -13 -17 -12 -4 4 13 16 21 21
21 13z m-243 -38 c-3 -7 -5 -2 -5 12 0 14 2 19 5 13 2 -7 2 -19 0 -25z m198 4
c-42 -36 -132 -98 -110 -75 17 18 106 83 113 83 3 0 2 -4 -3 -8z m-1545 -22
c0 -5 -2 -10 -4 -10 -3 0 -8 5 -11 10 -3 6 -1 10 4 10 6 0 11 -4 11 -10z
m1660 -19 c0 -11 -12 -29 -26 -40 -55 -43 -76 -12 -23 33 36 31 49 33 49 7z
m197 -16 c2 -6 -52 -29 -119 -50 -68 -22 -133 -46 -146 -54 -12 -7 -25 -11
-28 -8 -6 6 153 95 205 114 41 14 83 13 88 -2z m358 -46 l20 -21 -22 11 c-45
23 -84 14 -125 -29 l-38 -41 0 29 c0 70 113 105 165 51z m-809 6 c-11 -8 -25
-15 -30 -15 -6 1 0 7 14 15 32 19 40 18 16 0z m512 -7 c7 -7 12 -18 12 -25 0
-14 -60 -42 -87 -41 -10 0 -30 -3 -45 -7 -16 -4 -28 -5 -28 -1 0 3 18 10 41
16 23 6 39 14 36 16 -6 6 -214 -59 -247 -76 -11 -6 -20 -9 -20 -6 0 2 -3 12
-6 20 -7 18 17 30 166 82 99 35 158 42 178 22z m258 -34 c18 -14 18 -14 -6 -3
-31 14 -36 19 -24 19 6 0 19 -7 30 -16z m-1878 -29 c-3 -3 -9 2 -12 12 -6 14
-5 15 5 6 7 -7 10 -15 7 -18z m1447 -25 c-11 -5 -27 -9 -35 -9 -9 0 -8 4 5 9
11 5 27 9 35 9 9 0 8 -4 -5 -9z m145 -20 c-8 -6 -24 -9 -35 -9 l-20 1 20 5
c11 3 24 9 29 14 5 5 12 6 15 3 3 -3 -1 -9 -9 -14z m-370 6 c0 -2 2 -11 5 -19
5 -10 -1 -13 -25 -9 -28 4 -30 2 -30 -29 0 -18 7 -41 17 -51 9 -10 11 -18 5
-18 -17 0 -42 41 -42 69 0 30 26 61 52 61 10 0 18 -2 18 -4z m-377 -23 c-7 -2
-19 -2 -25 0 -7 3 -2 5 12 5 14 0 19 -2 13 -5z m680 0 c-7 -2 -19 -2 -25 0 -7
3 -2 5 12 5 14 0 19 -2 13 -5z m-46 -9 c-3 -3 -12 -4 -19 -1 -8 3 -5 6 6 6 11
1 17 -2 13 -5z m-264 -29 c-7 -21 -13 -19 -13 6 0 11 4 18 10 14 5 -3 7 -12 3
-20z m224 19 c-3 -3 -12 -4 -19 -1 -8 3 -5 6 6 6 11 1 17 -2 13 -5z m-1388
-74 c0 -8 -7 1 -14 20 -18 46 -17 64 0 25 8 -16 14 -37 14 -45z m1334 63 c-7
-2 -19 -2 -25 0 -7 3 -2 5 12 5 14 0 19 -2 13 -5z m-993 -44 l25 -21 -27 16
c-37 22 -51 20 -43 -4 4 -11 2 -20 -4 -20 -12 0 -15 33 -4 43 11 12 27 7 53
-14z m-180 -25 c0 -8 -4 -12 -10 -9 -5 3 -10 10 -10 16 0 5 5 9 10 9 6 0 10
-7 10 -16z m-424 -42 c18 -12 27 -52 12 -52 -11 0 -45 19 -68 37 -6 5 22 23
35 23 6 0 15 -4 21 -8z m298 -67 c4 -20 3 -25 -3 -15 -5 8 -11 31 -15 50 -7
41 7 13 18 -35z m-314 -27 c0 -12 -6 -9 -26 13 -19 22 -19 22 4 8 12 -8 22
-17 22 -21z m26 17 c10 -8 15 -14 9 -14 -5 0 -19 6 -29 14 -11 8 -15 15 -10
15 6 0 19 -7 30 -15z m1384 6 c0 -21 -56 -74 -104 -97 l-51 -26 25 24 c31 29
124 108 128 108 1 0 2 -4 2 -9z m-830 -15 c0 -15 -18 -31 -26 -23 -7 7 7 37
17 37 5 0 9 -6 9 -14z m-145 -45 c-16 -15 -65 -25 -65 -13 0 6 10 13 23 15 41
8 51 7 42 -2z m-88 -53 c-3 -8 -6 -5 -6 6 -1 11 2 17 5 13 3 -3 4 -12 1 -19z
m87 -14 c9 -3 16 -14 16 -24 0 -25 -26 -44 -47 -35 -16 7 -15 9 7 15 23 7 24
8 5 15 -11 4 -26 9 -32 11 -7 2 -13 8 -13 14 0 11 39 14 64 4z m1069 -29 c-3
-9 -8 -14 -10 -11 -3 3 -2 9 2 15 9 16 15 13 8 -4z m-571 -21 c-25 -17 -52
-64 -52 -91 0 -10 9 -37 20 -58 19 -39 19 -39 0 -17 -26 32 -35 86 -20 123 13
29 45 59 64 59 6 0 0 -7 -12 -16z m443 -4 c18 -20 18 -21 -1 -15 -19 7 -19 6
0 -9 19 -15 18 -16 -23 -16 -25 0 -40 4 -36 10 3 6 1 10 -5 10 -19 0 -51 -63
-45 -90 5 -17 3 -22 -4 -15 -6 6 -14 25 -17 43 -6 27 -1 37 29 67 40 40 75 45
102 15z m-1359 -25 c1 -8 -2 -15 -6 -15 -5 0 -8 9 -7 20 1 21 10 18 13 -5z
m1010 11 c18 -14 18 -15 0 -22 -10 -4 -32 -10 -50 -13 -24 -5 -32 -13 -34 -33
-2 -15 2 -37 8 -50 l11 -23 -20 24 c-57 65 17 167 85 117z m-1036 -57 c19 -11
26 -17 15 -13 -46 16 -68 17 -60 4 5 -9 4 -11 -4 -6 -6 4 -9 11 -6 16 3 4 -1
11 -7 13 -7 3 -4 6 7 6 11 0 36 -9 55 -20z m1229 -74 c1 -23 4 -26 11 -15 7
12 9 10 7 -8 -3 -40 -25 -2 -31 53 -4 35 -3 43 3 25 5 -14 10 -38 10 -55z
m-1224 44 c11 -17 -1 -21 -15 -4 -8 9 -8 15 -2 15 6 0 14 -5 17 -11z m434
-137 c56 -176 75 -312 46 -312 -9 0 -34 -9 -57 -20 -30 -14 -45 -17 -54 -9
-16 13 -108 159 -103 163 44 32 84 54 133 73 45 18 53 23 29 20 -18 -2 -33 0
-33 5 0 4 10 9 23 9 15 1 11 4 -11 8 -18 3 -33 11 -33 16 0 6 15 12 33 15 l33
6 -42 7 c-50 9 -57 27 -11 27 l33 0 -28 25 c-15 14 -27 31 -27 38 0 24 12 57
21 57 4 0 26 -57 48 -128z m538 -89 c-3 -10 -5 -2 -5 17 0 19 2 27 5 18 2 -10
2 -26 0 -35z m70 5 c-3 -8 -6 -5 -6 6 -1 11 2 17 5 13 3 -3 4 -12 1 -19z m-10
-50 c-3 -7 -5 -2 -5 12 0 14 2 19 5 13 2 -7 2 -19 0 -25z m250 0 c-3 -7 -5 -2
-5 12 0 14 2 19 5 13 2 -7 2 -19 0 -25z m-310 -180 c-2 -24 -4 -7 -4 37 0 44
2 63 4 43 2 -21 2 -57 0 -80z m310 30 c-3 -8 -6 -5 -6 6 -1 11 2 17 5 13 3 -3
4 -12 1 -19z m-778 -105 l-2 -48 -6 40 c-7 38 -5 55 5 55 2 0 3 -21 3 -47z
m-84 -241 c-6 -5 -53 -6 -105 -2 l-95 7 105 1 c57 1 100 -2 95 -6z"/>
<path d="M2371 3301 c-19 -12 -6 -43 16 -39 21 4 31 48 11 48 -7 0 -19 -4 -27
-9z"/>
<path d="M2114 3264 c-19 -28 -7 -51 21 -40 14 5 15 9 5 21 -7 8 -10 22 -6 30
9 23 -2 18 -20 -11z"/>
<path d="M2052 3015 c0 -16 2 -22 5 -12 2 9 2 23 0 30 -3 6 -5 -1 -5 -18z"/>
<path d="M2115 3015 c-27 -27 -29 -33 -16 -87 5 -22 5 -36 0 -32 -5 3 -9 15
-9 27 0 15 -3 18 -11 10 -8 -8 -8 -21 1 -47 27 -81 94 -124 164 -105 50 14 60
32 61 111 0 39 -1 64 -3 58 -3 -7 -11 2 -18 20 -8 17 -11 37 -7 44 3 6 3 8 -2
4 -4 -4 -20 -1 -36 7 -44 23 -96 19 -124 -10z m79 -13 c9 -15 -6 -83 -17 -79
-6 2 -20 15 -30 30 -17 22 -18 29 -7 42 13 16 46 20 54 7z"/>
<path d="M2061 2954 c0 -11 3 -14 6 -6 3 7 2 16 -1 19 -3 4 -6 -2 -5 -13z"/>
<path d="M2158 2303 c6 -2 18 -2 25 0 6 3 1 5 -13 5 -14 0 -19 -2 -12 -5z"/>
<path d="M2652 2180 c-24 -39 -47 -99 -39 -106 11 -11 68 89 65 115 l-3 26
-23 -35z"/>
<path d="M2156 2063 c20 -38 52 -87 71 -110 31 -39 39 -43 76 -42 23 0 65 5
92 9 43 8 40 8 -23 4 -40 -3 -81 -2 -92 1 -21 7 -86 93 -76 102 9 9 -14 44
-24 38 -6 -4 -19 10 -31 29 -37 63 -32 38 7 -31z m38 -19 c3 -8 2 -12 -4 -9
-6 3 -10 10 -10 16 0 14 7 11 14 -7z"/>
<path d="M2368 1993 c7 -3 16 -2 19 1 4 3 -2 6 -13 5 -11 0 -14 -3 -6 -6z"/>
<path d="M1365 2690 c-7 -11 14 -75 44 -137 12 -23 21 -47 21 -53 0 -18 30
-83 35 -78 3 3 -8 42 -25 87 -16 45 -30 94 -30 107 0 23 -25 84 -35 84 -2 0
-7 -4 -10 -10z"/>
<path d="M3107 3428 c-14 -29 -35 -85 -48 -125 -19 -60 -20 -74 -10 -87 8 -9
21 -16 31 -16 22 0 82 66 110 120 20 39 39 57 25 23 -14 -34 -23 -83 -15 -83
4 0 10 7 13 14 3 8 22 18 42 22 25 4 46 19 71 50 20 25 41 41 49 38 16 -7 55
30 55 51 0 27 -20 16 -95 -55 -101 -96 -131 -94 -79 4 20 38 23 50 13 57 -19
11 -31 -2 -70 -77 -40 -77 -111 -158 -116 -133 -2 9 12 60 32 115 50 136 50
134 32 134 -9 0 -26 -22 -40 -52z m293 -23 c-7 -9 -15 -13 -18 -10 -3 2 1 11
8 20 7 9 15 13 18 10 3 -2 -1 -11 -8 -20z m-160 -15 c-6 -12 -14 -20 -17 -17
-2 3 1 14 8 26 7 11 15 18 17 16 2 -2 -2 -13 -8 -25z m-180 -147 c-11 -17 -11
-17 -6 0 3 10 6 24 7 30 0 9 2 9 5 0 3 -7 0 -20 -6 -30z"/>
<path d="M1706 3268 c-31 -47 -80 -204 -100 -321 -22 -123 66 -90 139 53 26
50 44 72 80 94 25 15 44 31 41 34 -3 2 -17 -3 -30 -12 -42 -27 -48 -18 -21 34
25 50 32 90 16 90 -16 0 -27 -24 -65 -134 -38 -110 -80 -196 -97 -196 -5 0 -9
7 -9 15 0 28 41 204 61 262 30 88 21 136 -15 81z m-1 -88 c-22 -67 -30 -59 -9
9 8 29 18 51 21 48 3 -3 -3 -29 -12 -57z m-48 -112 c-3 -8 -6 -5 -6 6 -1 11 2
17 5 13 3 -3 4 -12 1 -19z m-18 -106 c-7 -37 -14 -61 -17 -54 -2 7 2 43 9 80
7 37 14 61 17 54 2 -7 -2 -43 -9 -80z"/>
<path d="M1910 3195 c0 -8 5 -15 10 -15 6 0 10 7 10 15 0 8 -4 15 -10 15 -5 0
-10 -7 -10 -15z"/>
<path d="M3057 3168 c2 -5 22 -8 44 -8 21 0 39 3 39 8 0 4 -20 7 -44 7 -24 0
-42 -3 -39 -7z"/>
<path d="M1543 3105 c-18 -39 -9 -61 13 -31 13 19 20 66 9 66 -3 0 -13 -16
-22 -35z"/>
<path d="M1897 2803 c-4 -3 -7 -21 -7 -40 0 -26 4 -33 20 -33 21 0 37 38 26
65 -6 15 -28 20 -39 8z"/>
<path d="M3610 2790 c0 -5 5 -10 10 -10 6 0 10 5 10 10 0 6 -4 10 -10 10 -5 0
-10 -4 -10 -10z"/>
<path d="M1627 2706 c-6 -15 1 -26 15 -26 4 0 8 9 8 20 0 23 -15 27 -23 6z"/>
<path d="M1816 1977 c-13 -10 -16 -20 -11 -36 9 -29 39 -24 43 8 5 32 -10 44
-32 28z"/>
<path d="M3418 1663 c-8 -10 -27 -43 -41 -74 -17 -39 -34 -61 -53 -71 -17 -7
-30 -23 -32 -36 -4 -26 19 -30 38 -7 9 11 16 13 24 5 5 -5 17 -10 26 -10 18 0
61 42 79 77 6 12 17 20 24 17 7 -2 22 5 32 16 17 19 17 22 2 37 -21 21 -36 9
-75 -61 -65 -114 -83 -91 -27 35 19 44 35 82 35 84 0 11 -18 4 -32 -12z m74
-75 c-7 -7 -12 -8 -12 -2 0 14 12 26 19 19 2 -3 -1 -11 -7 -17z m-172 -103
c-7 -9 -15 -13 -17 -11 -7 7 7 26 19 26 6 0 6 -6 -2 -15z"/>
<path d="M3554 1602 c-26 -31 -34 -45 -18 -29 17 15 41 27 55 27 19 0 21 2 9
10 -13 8 -12 10 3 10 9 0 17 6 17 14 0 33 -20 23 -66 -32z"/>
<path d="M3160 1243 c-12 -27 -30 -69 -42 -95 -14 -34 -28 -50 -49 -57 -40
-14 -38 1 11 99 31 62 37 80 25 80 -10 0 -28 -25 -46 -62 -17 -35 -41 -81 -54
-103 -28 -46 -35 -116 -10 -95 8 7 15 19 15 27 0 7 21 23 47 34 26 11 54 25
61 32 8 6 23 13 35 14 22 4 87 49 87 61 0 4 12 8 26 7 17 0 32 9 42 25 l16 25
-26 -23 c-19 -17 -28 -20 -34 -11 -4 8 3 21 20 36 15 12 22 23 15 23 -7 0 -41
-30 -75 -67 -34 -38 -65 -64 -70 -60 -4 4 7 37 25 72 30 60 33 85 11 85 -5 0
-19 -21 -30 -47z"/>
<path d="M1220 1249 c0 -5 5 -7 10 -4 6 3 10 8 10 11 0 2 -4 4 -10 4 -5 0 -10
-5 -10 -11z"/>
<path d="M3006 1244 c-4 -10 -1 -14 6 -12 15 5 23 28 10 28 -5 0 -13 -7 -16
-16z"/>
<path d="M2915 1121 c-3 -5 -1 -12 5 -16 12 -7 30 2 30 16 0 12 -27 12 -35 0z"/>
<path d="M3260 799 c0 -5 5 -7 10 -4 6 3 10 8 10 11 0 2 -4 4 -10 4 -5 0 -10
-5 -10 -11z"/>
</g>
</svg>
